<?xml version="1.0" encoding="UTF-8"?>
<svg xmlns="http://www.w3.org/2000/svg" xmlns:xlink="http://www.w3.org/1999/xlink" viewBox="0 0 841.89 595.28">
  <defs>
    <style>
      .cls-1 {
        fill: url(#linear-gradient);
      }

      .cls-2 {
        fill: #f4f7fa;
      }

      .cls-3, .cls-4 {
        fill: #fff;
      }

      .cls-5 {
        fill: #d8dee8;
      }

      .cls-6 {
        fill: url(#linear-gradient-9);
      }

      .cls-6, .cls-7, .cls-8, .cls-9, .cls-10, .cls-11, .cls-12, .cls-13 {
        mix-blend-mode: multiply;
        opacity: .3;
      }

      .cls-7 {
        fill: url(#linear-gradient-12);
      }

      .cls-8 {
        fill: url(#linear-gradient-23);
      }

      .cls-9 {
        fill: url(#linear-gradient-21);
      }

      .cls-10 {
        fill: url(#linear-gradient-29);
      }

      .cls-11 {
        fill: url(#linear-gradient-36);
      }

      .cls-12 {
        fill: url(#linear-gradient-31);
      }

      .cls-13 {
        fill: url(#linear-gradient-34);
      }

      .cls-4, .cls-14 {
        mix-blend-mode: soft-light;
      }

      .cls-15 {
        fill: url(#linear-gradient-8);
      }

      .cls-16 {
        fill: url(#linear-gradient-3);
      }

      .cls-17 {
        fill: url(#linear-gradient-4);
      }

      .cls-18 {
        fill: url(#linear-gradient-2);
      }

      .cls-19 {
        fill: url(#linear-gradient-6);
      }

      .cls-20 {
        fill: url(#linear-gradient-7);
      }

      .cls-21 {
        fill: url(#linear-gradient-5);
      }

      .cls-22 {
        fill: url(#linear-gradient-14);
      }

      .cls-23 {
        fill: url(#linear-gradient-18);
      }

      .cls-24 {
        fill: url(#linear-gradient-22);
      }

      .cls-25 {
        fill: url(#linear-gradient-20);
      }

      .cls-26 {
        fill: url(#linear-gradient-15);
      }

      .cls-27 {
        fill: url(#linear-gradient-19);
      }

      .cls-28 {
        fill: url(#linear-gradient-16);
      }

      .cls-29 {
        fill: url(#linear-gradient-17);
      }

      .cls-30 {
        fill: url(#linear-gradient-13);
      }

      .cls-31 {
        fill: url(#linear-gradient-10);
      }

      .cls-32 {
        fill: url(#linear-gradient-11);
      }

      .cls-33 {
        fill: url(#linear-gradient-27);
      }

      .cls-34 {
        fill: url(#linear-gradient-24);
      }

      .cls-35 {
        fill: url(#linear-gradient-26);
      }

      .cls-36 {
        fill: url(#linear-gradient-35);
      }

      .cls-37 {
        fill: url(#linear-gradient-37);
      }

      .cls-38 {
        fill: url(#linear-gradient-25);
      }

      .cls-39 {
        fill: url(#linear-gradient-28);
      }

      .cls-40 {
        fill: url(#linear-gradient-33);
      }

      .cls-41 {
        fill: url(#linear-gradient-30);
      }

      .cls-42 {
        fill: url(#linear-gradient-32);
      }

      .cls-43 {
        isolation: isolate;
      }

      .cls-14 {
        opacity: .5;
      }
    </style>
    <linearGradient id="linear-gradient" x1="286.08" y1="316.48" x2="560.74" y2="316.48" gradientUnits="userSpaceOnUse">
      <stop offset="0" stop-color="#9681bc"/>
      <stop offset="1" stop-color="#6166ae"/>
    </linearGradient>
    <linearGradient id="linear-gradient-2" x1="184.1" y1="316.48" x2="417.23" y2="316.48" xlink:href="#linear-gradient"/>
    <linearGradient id="linear-gradient-3" x1="309.62" y1="316.22" x2="555.71" y2="316.22" xlink:href="#linear-gradient"/>
    <linearGradient id="linear-gradient-4" x1="380.04" y1="216.4" x2="148.06" y2="579.44" gradientUnits="userSpaceOnUse">
      <stop offset="0" stop-color="#f58f86"/>
      <stop offset="1" stop-color="#ed72ac"/>
    </linearGradient>
    <linearGradient id="linear-gradient-5" x1="667.7" y1="259.54" x2="477.51" y2="298.22" xlink:href="#linear-gradient-4"/>
    <linearGradient id="linear-gradient-6" x1="344.19" y1="440.6" x2="573.72" y2="231.1" xlink:href="#linear-gradient"/>
    <linearGradient id="linear-gradient-7" x1="574.75" y1="-75.05" x2="585" y2="327.41" gradientUnits="userSpaceOnUse">
      <stop offset="0" stop-color="#ffc546"/>
      <stop offset="1" stop-color="#f36f56"/>
    </linearGradient>
    <linearGradient id="linear-gradient-8" x1="554.72" y1="-74.38" x2="564.98" y2="328.06" xlink:href="#linear-gradient-7"/>
    <linearGradient id="linear-gradient-9" x1="500.59" y1="184.58" x2="652.17" y2="184.58" xlink:href="#linear-gradient-7"/>
    <linearGradient id="linear-gradient-10" x1="449.09" y1="241.63" x2="420.25" y2="537.69" gradientUnits="userSpaceOnUse">
      <stop offset="0" stop-color="#d191c0"/>
      <stop offset="1" stop-color="#8172b4"/>
    </linearGradient>
    <linearGradient id="linear-gradient-11" x1="474.98" y1="236.1" x2="446.25" y2="531.04" xlink:href="#linear-gradient-10"/>
    <linearGradient id="linear-gradient-12" x1="364.6" y1="300.67" x2="518.21" y2="300.67" xlink:href="#linear-gradient-10"/>
    <linearGradient id="linear-gradient-13" x1="451.88" y1="239.24" x2="375.52" y2="330.87" gradientUnits="userSpaceOnUse">
      <stop offset="0" stop-color="#321944"/>
      <stop offset="1" stop-color="#a13b77"/>
    </linearGradient>
    <linearGradient id="linear-gradient-14" x1="388.45" y1="305.13" x2="350.06" y2="340.21" xlink:href="#linear-gradient-7"/>
    <linearGradient id="linear-gradient-15" x1="201.66" y1="455.99" x2="210.74" y2="395.32" xlink:href="#linear-gradient-7"/>
    <linearGradient id="linear-gradient-16" x1="251.13" y1="562.04" x2="243.7" y2="518.29" xlink:href="#linear-gradient"/>
    <linearGradient id="linear-gradient-17" x1="246.74" y1="545.06" x2="249.22" y2="519.19" xlink:href="#linear-gradient-7"/>
    <linearGradient id="linear-gradient-18" x1="291.68" y1="555.16" x2="284.25" y2="511.41" xlink:href="#linear-gradient"/>
    <linearGradient id="linear-gradient-19" x1="286.16" y1="548.83" x2="288.63" y2="522.97" xlink:href="#linear-gradient-7"/>
    <linearGradient id="linear-gradient-20" x1="254.17" y1="541.68" x2="292.69" y2="396.95" gradientUnits="userSpaceOnUse">
      <stop offset="0" stop-color="#454c8d"/>
      <stop offset="1" stop-color="#26274f"/>
    </linearGradient>
    <linearGradient id="linear-gradient-21" x1="241.48" y1="538.31" x2="280" y2="393.57" xlink:href="#linear-gradient-20"/>
    <linearGradient id="linear-gradient-22" x1="202.5" y1="375.49" x2="376.21" y2="375.49" xlink:href="#linear-gradient-7"/>
    <linearGradient id="linear-gradient-23" x1="229.62" y1="393.04" x2="272.07" y2="393.04" xlink:href="#linear-gradient-7"/>
    <linearGradient id="linear-gradient-24" x1="-2723.29" y1="1260.45" x2="-2723.29" y2="1236.62" gradientTransform="translate(-2683.26 825.87) rotate(145.79) scale(1 -1)" xlink:href="#linear-gradient-7"/>
    <linearGradient id="linear-gradient-25" x1="-4946.19" y1="-510.45" x2="-4954.06" y2="-530.45" gradientTransform="translate(-4601.56 1328.79) rotate(174.28) scale(1 -1)" gradientUnits="userSpaceOnUse">
      <stop offset="0" stop-color="#454c8d"/>
      <stop offset="1" stop-color="#404278"/>
    </linearGradient>
    <linearGradient id="linear-gradient-26" x1="-2740.14" y1="1253.59" x2="-2729" y2="1231.92" gradientTransform="translate(-2683.26 825.87) rotate(145.79) scale(1 -1)" xlink:href="#linear-gradient-7"/>
    <linearGradient id="linear-gradient-27" x1="2542.54" y1="1255.29" x2="2536.46" y2="1239.86" gradientTransform="translate(-2522.44 715.61) rotate(-34.21)" xlink:href="#linear-gradient-25"/>
    <linearGradient id="linear-gradient-28" x1="1133.97" y1="278.21" x2="1121.2" y2="461.51" gradientTransform="translate(-595.85 707.21) rotate(-47.05)" xlink:href="#linear-gradient-7"/>
    <linearGradient id="linear-gradient-29" x1="1123.53" y1="290.13" x2="1112.76" y2="444.68" gradientTransform="translate(-595.85 707.21) rotate(-47.05)" xlink:href="#linear-gradient-7"/>
    <linearGradient id="linear-gradient-30" x1="1213.27" y1="283.62" x2="1200.41" y2="468.14" gradientTransform="translate(-595.85 707.21) rotate(-47.05)" xlink:href="#linear-gradient-7"/>
    <linearGradient id="linear-gradient-31" x1="1213.27" y1="283.62" x2="1200.41" y2="468.14" gradientTransform="translate(-595.85 707.21) rotate(-47.05)" xlink:href="#linear-gradient-7"/>
    <linearGradient id="linear-gradient-32" x1="1216.26" y1="283.93" x2="1203.41" y2="468.24" gradientTransform="translate(-595.85 707.21) rotate(-47.05)" xlink:href="#linear-gradient-7"/>
    <linearGradient id="linear-gradient-33" x1="-2712.89" y1="2459.12" x2="-2723.47" y2="2610.97" gradientTransform="translate(1073.33 3989.98) rotate(125.44)" xlink:href="#linear-gradient-10"/>
    <linearGradient id="linear-gradient-34" x1="-2721.54" y1="2468.99" x2="-2730.46" y2="2597.03" gradientTransform="translate(1073.33 3989.98) rotate(125.44)" xlink:href="#linear-gradient-10"/>
    <linearGradient id="linear-gradient-35" x1="-2647.2" y1="2463.59" x2="-2657.85" y2="2616.46" gradientTransform="translate(1073.33 3989.98) rotate(125.44)" xlink:href="#linear-gradient-10"/>
    <linearGradient id="linear-gradient-36" x1="-2647.2" y1="2463.59" x2="-2657.85" y2="2616.46" gradientTransform="translate(1073.33 3989.98) rotate(125.44)" xlink:href="#linear-gradient-10"/>
    <linearGradient id="linear-gradient-37" x1="-2644.72" y1="2463.86" x2="-2655.36" y2="2616.55" gradientTransform="translate(1073.33 3989.98) rotate(125.44)" xlink:href="#linear-gradient-10"/>
  </defs>
  <g class="cls-43">
    <g id="Layer_1" data-name="Layer 1">
      <g>
        <path class="cls-2" d="M382.76,41.32c-68.29,1.21-173.94,27.17-204.35,93.89-10.62,23.3-9.9,57.56-8.46,126.08,.42,20.14,1.12,49.49,6.05,85.91,10.23,75.66,17.19,127.16,43.53,157.16,66.01,75.15,304.46,72.98,406.29-62.31,55.55-73.8,64.09-178.79,13.3-265.56-55.92-95.53-164.93-136.79-256.35-135.18Z"/>
        <path class="cls-5" d="M523.34,361.1l3.89,8c-3.29,2.43-6.33,5.11-9.09,8.02l-7.35-4.97c-2-1.36-4.73-.81-6.08,1.22l-8.49,12.71c-1.36,2.03-.84,4.79,1.17,6.15l7.42,5.05c-1.63,3.72-2.94,7.57-3.91,11.52l-8.97-.61c-2.42-.17-4.52,1.69-4.7,4.14l-1.11,15.37c-.18,2.46,1.64,4.6,4.06,4.77l9,.63c.41,4.02,1.18,8.03,2.3,12.01l-8.17,4.05c-2.19,1.09-3.11,3.78-2.05,6.01l6.65,13.98c1.07,2.24,3.71,3.17,5.91,2.08l8.19-4.06c2.39,3.37,5.04,6.5,7.91,9.34l-5.09,7.69c-1.37,2.07-.84,4.89,1.19,6.3l12.73,8.8c2.04,1.41,4.81,.87,6.18-1.21l5.08-7.7c3.72,1.7,7.57,3.07,11.53,4.09l-.61,9.28c-.16,2.51,1.7,4.7,4.16,4.88l15.41,1.15c2.47,.18,4.6-1.71,4.75-4.22l.58-9.2c4.03-.41,8.06-1.21,12.05-2.36l4.03,8.29c1.1,2.27,3.8,3.22,6.01,2.12l13.87-6.88c2.22-1.1,3.12-3.83,2.01-6.1l-4.02-8.22c3.37-2.47,6.47-5.21,9.29-8.18l7.46,5.08c2.07,1.41,4.86,.86,6.22-1.22l8.51-13.02c1.36-2.08,.78-4.9-1.29-6.3l-7.43-5.03c1.65-3.82,2.95-7.78,3.91-11.84l8.84,.62c2.47,.17,4.59-1.71,4.72-4.2l.86-15.55c.14-2.48-1.75-4.63-4.22-4.8l-8.75-.6c-.47-4.1-1.33-8.18-2.54-12.22l7.83-3.89c2.2-1.09,3.08-3.78,1.97-6l-6.92-13.85c-1.1-2.21-3.78-3.12-5.97-2.03l-7.81,3.88c-2.48-3.38-5.21-6.49-8.17-9.31l4.79-7.26c1.35-2.04,.78-4.8-1.26-6.16l-12.75-8.49c-2.04-1.36-4.78-.81-6.12,1.23l-4.82,7.28c-3.74-1.64-7.62-2.95-11.59-3.91l.55-8.74c.15-2.43-1.69-4.53-4.12-4.69l-15.16-.97c-2.42-.16-4.51,1.69-4.67,4.12l-.57,8.77c-3.98,.45-7.95,1.27-11.88,2.44l-3.88-7.93c-1.07-2.18-3.7-3.07-5.87-2l-13.6,6.75c-2.17,1.08-3.08,3.72-2.02,5.91Zm4.84,84.37c-10.81-22.46-1.64-49.45,20.41-60.39,22.05-10.94,48.84-1.8,59.88,20.55,11.11,22.48,2.1,49.77-20.2,60.84-22.3,11.06-49.23,1.61-60.1-20.99Z"/>
        <g>
          <g>
            <path class="cls-1" d="M420.05,121.52c-74.79-.48-133.97,84.29-133.97,189.31s59.18,194.65,133.97,200.32c76.84,5.83,140.69-78.74,140.69-189.03s-63.85-200.11-140.69-200.6Zm7.48,379.79h0c-2.22,0-4.48-.09-6.71-.25-32.91-2.5-63.93-23.24-87.37-58.42-24.01-36.05-37.24-82.86-37.24-131.8s13.1-94.2,36.9-128.11c23.11-32.93,53.76-51.07,86.31-51.07h.56c16.93,.11,33.49,5.01,49.2,14.57,15.54,9.45,29.58,23,41.74,40.26,12.37,17.56,22.1,38,28.93,60.75,7.13,23.76,10.75,48.96,10.75,74.89,0,49.27-13.21,95.01-37.19,128.81-23.05,32.49-53.55,50.38-85.89,50.38Z"/>
            <path class="cls-18" d="M290.78,310.83c0-97.64,51.15-177.77,118.44-188.17-4.73-.72-86.31-1.11-91.15-1.14-74.79-.48-133.97,84.29-133.97,189.31s59.18,194.65,133.97,200.32c7.6,.58,91.85,.27,99.15-.86-71.19-10.89-126.44-97.99-126.44-199.46Z"/>
            <path class="cls-16" d="M315.68,121.29c18.24,4.93,54.79,17.58,86.15,50.71,45.13,47.68,43.6,103.26,45.1,127.79,1.22,19.96,12.79,124.71-60.81,178.72-28.71,21.07-58.83,27.26-76.5,29.39,14.33,1.09,96.1,2.17,110.43,3.26,16.93-2.54,41.27-8.66,64.94-25.05,81.49-56.41,71.06-176.28,69.41-192.52-2.51-24.67-9.16-89.93-62.82-135.78-26.32-22.48-54.2-31.97-71.52-36.29-12.31-.08-92.06-.16-104.37-.23Z"/>
            <path class="cls-17" d="M313.42,121.14c-74.04-.47-132.63,83.97-132.63,188.59s58.59,193.88,132.63,199.5c76.06,5.78,139.26-78.47,139.26-188.32s-63.2-199.3-139.26-199.78Zm7.38,378.24h-.01c-2.19,0-4.41-.09-6.6-.25-32.53-2.47-63.22-23.11-86.4-58.12-23.77-35.9-36.87-82.52-36.87-131.28s12.97-93.84,36.53-127.62c22.86-32.78,53.17-50.83,85.35-50.83h.55c16.73,.11,33.09,4.98,48.62,14.48,15.37,9.4,29.26,22.89,41.29,40.07,12.24,17.49,21.87,37.84,28.64,60.5,7.06,23.66,10.64,48.76,10.64,74.59,0,49.08-13.08,94.65-36.82,128.32-22.8,32.33-52.97,50.14-84.93,50.14Z"/>
          </g>
          <g>
            <path class="cls-21" d="M546.51,182.38l-128.66-1.14c-12.58-.11-22.91,10.21-22.91,23.05v208.54c0,12.84,5.02,19.77,22.91,23.15l14.12,.94c10.79-1.37,133.97-28.07,133.97-39.76V203.72c0-11.69-8.65-21.25-19.44-21.34Z"/>
            <path class="cls-19" d="M563.18,182.38l-128.3-1.14c-12.55-.11-22.85,10.19-22.85,23.02v212.17c0,12.82,10.3,21.91,22.85,20.32l128.3-16.27c10.76-1.36,19.38-11.92,19.38-23.6V203.69c0-11.68-8.63-21.22-19.38-21.31Z"/>
            <path class="cls-5" d="M563.18,193.07l-128.3-.36c-6.24-.02-11.35,5.15-11.35,11.51v210.89c0,6.36,5.11,10.92,11.35,10.17l128.3-15.49c5.39-.65,9.75-5.95,9.75-11.81V203.72c0-5.86-4.36-10.64-9.75-10.66Z"/>
            <g class="cls-14">
              <path class="cls-3" d="M483.41,317.78c-15.45-45.15,10.9-72.92-3.18-117.1-2.19-6.88-5.07-13.24-8.45-19.12l-36.89-.33c-12.55-.11-22.85,10.19-22.85,23.02v212.17c0,12.82,10.3,21.91,22.85,20.32l122.12-15.49c-4.17-14.04-9.75-25.12-15.61-33.98-21.64-32.75-45.46-32.89-57.98-69.5Z"/>
            </g>
          </g>
          <polygon class="cls-4" points="560.74 202.43 560.74 309.03 432.67 315.41 432.67 202.43 560.74 202.43"/>
          <path class="cls-4" d="M463.61,415.53c1.68,0,99.56-10.37,99.56-10.37v-76.33l-99.56,8.39v78.31Z"/>
        </g>
        <g>
          <g>
            <path class="cls-20" d="M661.13,123.48v82.98c0,8.36-3.43,15.85-8.96,21.28-5.41,5.32-12.83,8.52-21.01,8.52h-100.92c-16.55,0-29.65-13.26-29.65-29.81V123.48c0-10,4.75-18.94,12.28-24.38,4.93-3.56,10.83-5.74,17.37-5.74h100.92c16.55,0,29.97,13.58,29.97,30.12Z"/>
            <path class="cls-15" d="M591.61,217.99l-50.82,50.89c-1.11,1.11-2.88,1.44-4.34,.84-1.45-.6-2.5-2.01-2.5-3.58v-52.79l57.65,4.65Z"/>
          </g>
          <path class="cls-3" d="M609.68,165.05l-17.41-49.66h-23.23l-12.26,35.22-19.37,55.44h20.47l6.5-22.66h32.67l6.5,22.66h20.48l-14.35-40.99Zm-40.52,3.22c1.76-5.67,3.32-10.82,4.7-15.34,3.61-11.88,5.91-19.74,6.89-23.52,.33,1.47,.87,3.46,1.63,5.99,.58,1.95,2.7,8.87,6.38,20.7,1.12,3.59,2.37,7.76,3.77,12.16h-23.36Z"/>
          <path class="cls-6" d="M652.17,227.74c-5.41,5.32-12.82,8.52-21.01,8.52h-57.83l-32.47,32.54c-1.11,1.11-2.92,1.48-4.37,.88-1.45-.6-2.53-1.97-2.53-3.54v-29.88h-3.72c-16.55,0-29.65-13.26-29.65-29.81V123.48c0-10,4.75-18.86,12.28-24.3-.79,17.53,2.99,46.26,35.85,50.18,2.79,.33,5.46,.67,8.08,1.01,6.15,.79,11.81,1.61,17.06,2.53,5.41,.94,10.37,1.98,14.88,3.17,8.46,2.23,15.39,5.01,20.93,8.74,8.41,5.66,13.64,13.48,16.2,24.95,4.5,20.16,11.86,32.44,26.29,37.98Z"/>
        </g>
        <g>
          <g>
            <path class="cls-31" d="M525.78,240.1v82.98c0,7.72-2.84,14.92-7.64,20.23-5.48,6.07-13.35,10.06-22.18,10.06h-100.92c-16.55,0-30.43-13.74-30.43-30.29v-82.98c0-10.55,5.69-19.67,13.93-25.01,4.68-3.03,10.5-4.64,16.5-4.64h100.92c16.55,0,29.81,13.1,29.81,29.65Z"/>
            <path class="cls-32" d="M491.78,329.69v52.79c0,1.57-.85,2.98-2.3,3.58-1.45,.6-3.08,.27-4.18-.84l-50.96-50.89,57.44-4.65Z"/>
          </g>
          <g>
            <rect class="cls-3" x="401.75" y="248.23" width="87.51" height="13.85"/>
            <g>
              <path class="cls-3" d="M483.81,328.81c-30.94-7.17-47.67-26.66-56.26-41.75-9.23-16.22-11.2-30.77-11.28-31.38l13.69-1.77-6.85,.89,6.84-.9c.02,.13,1.81,12.87,9.84,26.78,10.51,18.21,26.37,29.88,47.12,34.69l-3.12,13.45Z"/>
              <path class="cls-3" d="M407.42,328.81l-3.12-13.45c20.76-4.81,36.61-16.48,47.12-34.69,8.03-13.91,9.82-26.65,9.84-26.78l13.69,1.79c-.08,.61-2.05,15.16-11.28,31.38-8.59,15.09-25.32,34.58-56.26,41.75Z"/>
            </g>
            <rect class="cls-3" x="438.89" y="234.38" width="13.22" height="20.15"/>
          </g>
          <path class="cls-7" d="M518.21,343.31c-5.48,6.07-13.42,10.06-22.25,10.06h-4.18v29.12c0,1.57-.85,2.98-2.3,3.58-1.45,.6-3.08,.43-4.18-.68l-32.14-32.02h-58.11c-16.55,0-30.43-13.74-30.43-30.29v-82.98c0-10.55,5.69-19.83,13.93-25.16-.6,14.86,2.32,37.42,22.95,46.36,.61,.26,1.28,.51,1.92,.75,3.31,1.24,7.07,2.15,11.28,2.65,1.24,.15,2.47,.29,3.67,.44,5.38,.66,10.45,1.33,15.19,2.06,8.43,1.29,15.85,2.72,22.35,4.5,4.86,1.33,9.19,2.85,13.04,4.65,12.49,5.81,19.83,14.58,23.02,28.88,4.5,20.14,11.84,32.54,26.25,38.09Z"/>
        </g>
        <g>
          <g>
            <polygon class="cls-30" points="377.52 313.47 454.78 250.08 455.18 250.27 378.54 315.2 377.52 313.47"/>
            <path class="cls-22" d="M372.8,317.68l3.02-3.3,1.57-3.64c.27-.63,.71-1.18,1.26-1.58l.9-.67c.52-.38,1.15-.59,1.79-.59h2.97s-.52,.97-1.36,1.11c-.84,.15-2.6,2.13-2.6,2.13l-.24,2.33,3.36-2.46,3.59-4.12v2.29c0,.78-.28,1.54-.79,2.13l-2.91,3.37c-.72,.83-1.71,1.38-2.79,1.56l-.72,.12c-1.49,.24-2.82,1.08-3.67,2.33l-2.05,2.99-1.34-3.99Z"/>
          </g>
          <path class="cls-26" d="M209.53,427.44s-.84,3.94-1.57,7.26-3.65,5.87-4.93,8.52c-1.28,2.65-1.85-.45-2.2-2.37-.35-1.92,0-5.87,1.58-7.23,1.58-1.35,2.78-2.54,2.71-2.81-.08-.27,1.02-4.84,1.02-4.84l3.4,1.46Z"/>
          <g>
            <path class="cls-28" d="M244.58,545.97c-.2-.82-.07-1.92,.65-2.66,.97-.99,2.58-.91,3.6-.45,.59,.27,1.05,.7,2.68,4.08,1.72,3.58,1.71,4.16,1.43,4.48-.56,.66-2.14,.17-2.48,.07-1.13-.35-1.4-.89-3.73-3.06-1.58-1.48-1.97-1.72-2.15-2.47Z"/>
            <path class="cls-29" d="M245.68,540.38l.39,4.15c.95,.49,1.53,.45,1.84,0l.79-4.15h-3.03Z"/>
            <path class="cls-23" d="M285.35,545.45c-.56-.64-.94-1.67-.65-2.66,.4-1.33,1.87-2,2.98-2.06,.65-.03,1.25,.13,4.26,2.39,3.17,2.39,3.43,2.9,3.34,3.32-.19,.85-1.82,1.14-2.17,1.2-1.16,.21-1.65-.14-4.72-1-2.08-.58-2.54-.62-3.04-1.2Z"/>
            <path class="cls-27" d="M285.63,538.52l.39,4.15c.94,.49,1.53,.45,1.84,0l.79-4.15h-3.03Z"/>
            <path class="cls-25" d="M244.61,541.19c1.49,.09,2.99,.18,4.48,.27,3.16-15.42,6.63-31.2,10.44-47.32,4.18-17.67,8.54-34.79,13.04-51.36,1.43,6.31,2.84,13.68,3.95,21.98,1.65,12.31,1.98,21.74,2.06,24.35,.41,13.35-.76,14.93-.21,23.27,.43,6.55,1.85,16.18,6.6,27.88,1.42-.09,2.85-.17,4.27-.26,3.12-15.07,5.78-33.38,6.54-54.3,.92-25.65-1.3-47.87-4.2-65.4-12.93,.4-25.87,.8-38.8,1.21-4.04,9.01-5.88,16.72-6.81,22.14-1.87,10.89-.72,16.27-2.13,34.82-.73,9.59-1.26,11.11-1.79,17.48-.88,10.55-1.03,25.78,2.55,45.24Z"/>
            <path class="cls-9" d="M253.21,504.38c1.18-12.54-3.34-12.28-1.24-23.11,1.94-9.97,6.05-11.63,9.08-24.35,2.43-10.21,.57-12.45,2.48-16.92,2.35-5.52,9.21-11.55,28.94-14.11-.28-1.91-.57-3.77-.87-5.58-12.93,.4-25.87,.8-38.8,1.21-4.04,9.01-5.88,16.72-6.81,22.14-1.87,10.89-.72,16.27-2.13,34.82-.73,9.59-1.26,11.11-1.79,17.48-.88,10.55-1.03,25.78,2.55,45.24,1.49,.09,2.99,.18,4.48,.27,.09-.45,.19-.9,.28-1.35-.75-1.22-1.44-2.6-1.95-4.15-3.27-10.06,4.3-15.9,5.78-31.57Z"/>
          </g>
          <g>
            <path class="cls-24" d="M204.3,428.23c1.93,.34,3.85,.69,5.78,1.03,1.19-3.6,2.92-9.04,4.78-15.73,2.13-7.65,3.22-12.59,3.68-14.4,1.85-7.21,7.27-17.33,23.25-29.65-.16,7.84-.28,14.29-.36,18.72-.66,35.55-.63,42,4.1,45.54,4.11,3.08,6.37-.07,25.02,.28,17.01,.32,20.59,3.05,24.91-.07,7.01-5.07,4.29-17.1,4.4-32.13,.09-12.4,2.13-29.96,11.14-51.39,6.63,.64,17.73,.82,30.34-3.51,19.58-6.72,30.7-20.15,34.88-25.8-1.38-1.86-2.75-3.71-4.13-5.57-7.04,3.07-17.92,7.13-31.66,9.37-23.81,3.89-34.76-1.17-56.88-.29-12.74,.5-38.75,1.53-56.34,14.86-32.35,24.51-24.07,81.42-22.91,88.74Z"/>
            <path class="cls-8" d="M266,424.1c-.98-5.49,1.97-7.8,.41-14.03-2.2-8.79-9.26-8.86-10.94-16.3-1.6-7.1,4.33-9.23,5.78-20.43,1.07-8.24-.44-20.14-5.98-22.08-6.9-2.41-17.03,11.65-18.16,13.21-3.9,5.41-6.16,10.99-7.49,15.97,3.16-3.42,7.14-7.08,12.17-10.96-.16,7.84-.28,14.29-.36,18.72-.66,35.55-.63,42,4.1,45.54,4.11,3.08,6.37-.07,25.02,.28,.53,.01,1.02,.03,1.52,.04-4.03-3.69-5.56-7.14-6.06-9.96Z"/>
          </g>
          <g>
            <path class="cls-34" d="M271.71,314.46s-.58,4.58-2.28,7.91c-1.54,3.01-8.48,4.42-9.91,5-1.43,.58,2.36,2.93,6.29,3.65,3.93,.72,15.34,.72,17.5-.62,2.16-1.34-1.53-1.52-4.28-2.79-2.75-1.27-3.94-6.93-3.24-9.41,.7-2.47-4.09-3.75-4.09-3.75Z"/>
            <g>
              <path class="cls-38" d="M279.03,312.76c.93-1.58,.34-4.44-1.49-5.67-1.36-.91-2.91-.61-4.05-.38-.52,.1-4.21,.88-5.05,3.61-.27,.87-.16,2.02,.24,2.91,.2,.46,.58,1.02,1.41,2.09,.74,.95,.69,.92,.91,1.19,.54,.66,1.57,1.77,3.42,3.01,.07-.51,.2-1.14,.42-1.83,.09-.27,.44-1.31,1.04-2.2,1.22-1.81,2.42-1.49,3.15-2.73Z"/>
              <path class="cls-35" d="M272.07,318.32s1.99,2.65,5.39,2.1c3.04-.49,2.83-7.4,.73-8.67-.7-.42-2.03-.5-3.06-.1-.61,.24-.8,.52-1.8,.88-.93,.34-1.21,.26-1.47,.53-.33,.34-.52,1.1,.27,3.05-.64-.54-1.36-.7-1.84-.41-.08,.04-.27,.21-.37,.44-.35,.83,.46,1.76,2.15,2.18Z"/>
              <path class="cls-33" d="M271.38,314.41s1.3,2.4,2.02,2.97c.72,.57,2.35,.91,3.93,.05,1.58-.86,2.46-1.67,2.46-1.67,0,0,.65,3.33,.25,3.74-.39,.41-3.3,2.19-4.14,2.07-.84-.13-2.88-1.77-3.35-2.8-.47-1.02-1.04-3.67-1.04-3.67l-.12-.7Z"/>
            </g>
          </g>
        </g>
        <g>
          <path class="cls-39" d="M497,51.85l-11.09,17.98-1.69,2.73s-.72-.24-2.06-.68c-.67-.24-1.51-.48-2.49-.77-.98-.31-2.13-.59-3.41-.92-2.57-.62-5.73-1.31-9.41-1.8-3.68-.49-7.87-.84-12.48-.8-4.6,.03-9.61,.43-14.85,1.32-2.61,.49-5.3,1.02-8,1.78-.34,.09-.68,.18-1.02,.27-.34,.1-.68,.21-1.02,.31-.68,.21-1.36,.41-2.05,.62-1.35,.48-2.74,.9-4.1,1.44-5.49,2.04-10.96,4.74-16.23,8.02-2.63,1.65-5.19,3.47-7.7,5.39l-1.84,1.5c-.3,.25-.63,.5-.92,.75l-.87,.76-.87,.75c-.29,.25-.57,.49-.89,.8l-1.86,1.76-.23,.22-.28-.05-.2-.13-.03,.03-.23,.55-.76,.93c-.56,.57-1.1,1.16-1.63,1.76l-1.61,1.78c-.52,.61-1.03,1.22-1.55,1.83-2.06,2.44-4.02,4.96-5.79,7.59l-.67,.98-.64,1c-.42,.66-.86,1.33-1.27,2-.8,1.36-1.62,2.69-2.35,4.08-.77,1.36-1.44,2.76-2.14,4.14-.33,.7-.65,1.4-.97,2.1-.16,.35-.32,.7-.48,1.05-.15,.35-.29,.7-.44,1.06-1.22,2.8-2.21,5.64-3.12,8.44-.43,1.41-.86,2.81-1.21,4.21-.39,1.39-.69,2.79-1.01,4.17-1.2,5.52-1.82,10.86-2.08,15.81-.25,4.96-.08,9.54,.3,13.59,.38,4.05,.98,7.55,1.55,10.43,.31,1.43,.57,2.72,.86,3.81,.28,1.1,.5,2.03,.73,2.8,.12,.4,.22,.75,.3,1.06,.18,.64-.1,1.31-.67,1.63-.08,.05-.16,.08-.24,.11l-.11,.04c-.72,.24-1.5-.12-1.78-.83-.12-.29-.25-.63-.4-1.02-.3-.73-.63-1.69-1.02-2.81-.42-1.12-.81-2.42-1.27-3.87-.87-2.91-1.84-6.49-2.64-10.68-.79-4.18-1.42-8.97-1.66-14.25-.23-5.27-.11-11.02,.62-17.07,.2-1.51,.38-3.05,.66-4.59,.24-1.55,.56-3.1,.88-4.68,.69-3.13,1.48-6.33,2.52-9.52,.13-.4,.25-.8,.38-1.2,.14-.4,.27-.8,.42-1.19,.28-.8,.55-1.61,.84-2.4,.62-1.59,1.22-3.2,1.93-4.78,.66-1.6,1.42-3.17,2.17-4.76,.39-.79,.8-1.56,1.2-2.35l.61-1.17,.65-1.16c1.7-3.12,3.63-6.15,5.69-9.11,.52-.74,1.05-1.47,1.57-2.21l1.64-2.16c.54-.73,1.13-1.42,1.7-2.12l.87-1.06,.43-.52,.51-.57,1.69-1.92c.26-.31,.6-.66,.92-1l.97-1.02,.97-1.02c.32-.34,.65-.64,.97-.97,.65-.64,1.3-1.28,1.95-1.91,2.66-2.48,5.42-4.85,8.29-7.06,5.74-4.39,11.86-8.17,18.11-11.2,1.55-.79,3.14-1.46,4.7-2.17,.79-.33,1.57-.65,2.36-.97,.39-.16,.79-.32,1.17-.48,.39-.15,.79-.29,1.19-.44,3.13-1.21,6.28-2.16,9.37-3.05,6.2-1.67,12.21-2.74,17.82-3.31,5.61-.58,10.81-.65,15.42-.48s8.61,.65,11.9,1.12c1.64,.25,3.11,.48,4.38,.74,1.27,.25,2.36,.45,3.23,.66,1.74,.4,8.87,2.37,8.87,2.37Z"/>
          <path class="cls-10" d="M485.26,69.18c.24,.2,.45,.42,.65,.66l-1.69,2.73s-.72-.24-2.06-.68c-.67-.24-1.51-.48-2.49-.77-.98-.31-2.13-.59-3.41-.92-2.57-.62-5.73-1.31-9.41-1.8-3.68-.49-7.87-.84-12.48-.8-4.6,.03-9.61,.43-14.85,1.32-2.61,.49-5.3,1.02-8,1.78-.34,.09-.68,.18-1.02,.27-.34,.1-.68,.21-1.02,.31-.68,.21-1.36,.41-2.05,.62-1.35,.48-2.74,.9-4.1,1.44-5.49,2.04-10.96,4.74-16.23,8.02-2.63,1.65-5.19,3.47-7.7,5.39l-1.84,1.5c-.3,.25-.63,.5-.92,.75l-.87,.76-.87,.75c-.29,.25-.57,.49-.89,.8l-1.86,1.76-.23,.22-.28-.05-.2-.13-.03,.03-.23,.55-.76,.93c-.56,.57-1.1,1.16-1.63,1.76l-1.61,1.78c-.52,.61-1.03,1.22-1.55,1.83-2.06,2.44-4.02,4.96-5.79,7.59l-.67,.98-.64,1c-.42,.66-.86,1.33-1.27,2-.8,1.36-1.62,2.69-2.35,4.08-.77,1.36-1.44,2.76-2.14,4.14-.33,.7-.65,1.4-.97,2.1-.16,.35-.32,.7-.48,1.05-.15,.35-.29,.7-.44,1.06-1.22,2.8-2.21,5.64-3.12,8.44-.43,1.41-.86,2.81-1.21,4.21-.39,1.39-.69,2.79-1.01,4.17-1.2,5.52-1.82,10.86-2.08,15.81-.25,4.96-.08,9.54,.3,13.59,.38,4.05,.98,7.55,1.55,10.43,.31,1.43,.57,2.72,.86,3.81,.28,1.1,.5,2.03,.73,2.8,.12,.4,.22,.75,.3,1.06,.18,.64-.1,1.31-.67,1.63-2.8-10.16-13.16-55.39,13.77-88.78,30.5-37.82,84.84-49.3,104.94-31.92Z"/>
          <polygon class="cls-41" points="502.86 45.51 524.87 87.32 466.72 78.61 502.86 45.51"/>
          <polygon class="cls-12" points="502.86 45.51 524.87 87.32 466.72 78.61 502.86 45.51"/>
          <polygon class="cls-42" points="504.9 43.32 525.09 87.08 468.94 76.57 504.9 43.32"/>
        </g>
        <g>
          <path class="cls-40" d="M548.48,378.65l7.16-15.97,1.09-2.42s.61,.12,1.76,.33c.57,.12,1.29,.23,2.13,.36,.84,.15,1.81,.25,2.9,.39,2.18,.23,4.85,.46,7.92,.46,3.07,0,6.56-.17,10.34-.7,3.78-.52,7.84-1.4,12.05-2.7,2.09-.69,4.24-1.42,6.38-2.33,.27-.11,.54-.22,.81-.33,.27-.12,.53-.24,.8-.36,.53-.24,1.07-.49,1.62-.73,1.06-.54,2.15-1.04,3.21-1.63,4.29-2.27,8.49-5.08,12.46-8.35,1.98-1.64,3.89-3.41,5.74-5.26l1.35-1.43c.22-.24,.46-.48,.67-.71l.63-.71,.63-.71c.21-.24,.42-.46,.64-.75l1.34-1.64,.17-.21,.29,.05,.23,.12,.02-.03,.08-.51,.5-.86c.4-.53,.76-1.08,1.13-1.63l1.12-1.64c.36-.56,.71-1.12,1.07-1.67,1.43-2.23,2.76-4.51,3.93-6.86l.45-.88,.42-.89c.28-.59,.56-1.18,.83-1.78,.51-1.2,1.04-2.39,1.49-3.6,.49-1.2,.89-2.42,1.31-3.63,.2-.61,.38-1.22,.57-1.83,.09-.3,.19-.61,.28-.91,.08-.31,.16-.61,.25-.91,.7-2.43,1.2-4.87,1.65-7.27,.2-1.21,.4-2.4,.54-3.59,.17-1.19,.26-2.37,.38-3.53,.39-4.66,.32-9.12,0-13.21-.34-4.1-.97-7.85-1.72-11.13-.75-3.28-1.62-6.1-2.41-8.4-.41-1.14-.76-2.17-1.12-3.03-.35-.87-.63-1.61-.91-2.22-.14-.32-.26-.6-.36-.83-.22-.51-.06-1.09,.37-1.41,.06-.05,.12-.08,.19-.12l.09-.04c.56-.28,1.25-.07,1.55,.49,.13,.23,.27,.49,.44,.79,.33,.57,.7,1.32,1.14,2.2,.47,.88,.93,1.9,1.46,3.04,1.03,2.3,2.21,5.13,3.32,8.48,1.1,3.35,2.14,7.22,2.91,11.52,.76,4.3,1.28,9.04,1.34,14.09,0,1.26,.02,2.54-.05,3.84-.03,1.3-.12,2.61-.22,3.94-.23,2.65-.53,5.36-1.04,8.09-.06,.34-.12,.68-.18,1.03-.07,.34-.14,.69-.21,1.03-.14,.69-.28,1.38-.43,2.07-.34,1.37-.65,2.76-1.07,4.14-.37,1.39-.83,2.76-1.27,4.15-.23,.69-.49,1.37-.73,2.06l-.38,1.03-.41,1.02c-1.06,2.75-2.32,5.44-3.69,8.1-.35,.66-.7,1.32-1.05,1.98l-1.12,1.95c-.37,.66-.77,1.29-1.17,1.93l-.6,.96-.3,.48-.35,.52-1.18,1.76c-.18,.29-.42,.61-.65,.92l-.69,.95-.69,.94c-.23,.32-.46,.6-.7,.9-.47,.59-.93,1.19-1.4,1.78-1.92,2.32-3.93,4.57-6.05,6.7-4.24,4.23-8.86,7.99-13.66,11.16-1.19,.82-2.42,1.54-3.62,2.29-.61,.35-1.22,.7-1.83,1.05-.3,.17-.61,.34-.91,.52-.31,.16-.62,.32-.93,.49-2.44,1.33-4.93,2.45-7.37,3.52-4.91,2.05-9.73,3.57-14.28,4.65-4.54,1.08-8.81,1.71-12.61,2.06-3.8,.36-7.14,.4-9.9,.37-1.38-.03-2.61-.06-3.68-.14-1.07-.06-1.98-.11-2.72-.19-1.47-.14-7.55-.99-7.55-.99Z"/>
          <path class="cls-13" d="M556.24,363.15c-.22-.14-.42-.3-.6-.47l1.09-2.42s.61,.12,1.76,.33c.57,.12,1.29,.23,2.13,.36,.84,.15,1.81,.25,2.9,.39,2.18,.23,4.85,.46,7.92,.46,3.07,0,6.56-.17,10.34-.7,3.78-.52,7.84-1.4,12.05-2.7,2.09-.69,4.24-1.42,6.38-2.33,.27-.11,.54-.22,.81-.33,.27-.12,.53-.24,.8-.36,.53-.24,1.07-.49,1.62-.73,1.06-.54,2.15-1.04,3.21-1.63,4.29-2.27,8.49-5.08,12.46-8.35,1.98-1.64,3.89-3.41,5.74-5.26l1.35-1.43c.22-.24,.46-.48,.67-.71l.63-.71,.63-.71c.21-.24,.42-.46,.64-.75l1.34-1.64,.17-.21,.29,.05,.23,.12,.02-.03,.08-.51,.5-.86c.4-.53,.76-1.08,1.13-1.63l1.12-1.64c.36-.56,.71-1.12,1.07-1.67,1.43-2.23,2.76-4.51,3.93-6.86l.45-.88,.42-.89c.28-.59,.56-1.18,.83-1.78,.51-1.2,1.04-2.39,1.49-3.6,.49-1.2,.89-2.42,1.31-3.63,.2-.61,.38-1.22,.57-1.83,.09-.3,.19-.61,.28-.91,.08-.31,.16-.61,.25-.91,.7-2.43,1.2-4.87,1.65-7.27,.2-1.21,.4-2.4,.54-3.59,.17-1.19,.26-2.37,.38-3.53,.39-4.66,.32-9.12,0-13.21-.34-4.1-.97-7.85-1.72-11.13-.75-3.28-1.62-6.1-2.41-8.4-.41-1.14-.76-2.17-1.12-3.03-.35-.87-.63-1.61-.91-2.22-.14-.32-.26-.6-.36-.83-.22-.51-.06-1.09,.37-1.41,3.4,8.04,16.81,44.07-1.68,74.41-20.96,34.37-64.34,49.69-82.74,37.59Z"/>
          <polygon class="cls-36" points="544.36 384.49 521.74 352.54 570.45 353.39 544.36 384.49"/>
          <polygon class="cls-11" points="544.36 384.49 521.74 352.54 570.45 353.39 544.36 384.49"/>
          <polygon class="cls-37" points="542.92 386.52 521.59 352.76 568.84 355.3 542.92 386.52"/>
        </g>
      </g>
    </g>
  </g>
</svg>