<?xml version="1.0" encoding="UTF-8"?>
<svg xmlns="http://www.w3.org/2000/svg" xmlns:xlink="http://www.w3.org/1999/xlink" viewBox="0 0 841.89 595.28">
  <defs>
    <style>
      .cls-1 {
        fill: none;
      }

      .cls-2 {
        fill: url(#linear-gradient);
      }

      .cls-3 {
        clip-path: url(#clippath);
      }

      .cls-4 {
        fill: #f4f7fa;
      }

      .cls-5, .cls-6, .cls-7 {
        fill: #fff;
      }

      .cls-6 {
        opacity: .7;
      }

      .cls-6, .cls-8 {
        mix-blend-mode: soft-light;
      }

      .cls-9 {
        clip-path: url(#clippath-1);
      }

      .cls-10 {
        clip-path: url(#clippath-2);
      }

      .cls-11 {
        fill: url(#linear-gradient-12);
        mix-blend-mode: multiply;
        opacity: .3;
      }

      .cls-12 {
        fill: url(#linear-gradient-8);
      }

      .cls-13 {
        fill: url(#linear-gradient-9);
      }

      .cls-14 {
        fill: url(#linear-gradient-3);
      }

      .cls-15 {
        fill: url(#linear-gradient-4);
      }

      .cls-16 {
        fill: url(#linear-gradient-2);
      }

      .cls-17 {
        fill: url(#linear-gradient-6);
      }

      .cls-18 {
        fill: url(#linear-gradient-7);
      }

      .cls-19 {
        fill: url(#linear-gradient-5);
      }

      .cls-20 {
        fill: url(#linear-gradient-14);
      }

      .cls-21 {
        fill: url(#linear-gradient-18);
      }

      .cls-22 {
        fill: url(#linear-gradient-22);
      }

      .cls-23 {
        fill: url(#linear-gradient-20);
      }

      .cls-24 {
        fill: url(#linear-gradient-21);
      }

      .cls-25 {
        fill: url(#linear-gradient-23);
      }

      .cls-26 {
        fill: url(#linear-gradient-15);
      }

      .cls-27 {
        fill: url(#linear-gradient-19);
      }

      .cls-28 {
        fill: url(#linear-gradient-16);
      }

      .cls-29 {
        fill: url(#linear-gradient-17);
      }

      .cls-30 {
        fill: url(#linear-gradient-13);
      }

      .cls-31 {
        fill: url(#linear-gradient-10);
      }

      .cls-32 {
        fill: url(#linear-gradient-11);
      }

      .cls-33 {
        fill: url(#linear-gradient-27);
      }

      .cls-34 {
        fill: url(#linear-gradient-24);
      }

      .cls-35 {
        fill: url(#linear-gradient-26);
      }

      .cls-36 {
        fill: url(#linear-gradient-25);
      }

      .cls-37 {
        fill: url(#linear-gradient-28);
      }

      .cls-38 {
        fill: url(#linear-gradient-29);
      }

      .cls-39 {
        isolation: isolate;
      }

      .cls-7 {
        opacity: .68;
      }

      .cls-8 {
        opacity: .5;
      }
    </style>
    <linearGradient id="linear-gradient" x1="550.52" y1="207.92" x2="579.37" y2="249.13" gradientUnits="userSpaceOnUse">
      <stop offset="0" stop-color="#f58f86"/>
      <stop offset="1" stop-color="#ed72ac"/>
    </linearGradient>
    <clipPath id="clippath">
      <path class="cls-2" d="M551.66,321.45c4.28,.91,34.48,7.32,54.08-13.22,2.28-2.39,13.13-13.76,13.19-29.29,.06-16.08-11.49-23.24-7.34-32.46,3.7-8.21,13.92-4.85,22.12-14.52,8.33-9.82,10.66-28.44,1.34-37.1-6.42-5.97-17.49-6.39-25.53-2.78-13.91,6.25-10.52,20.88-24.05,33.91-15.43,14.86-28.65,4.32-44.94,17.63-18.85,15.41-26.33,50.14-12.22,66.81,6.25,7.38,15.06,9.26,23.35,11.02Z"/>
    </clipPath>
    <linearGradient id="linear-gradient-2" x1="566.53" y1="96.04" x2="509.98" y2="318.39" gradientUnits="userSpaceOnUse">
      <stop offset="0" stop-color="#ffc546"/>
      <stop offset="1" stop-color="#f36f56"/>
    </linearGradient>
    <clipPath id="clippath-1">
      <path class="cls-16" d="M498.17,311.27c22.01,5.67,41.08-6.24,45.67-9.11,2.68-1.67,24.23-15.59,30.08-41.07,5.26-22.89-6.87-34.6,3.27-55.85,4.54-9.51,11.23-16.1,11.84-16.7,11.61-11.26,18.98-8.32,27.52-17.71,9.14-10.05,9.75-23.39,10.15-32.08,.49-10.63,.94-20.39-5.93-27.28-6.71-6.73-18.3-8.62-27.24-5.36-13.74,5.01-10.95,18.45-28.35,30.94-10.98,7.89-14.79,4.48-23.22,12.66-9.16,8.9-7.66,15.85-15.29,26.61-7.76,10.95-15.72,12.78-28.32,20.88-12.01,7.72-37.69,24.23-42.71,47.09-5.5,25.01,13.33,59.45,42.52,66.97Z"/>
    </clipPath>
    <linearGradient id="linear-gradient-3" x1="486.31" y1="96.28" x2="530.09" y2="369.17" gradientUnits="userSpaceOnUse">
      <stop offset="0" stop-color="#d191c0"/>
      <stop offset="1" stop-color="#8172b4"/>
    </linearGradient>
    <clipPath id="clippath-2">
      <path class="cls-14" d="M424.24,297.97c-9.59-17.07,7.07-48.48,23.04-64.98,10.26-10.6,16.65-11.35,22.78-23.02,8.47-16.12,1.3-24.24,9.48-41.3,7.45-15.54,15.17-12.71,23.85-28.32,10.21-18.37,1.58-26.8,9.59-45.17,9-20.64,33.12-40.27,49.86-34.26,11.29,4.06,18.41,19.48,18.11,32.6-.46,20.29-18.38,23.2-24.58,47.56-1.31,5.15-1.65,9.3-1.47,12.93,.55,10.91,3,18.28,4.41,23.07,5.16,17.48-1.26,34.96-3.73,41.69-6.49,17.67-14.78,16.03-27.79,37.43-13.4,22.03-7.85,29.12-17.35,39.93-20.29,23.1-74.18,23.26-86.21,1.85Z"/>
    </clipPath>
    <linearGradient id="linear-gradient-4" x1="458.64" y1="330.57" x2="294.24" y2="182.94" gradientUnits="userSpaceOnUse">
      <stop offset="0" stop-color="#f36f56"/>
      <stop offset="1" stop-color="#ffc546"/>
    </linearGradient>
    <linearGradient id="linear-gradient-5" x1="460.6" y1="330.57" x2="296.19" y2="182.94" xlink:href="#linear-gradient-2"/>
    <linearGradient id="linear-gradient-6" x1="386.75" y1="270.35" x2="288.33" y2="162.99" gradientUnits="userSpaceOnUse">
      <stop offset="0" stop-color="#454c8d"/>
      <stop offset="1" stop-color="#26274f"/>
    </linearGradient>
    <linearGradient id="linear-gradient-7" x1="316.84" y1="149.73" x2="396.85" y2="387.03" gradientUnits="userSpaceOnUse">
      <stop offset="0" stop-color="#26274f"/>
      <stop offset="1" stop-color="#454c8d"/>
    </linearGradient>
    <linearGradient id="linear-gradient-8" x1="326.41" y1="136.53" x2="421.75" y2="419.33" xlink:href="#linear-gradient-6"/>
    <linearGradient id="linear-gradient-9" x1="331.53" y1="149.73" x2="411.53" y2="387.03" xlink:href="#linear-gradient-7"/>
    <linearGradient id="linear-gradient-10" x1="305.04" y1="90.51" x2="453.9" y2="532.08" xlink:href="#linear-gradient-4"/>
    <linearGradient id="linear-gradient-11" x1="307.65" y1="90.51" x2="456.51" y2="532.08" xlink:href="#linear-gradient-2"/>
    <linearGradient id="linear-gradient-12" x1="269.56" y1="103.35" x2="418.43" y2="544.95" xlink:href="#linear-gradient-2"/>
    <linearGradient id="linear-gradient-13" x1="265.04" y1="391.31" x2="331.74" y2="384.34" xlink:href="#linear-gradient-7"/>
    <linearGradient id="linear-gradient-14" x1="501.92" y1="267.72" x2="607.95" y2="116.4" xlink:href="#linear-gradient-6"/>
    <linearGradient id="linear-gradient-15" x1="455.51" y1="286.55" x2="324.1" y2="703.93" xlink:href="#linear-gradient-6"/>
    <linearGradient id="linear-gradient-16" x1="520.04" y1="215.6" x2="206.21" y2="735.28" gradientUnits="userSpaceOnUse">
      <stop offset="0" stop-color="#9681bc"/>
      <stop offset="1" stop-color="#6166ae"/>
    </linearGradient>
    <linearGradient id="linear-gradient-17" x1="430.12" y1="283.58" x2="422.65" y2="345.35" xlink:href="#linear-gradient-6"/>
    <linearGradient id="linear-gradient-18" x1="592.02" y1="251.53" x2="577.12" y2="283.09" xlink:href="#linear-gradient"/>
    <linearGradient id="linear-gradient-19" x1="598.31" y1="254.74" x2="583.46" y2="286.19" xlink:href="#linear-gradient"/>
    <linearGradient id="linear-gradient-20" x1="604.56" y1="257.92" x2="589.76" y2="289.27" xlink:href="#linear-gradient"/>
    <linearGradient id="linear-gradient-21" x1="454.58" y1="421.39" x2="345.16" y2="592.62" xlink:href="#linear-gradient-6"/>
    <linearGradient id="linear-gradient-22" x1="427.98" y1="372.73" x2="466.13" y2="372.73" xlink:href="#linear-gradient"/>
    <linearGradient id="linear-gradient-23" x1="310.96" y1="417.4" x2="309.56" y2="554.61" xlink:href="#linear-gradient"/>
    <linearGradient id="linear-gradient-24" x1="521.28" y1="183.22" x2="631.17" y2="278.65" xlink:href="#linear-gradient-6"/>
    <linearGradient id="linear-gradient-25" x1="568.52" y1="128.83" x2="678.4" y2="224.25" xlink:href="#linear-gradient-6"/>
    <linearGradient id="linear-gradient-26" x1="599.83" y1="92.77" x2="709.72" y2="188.2" xlink:href="#linear-gradient-6"/>
    <linearGradient id="linear-gradient-27" x1="657.29" y1="91.52" x2="594.77" y2="219.07" xlink:href="#linear-gradient-6"/>
    <linearGradient id="linear-gradient-28" x1="650.48" y1="99.39" x2="598.79" y2="204.84" xlink:href="#linear-gradient-6"/>
    <linearGradient id="linear-gradient-29" x1="643.3" y1="95.68" x2="592.08" y2="200.17" xlink:href="#linear-gradient-6"/>
  </defs>
  <g class="cls-39">
    <g id="Layer_1" data-name="Layer 1">
      <g>
        <path class="cls-4" d="M620.27,485.43c-13.66,14.08-25.89,22.36-35.25,28.62-91.3,60.96-195.66,43.39-227.92,37.38-52.06-9.69-96-16.52-133.76-50.63-85.79-77.51-81.62-239.2-16.06-339.36,7.77-11.88,73.23-108.9,177.82-122.57,2.56-.33,4.47-.52,6.14-.7,16.18-1.71,116.44-10.75,198.19,57.74,11.7,9.8,30.54,27.49,48,54.46,63.86,98.62,64.06,251.36-17.15,335.07Z"/>
        <g>
          <path class="cls-2" d="M551.66,321.45c4.28,.91,34.48,7.32,54.08-13.22,2.28-2.39,13.13-13.76,13.19-29.29,.06-16.08-11.49-23.24-7.34-32.46,3.7-8.21,13.92-4.85,22.12-14.52,8.33-9.82,10.66-28.44,1.34-37.1-6.42-5.97-17.49-6.39-25.53-2.78-13.91,6.25-10.52,20.88-24.05,33.91-15.43,14.86-28.65,4.32-44.94,17.63-18.85,15.41-26.33,50.14-12.22,66.81,6.25,7.38,15.06,9.26,23.35,11.02Z"/>
          <g class="cls-3">
            <g class="cls-8">
              <path class="cls-6" d="M523.71,315.67s.06,0,.09-.02c26.69-12.69,45.91-29.46,57.13-49.85,3.63-6.59,5.61-12.02,7.52-17.27,2.34-6.42,4.56-12.49,9.53-19.95,11.71-17.56,30.53-30.43,55.92-38.25,.11-.03,.17-.15,.13-.25-.03-.11-.14-.17-.25-.13-25.48,7.85-44.37,20.77-56.14,38.41-5,7.5-7.22,13.59-9.58,20.04-1.91,5.24-3.89,10.65-7.5,17.21-11.18,20.32-30.34,37.03-56.95,49.68-.1,.05-.14,.17-.1,.27,.03,.07,.11,.11,.18,.11Z"/>
              <path class="cls-6" d="M619.42,224.19c6.5,0,11.85-1.05,15.81-2.22,7.55-2.24,11.79-5.41,11.84-5.44,.09-.07,.11-.19,.04-.28-.07-.09-.19-.11-.28-.04-.04,.03-4.24,3.16-11.73,5.38-6.91,2.04-18.11,3.7-32.24,0-.11-.03-.22,.04-.25,.14-.03,.11,.04,.22,.14,.25,6.14,1.61,11.73,2.21,16.67,2.21Z"/>
              <path class="cls-6" d="M559.57,292.33s.07,0,.1-.03c.1-.05,.13-.18,.08-.27-3.76-6.71-5.97-13.88-6.58-21.31-1.61-19.63,8.73-34.45,13.25-39.92,.07-.09,.06-.21-.03-.28-.09-.07-.21-.06-.28,.03-4.55,5.5-14.96,20.43-13.34,40.21,.61,7.49,2.85,14.71,6.63,21.47,.04,.07,.11,.1,.18,.1Z"/>
              <path class="cls-6" d="M573.61,308.92c7.94,0,15.33-1.57,22.11-4.7,20.45-9.46,28.15-30.22,28.22-30.43,.04-.1-.02-.22-.12-.26-.1-.04-.22,.02-.26,.12-.07,.21-7.72,20.82-28.02,30.2-14.04,6.49-30.72,6.2-49.58-.86-.1-.04-.22,.01-.26,.12-.04,.1,.01,.22,.12,.26,9.88,3.7,19.16,5.54,27.79,5.54Z"/>
            </g>
          </g>
        </g>
        <g>
          <path class="cls-16" d="M498.17,311.27c22.01,5.67,41.08-6.24,45.67-9.11,2.68-1.67,24.23-15.59,30.08-41.07,5.26-22.89-6.87-34.6,3.27-55.85,4.54-9.51,11.23-16.1,11.84-16.7,11.61-11.26,18.98-8.32,27.52-17.71,9.14-10.05,9.75-23.39,10.15-32.08,.49-10.63,.94-20.39-5.93-27.28-6.71-6.73-18.3-8.62-27.24-5.36-13.74,5.01-10.95,18.45-28.35,30.94-10.98,7.89-14.79,4.48-23.22,12.66-9.16,8.9-7.66,15.85-15.29,26.61-7.76,10.95-15.72,12.78-28.32,20.88-12.01,7.72-37.69,24.23-42.71,47.09-5.5,25.01,13.33,59.45,42.52,66.97Z"/>
          <g class="cls-9">
            <g>
              <path class="cls-6" d="M474.95,310.81s.06,0,.09-.02c18.6-8.7,32.9-18.41,42.48-28.85,7.46-8.14,12.24-16.93,14.19-26.14,1.78-8.43,1.12-16.25,.49-23.81-.97-11.54-1.9-22.43,5.49-34.78,6.37-10.65,16.91-18.35,23.2-22.95,4.55-3.33,8.24-5.99,11.49-8.34,8.35-6.03,12.95-9.35,18.26-13.95,13.67-11.85,22.11-30.81,25.07-56.36,.01-.11-.07-.21-.18-.22-.11-.01-.21,.07-.22,.18-2.96,25.45-11.34,44.32-24.94,56.1-5.3,4.59-9.89,7.91-18.24,13.93-3.25,2.35-6.94,5.01-11.49,8.34-6.32,4.62-16.89,12.35-23.31,23.07-7.45,12.46-6.53,23.41-5.55,35.02,.64,7.53,1.29,15.32-.48,23.69-1.93,9.13-6.67,17.86-14.09,25.95-9.55,10.41-23.8,20.09-42.35,28.76-.1,.05-.14,.17-.1,.27,.03,.07,.11,.12,.18,.12Z"/>
              <path class="cls-6" d="M603.11,161.83c6.51,0,13.08-1.28,18.76-4.84,3.68-2.3,6.04-5,7.37-6.86,1.45-2.02,2.02-3.47,2.04-3.53,.04-.1-.01-.22-.12-.26-.1-.04-.22,.01-.26,.12-.02,.06-2.33,5.87-9.27,10.21-11.61,7.26-27.05,4.88-37.95,1.61-.11-.03-.22,.03-.25,.13-.03,.11,.03,.22,.14,.25,5.68,1.7,12.58,3.17,19.54,3.17Z"/>
              <path class="cls-6" d="M551.67,181.34c.05,0,.1-.02,.14-.06,.08-.08,.08-.21,0-.28-4.78-4.65-8.82-13.52-.94-29.35,4.73-9.51,11.62-17.11,11.68-17.19,.08-.08,.07-.21-.01-.28-.08-.07-.21-.07-.28,.01-.07,.08-6.99,7.72-11.74,17.27-6.32,12.71-5.97,23.02,1.02,29.83,.04,.04,.09,.06,.14,.06Z"/>
              <path class="cls-6" d="M532.41,249.82s.02,0,.03,0c20.4-2.55,31.88-12.15,37.91-19.75,6.55-8.24,8.29-15.99,8.31-16.07,.02-.11-.05-.22-.15-.24-.11-.02-.22,.05-.24,.15-.02,.08-1.75,7.75-8.24,15.92-5.99,7.54-17.39,17.06-37.64,19.58-.11,.01-.19,.11-.17,.22,.01,.1,.1,.18,.2,.18Z"/>
              <path class="cls-6" d="M504.29,293.61c.07,0,.14-.04,.18-.1,.05-.1,.02-.22-.08-.27-9.94-5.64-16.93-14.03-20.76-24.94-3.07-8.74-4.13-19.1-3.17-30.81,1.65-19.95,8.73-37.08,8.8-37.25,.04-.1,0-.22-.11-.26-.1-.04-.22,0-.26,.11-.07,.17-7.17,17.36-8.83,37.37-.97,11.76,.1,22.18,3.19,30.97,3.86,11,10.91,19.47,20.94,25.16,.03,.02,.07,.03,.1,.03Z"/>
            </g>
          </g>
        </g>
        <g>
          <path class="cls-14" d="M424.24,297.97c-9.59-17.07,7.07-48.48,23.04-64.98,10.26-10.6,16.65-11.35,22.78-23.02,8.47-16.12,1.3-24.24,9.48-41.3,7.45-15.54,15.17-12.71,23.85-28.32,10.21-18.37,1.58-26.8,9.59-45.17,9-20.64,33.12-40.27,49.86-34.26,11.29,4.06,18.41,19.48,18.11,32.6-.46,20.29-18.38,23.2-24.58,47.56-1.31,5.15-1.65,9.3-1.47,12.93,.55,10.91,3,18.28,4.41,23.07,5.16,17.48-1.26,34.96-3.73,41.69-6.49,17.67-14.78,16.03-27.79,37.43-13.4,22.03-7.85,29.12-17.35,39.93-20.29,23.1-74.18,23.26-86.21,1.85Z"/>
          <g class="cls-10">
            <g>
              <path class="cls-6" d="M428.32,314.56s.04,0,.06-.01c26.33-8.78,43.91-21.87,52.25-38.9,4.15-8.49,5-15.26,5.89-22.43,.99-7.91,2.01-16.09,7.49-27.53,5.59-11.65,11.35-15.82,16.91-19.85,5.42-3.93,10.54-7.63,15.49-17.6,7.28-14.66,7.35-26.01,7.41-38.02,.06-9.81,.11-19.95,3.99-32.84,6.46-21.48,22.13-40.89,46.56-57.67,.09-.06,.11-.19,.05-.28-.06-.09-.19-.11-.28-.05-24.51,16.84-40.23,36.31-46.72,57.88-3.89,12.94-3.95,23.12-4.01,32.95-.07,11.96-.13,23.26-7.37,37.84-4.9,9.88-9.98,13.56-15.36,17.45-5.61,4.06-11.4,8.26-17.04,20-5.51,11.49-6.54,19.71-7.53,27.65-.89,7.14-1.73,13.88-5.85,22.31-8.28,16.93-25.78,29.95-52.01,38.7-.11,.04-.16,.15-.13,.25,.03,.08,.11,.14,.19,.14Z"/>
              <path class="cls-6" d="M537.63,117.52s0,0,0,0c18.55-.61,31.54-9.26,39.17-16.42,8.27-7.75,12.2-15.46,12.24-15.54,.05-.1,.01-.22-.09-.27-.1-.05-.22-.01-.27,.09-.04,.08-3.95,7.73-12.17,15.43-7.58,7.1-20.48,15.69-38.89,16.3-.11,0-.2,.1-.19,.21,0,.11,.09,.19,.2,.19Z"/>
              <path class="cls-6" d="M520.95,195.77c.07,0,.13-.03,.17-.1,.06-.1,.03-.22-.07-.28-7.21-4.39-12.76-10.95-16.49-19.49-2.99-6.84-4.82-14.97-5.46-24.16-1.08-15.65,1.76-29.12,1.79-29.26,.02-.11-.05-.22-.15-.24-.11-.02-.22,.05-.24,.15-.03,.13-2.87,13.65-1.79,29.36,.63,9.23,2.48,17.41,5.49,24.29,3.76,8.62,9.36,15.24,16.65,19.68,.03,.02,.07,.03,.1,.03Z"/>
              <path class="cls-6" d="M501.53,238.12c8.17,0,15.98-1.36,23.34-4.07,8.77-3.23,16.92-8.38,24.2-15.31,12.39-11.79,18.07-24.82,18.13-24.95,.04-.1,0-.22-.11-.26-.1-.04-.22,0-.26,.11-.06,.13-5.71,13.1-18.05,24.83-7.24,6.89-15.34,12.01-24.06,15.22-10.9,4.01-22.82,5.04-35.43,3.06-.11-.02-.21,.06-.23,.17-.02,.11,.06,.21,.17,.23,4.18,.66,8.29,.99,12.31,.99Z"/>
              <path class="cls-6" d="M463.99,296.04c.07,0,.13-.03,.17-.1,.06-.1,.03-.22-.07-.28-8.29-5.01-14.13-12.11-17.36-21.11-2.59-7.2-3.53-15.64-2.78-25.06,1.27-16.06,7.07-29.6,7.12-29.73,.04-.1,0-.22-.1-.26-.1-.04-.22,0-.26,.1-.06,.14-5.88,13.74-7.16,29.86-.75,9.48,.19,17.97,2.8,25.23,3.27,9.08,9.17,16.26,17.53,21.32,.03,.02,.07,.03,.1,.03Z"/>
            </g>
          </g>
        </g>
        <g>
          <g>
            <path class="cls-15" d="M339.7,61.77c-89.16,0-163.97,72.69-163.97,162.35s74.81,157.33,163.97,151.34c85.88-5.77,153.21-78.21,153.21-161.99S425.58,61.77,339.7,61.77Zm0,19.21c26.21-.11,47.24,20.75,47.24,46.58s-21.03,47.28-47.24,47.92c-26.5,.65-48.21-20.2-48.21-46.56s21.71-47.82,48.21-47.93Zm11.25,137.26c0,6.15-5.03,11.32-11.25,11.54-6.24,.22-11.3-4.6-11.3-10.78s5.07-11.35,11.3-11.54c6.22-.19,11.25,4.64,11.25,10.79Zm-104.36,51.69c-27.57,1.2-50.16-19.61-50.16-46.51s22.59-49.23,50.16-49.87c27.26-.64,49.13,20.2,49.13,46.54s-21.87,48.65-49.13,49.84Zm93.11,86.32c-26.5,1.67-48.21-18.33-48.21-44.7s21.71-48.67,48.21-49.8c26.21-1.12,47.24,18.92,47.24,44.75s-21.03,48.1-47.24,49.75Zm89.54-94.3c-25.49,1.11-46.37-18.93-46.37-44.79s20.88-47.3,46.37-47.9c25.21-.59,45.45,19.48,45.45,44.82s-20.24,46.77-45.45,47.87Z"/>
            <path class="cls-19" d="M341.66,61.77c-89.16,0-163.97,72.69-163.97,162.35s74.81,157.33,163.97,151.34c85.88-5.77,153.21-78.21,153.21-161.99S427.54,61.77,341.66,61.77Zm0,19.21c26.21-.11,47.24,20.75,47.24,46.58s-21.03,47.28-47.24,47.92c-26.5,.65-48.21-20.2-48.21-46.56s21.71-47.82,48.21-47.93Zm11.25,137.26c0,6.15-5.03,11.32-11.25,11.54-6.24,.22-11.3-4.6-11.3-10.78s5.07-11.35,11.3-11.54c6.22-.19,11.25,4.64,11.25,10.79Zm-104.36,51.69c-27.57,1.2-50.16-19.61-50.16-46.51s22.59-49.23,50.16-49.87c27.26-.64,49.13,20.2,49.13,46.54s-21.87,48.65-49.13,49.84Zm93.11,86.32c-26.5,1.67-48.21-18.33-48.21-44.7s21.71-48.67,48.21-49.8c26.21-1.12,47.24,18.92,47.24,44.75s-21.03,48.1-47.24,49.75Zm89.54-94.3c-25.49,1.11-46.37-18.93-46.37-44.79s20.88-47.3,46.37-47.9c25.21-.59,45.45,19.48,45.45,44.82s-20.24,46.77-45.45,47.87Z"/>
            <path class="cls-1" d="M357.26,295.73c11.98,6.2,22.03,8.59,31.61,9.76-.54-25.33-21.35-44.84-47.21-43.73-7.15,.31-13.94,2.16-20.06,5.22,10.96,15.96,27.63,24.6,35.67,28.75Z"/>
            <path class="cls-1" d="M248.55,173.55c-27.57,.65-50.16,22.98-50.16,49.87s22.59,47.71,50.16,46.51c27.26-1.19,49.13-23.5,49.13-49.84s-21.87-47.18-49.13-46.54Z"/>
            <path class="cls-1" d="M293.45,311.56c0,26.36,21.71,46.37,48.21,44.7,26.21-1.65,47.24-23.92,47.24-49.75,0-.34-.02-.68-.03-1.01-9.58-1.17-19.62-3.56-31.61-9.76-8.03-4.16-24.71-12.79-35.67-28.75-16.57,8.27-28.15,25.36-28.15,44.58Z"/>
            <path class="cls-1" d="M341.66,207.45c-6.24,.19-11.3,5.36-11.3,11.54s5.07,11.01,11.3,10.78c6.22-.22,11.25-5.39,11.25-11.54s-5.03-10.98-11.25-10.79Z"/>
            <path class="cls-1" d="M431.2,169.27c-25.49,.6-46.37,22.05-46.37,47.9s20.88,45.9,46.37,44.78c25.21-1.1,45.45-22.53,45.45-47.87s-20.24-45.41-45.45-44.82Z"/>
            <path class="cls-1" d="M341.66,80.98c-26.5,.11-48.21,21.57-48.21,47.93s21.71,47.21,48.21,46.56c26.21-.64,47.24-22.09,47.24-47.92s-21.03-46.68-47.24-46.58Z"/>
            <path class="cls-17" d="M440.99,215.28c0,54.32-43.95,100.77-99.33,103.82-56.73,3.13-103.75-40.27-103.75-97s47.01-103.29,103.75-103.97c55.39-.67,99.33,42.83,99.33,97.15Z"/>
            <path class="cls-18" d="M425.31,215.81c0,45.74-37.08,84.73-83.65,87.14-47.52,2.45-86.75-33.98-86.75-81.42s39.24-86.5,86.75-87.24c46.57-.72,83.65,35.78,83.65,81.52Z"/>
          </g>
          <g>
            <path class="cls-12" d="M455.68,215.28c0,54.32-43.95,100.77-99.33,103.82-56.73,3.13-103.75-40.27-103.75-97s47.01-103.29,103.75-103.97c55.39-.67,99.33,42.83,99.33,97.15Z"/>
            <path class="cls-13" d="M439.99,215.81c0,45.74-37.08,84.73-83.65,87.14-47.52,2.45-86.75-33.98-86.75-81.42s39.24-86.5,86.75-87.24c46.57-.72,83.65,35.78,83.65,81.52Z"/>
            <path class="cls-31" d="M353.74,61.77c-89.16,0-163.97,72.69-163.97,162.35s74.81,157.33,163.97,151.34c85.88-5.77,153.21-78.21,153.21-161.99S439.61,61.77,353.74,61.77Zm0,19.21c26.21-.11,47.24,20.75,47.24,46.58s-21.03,47.28-47.24,47.92c-26.5,.65-48.21-20.2-48.21-46.56s21.71-47.82,48.21-47.93Zm11.25,137.26c0,6.15-5.03,11.32-11.25,11.54-6.24,.22-11.3-4.6-11.3-10.78s5.07-11.35,11.3-11.54c6.22-.19,11.25,4.64,11.25,10.79Zm-104.36,51.69c-27.57,1.2-50.16-19.61-50.16-46.51s22.59-49.23,50.16-49.87c27.26-.64,49.13,20.2,49.13,46.54s-21.87,48.65-49.13,49.84Zm93.11,86.32c-26.5,1.67-48.21-18.33-48.21-44.7s21.71-48.67,48.21-49.8c26.21-1.12,47.24,18.92,47.24,44.75s-21.03,48.1-47.24,49.75Zm89.54-94.3c-25.49,1.11-46.37-18.93-46.37-44.79s20.88-47.3,46.37-47.9c25.21-.59,45.45,19.48,45.45,44.82s-20.24,46.77-45.45,47.87Z"/>
            <path class="cls-32" d="M356.35,61.77c-89.16,0-163.97,72.69-163.97,162.35s74.81,157.33,163.97,151.34c85.88-5.77,153.21-78.21,153.21-161.99S442.22,61.77,356.35,61.77Zm0,19.21c26.21-.11,47.24,20.75,47.24,46.58s-21.03,47.28-47.24,47.92c-26.5,.65-48.21-20.2-48.21-46.56s21.71-47.82,48.21-47.93Zm11.25,137.26c0,6.15-5.03,11.32-11.25,11.54-6.24,.22-11.3-4.6-11.3-10.78s5.07-11.35,11.3-11.54c6.22-.19,11.25,4.64,11.25,10.79Zm-104.36,51.69c-27.57,1.2-50.16-19.61-50.16-46.51s22.59-49.23,50.16-49.87c27.26-.64,49.13,20.2,49.13,46.54s-21.87,48.65-49.13,49.84Zm93.11,86.32c-26.5,1.67-48.21-18.33-48.21-44.7s21.71-48.67,48.21-49.8c26.21-1.12,47.24,18.92,47.24,44.75s-21.03,48.1-47.24,49.75Zm89.54-94.3c-25.49,1.11-46.37-18.93-46.37-44.79s20.88-47.3,46.37-47.9c25.21-.59,45.45,19.48,45.45,44.82s-20.24,46.77-45.45,47.87Z"/>
            <path class="cls-1" d="M371.95,295.73c11.98,6.2,22.03,8.59,31.61,9.76-.54-25.33-21.35-44.84-47.21-43.73-7.15,.31-13.94,2.16-20.06,5.22,10.96,15.96,27.63,24.6,35.66,28.75Z"/>
            <path class="cls-1" d="M263.23,173.55c-27.57,.65-50.16,22.98-50.16,49.87s22.59,47.71,50.16,46.51c27.26-1.19,49.13-23.5,49.13-49.84s-21.87-47.18-49.13-46.54Z"/>
            <path class="cls-1" d="M308.13,311.56c0,26.36,21.71,46.37,48.21,44.7,26.21-1.65,47.24-23.92,47.24-49.75,0-.34-.02-.68-.03-1.01-9.58-1.17-19.62-3.56-31.61-9.76-8.03-4.16-24.71-12.79-35.66-28.75-16.57,8.27-28.15,25.36-28.15,44.58Z"/>
            <path class="cls-1" d="M356.35,207.45c-6.24,.19-11.3,5.36-11.3,11.54s5.07,11.01,11.3,10.78c6.22-.22,11.25-5.39,11.25-11.54s-5.03-10.98-11.25-10.79Z"/>
            <path class="cls-1" d="M445.89,169.27c-25.49,.6-46.37,22.05-46.37,47.9s20.88,45.9,46.37,44.78c25.21-1.1,45.45-22.53,45.45-47.87s-20.24-45.41-45.45-44.82Z"/>
            <path class="cls-1" d="M356.35,80.98c-26.5,.11-48.21,21.57-48.21,47.93s21.71,47.21,48.21,46.56c26.21-.64,47.24-22.09,47.24-47.92s-21.03-46.68-47.24-46.58Z"/>
            <path class="cls-11" d="M403.56,305.49c0,.34,.03,.67,.03,1.01,0,25.83-21.03,48.1-47.24,49.75-26.5,1.67-48.21-18.33-48.21-44.7,0-19.23,11.58-36.31,28.15-44.58-2.81-4.09-5.24-8.64-7.05-13.73-9.42-26.51,8.55-37.24,1.75-62.85-9.2-34.64-47.22-34.33-61.64-67.03-3.66-8.29-6-19.22-4.15-33.69-43.7,29.33-72.81,78.79-72.81,134.45,0,89.66,74.81,157.33,163.97,151.34,45.08-3.03,84.97-24.37,112.65-55.82-9.35-5.03-18.13-8.02-25.96-9.82-14.66-3.37-26.66-2.75-39.48-4.32Zm-140.32-35.56c-27.57,1.2-50.16-19.61-50.16-46.51s22.59-49.23,50.16-49.87c27.26-.64,49.13,20.2,49.13,46.54s-21.87,48.65-49.13,49.84Z"/>
          </g>
        </g>
        <g>
          <path class="cls-30" d="M236.93,523.15c-7.99,.45-14.52-4.88-14.52-11.87v-252c0-6.99,6.53-12.45,14.52-12.18l377.23,13.05c6.11,.21,11.06,5.33,11.06,11.4v218.96c0,6.08-4.95,11.29-11.06,11.63l-377.23,21.01Z"/>
          <g>
            <g>
              <path class="cls-20" d="M239.92,523.15c-7.99,.45-14.52-4.88-14.52-11.87v-252c0-6.99,6.53-12.45,14.52-12.18l377.23,13.05c6.11,.21,11.06,5.33,11.06,11.4v218.96c0,6.08-4.95,11.29-11.06,11.63l-377.23,21.01Z"/>
              <path class="cls-26" d="M617.14,265.29l-377.23-12.32c-4.27-.14-7.75,2.77-7.75,6.51v251.45c0,3.73,3.47,6.58,7.75,6.35l377.23-20.28c3.28-.18,5.92-2.96,5.92-6.22v-219.38c0-3.26-2.65-5.99-5.92-6.09Z"/>
              <path class="cls-28" d="M239.92,495.85c-1.66,.08-3.02-1.04-3.02-2.49v-233.73c0-1.45,1.35-2.59,3.02-2.54l377.23,11.81c1.28,.04,2.32,1.11,2.32,2.38v204.52c0,1.27-1.04,2.35-2.32,2.41l-377.23,17.64Z"/>
            </g>
            <g>
              <polygon class="cls-7" points="604.3 465.6 256.46 480.16 256.46 292.01 604.3 298.97 604.3 465.6"/>
              <polygon class="cls-29" points="604.3 293.28 256.46 285.59 256.46 269.52 604.3 279.05 604.3 293.28"/>
              <g>
                <path class="cls-21" d="M577.88,285.51c0,1.02-.84,1.82-1.88,1.79-1.04-.02-1.88-.87-1.88-1.89s.84-1.82,1.88-1.79c1.04,.03,1.88,.87,1.88,1.89Z"/>
                <path class="cls-27" d="M585.58,285.7c0,1.01-.83,1.81-1.87,1.79-1.03-.02-1.87-.87-1.87-1.88s.84-1.82,1.87-1.79c1.03,.03,1.87,.87,1.87,1.88Z"/>
                <path class="cls-23" d="M593.23,285.89c0,1.01-.83,1.81-1.85,1.78-1.03-.02-1.86-.86-1.86-1.88s.83-1.81,1.86-1.78c1.02,.03,1.85,.87,1.85,1.88Z"/>
              </g>
              <g>
                <polygon class="cls-24" points="604.3 465.7 256.75 481.02 256.75 452.35 604.3 440.3 604.3 465.7"/>
                <g>
                  <path class="cls-7" d="M473.8,372.31c0,16.48-14.58,30.13-32.76,30.48-18.42,.36-33.53-13.02-33.53-29.88s15.11-30.52,33.53-30.49c18.19,.03,32.76,13.41,32.76,29.89Z"/>
                  <polygon class="cls-22" points="427.98 390.26 427.98 355.2 466.13 372.38 427.98 390.26"/>
                </g>
                <polygon class="cls-7" points="597.88 455.82 264.89 469.24 264.89 464.64 597.88 451.71 597.88 455.82"/>
                <polygon class="cls-25" points="356.06 465.57 264.89 469.24 264.89 464.64 356.06 461.1 356.06 465.57"/>
                <path class="cls-5" d="M358.91,463.22c0,3.7-3.39,6.84-7.58,7.02-4.21,.18-7.62-2.7-7.62-6.41s3.42-6.86,7.62-7.02c4.19-.16,7.58,2.72,7.58,6.42Z"/>
              </g>
            </g>
          </g>
        </g>
        <g>
          <path class="cls-34" d="M590.95,205.58c0,13.8-13.71,29.24-31.64,34.8-19.18,5.95-35.73-1.56-35.73-17.15s16.55-31.77,35.73-35.87c17.94-3.84,31.64,4.42,31.64,18.22Z"/>
          <polygon class="cls-36" points="590.95 205.58 582.78 207.72 582.78 82.01 590.95 81.81 590.95 205.58"/>
          <path class="cls-35" d="M611.9,113.92c.62,1.05-4.74-37.09-29.12-44.89v21.02s10.3-8.3,29.12,23.86Z"/>
        </g>
        <g>
          <path class="cls-33" d="M642.24,157.85c0,8.2-8.14,17.37-18.8,20.68-11.39,3.53-21.23-.93-21.23-10.19s9.83-18.87,21.23-21.31c10.66-2.28,18.8,2.62,18.8,10.82Z"/>
          <polygon class="cls-37" points="642.24 157.85 637.39 159.12 637.39 84.44 642.24 84.32 642.24 157.85"/>
          <path class="cls-38" d="M654.69,103.4c.37,.63-2.81-22.03-17.3-26.67v12.49s6.12-4.93,17.3,14.18Z"/>
        </g>
      </g>
    </g>
  </g>
</svg>