<?xml version="1.0" encoding="UTF-8"?>
<svg id="Layer_1" data-name="Layer 1" xmlns="http://www.w3.org/2000/svg" xmlns:xlink="http://www.w3.org/1999/xlink" viewBox="0 0 841.89 595.28">
  <defs>
    <style>
      .cls-1 {
        fill: url(#linear-gradient);
      }

      .cls-1, .cls-2, .cls-3 {
        opacity: .5;
      }

      .cls-4, .cls-5, .cls-6, .cls-3, .cls-7 {
        fill: #fff;
      }

      .cls-8 {
        fill: #d096c3;
      }

      .cls-9 {
        fill: url(#linear-gradient-8);
      }

      .cls-10 {
        fill: url(#linear-gradient-9);
      }

      .cls-11 {
        fill: url(#linear-gradient-3);
      }

      .cls-12 {
        fill: url(#linear-gradient-4);
      }

      .cls-13 {
        fill: url(#linear-gradient-6);
      }

      .cls-14 {
        fill: url(#linear-gradient-7);
      }

      .cls-15 {
        fill: url(#linear-gradient-5);
      }

      .cls-16 {
        fill: url(#linear-gradient-55);
      }

      .cls-17 {
        fill: url(#linear-gradient-53);
      }

      .cls-18 {
        fill: url(#linear-gradient-54);
      }

      .cls-19 {
        fill: url(#linear-gradient-51);
      }

      .cls-20 {
        fill: url(#linear-gradient-52);
      }

      .cls-21 {
        fill: url(#linear-gradient-50);
      }

      .cls-22 {
        fill: url(#linear-gradient-41);
      }

      .cls-23 {
        fill: url(#linear-gradient-40);
      }

      .cls-24 {
        fill: url(#linear-gradient-43);
      }

      .cls-25 {
        fill: url(#linear-gradient-42);
      }

      .cls-26 {
        fill: url(#linear-gradient-45);
      }

      .cls-27 {
        fill: url(#linear-gradient-46);
      }

      .cls-28 {
        fill: url(#linear-gradient-44);
      }

      .cls-29 {
        fill: url(#linear-gradient-49);
      }

      .cls-30 {
        fill: url(#linear-gradient-47);
      }

      .cls-31 {
        fill: url(#linear-gradient-48);
      }

      .cls-32 {
        fill: url(#linear-gradient-14);
      }

      .cls-33 {
        fill: url(#linear-gradient-18);
      }

      .cls-34 {
        fill: url(#linear-gradient-22);
      }

      .cls-35 {
        fill: url(#linear-gradient-20);
      }

      .cls-36 {
        fill: url(#linear-gradient-21);
      }

      .cls-37 {
        fill: url(#linear-gradient-23);
      }

      .cls-38 {
        fill: url(#linear-gradient-15);
      }

      .cls-39 {
        fill: url(#linear-gradient-19);
      }

      .cls-40 {
        fill: url(#linear-gradient-16);
      }

      .cls-41 {
        fill: url(#linear-gradient-17);
      }

      .cls-42 {
        fill: url(#linear-gradient-13);
      }

      .cls-43 {
        fill: url(#linear-gradient-12);
      }

      .cls-44 {
        fill: url(#linear-gradient-10);
      }

      .cls-45 {
        fill: url(#linear-gradient-11);
      }

      .cls-46 {
        fill: url(#linear-gradient-27);
      }

      .cls-47 {
        fill: url(#linear-gradient-24);
      }

      .cls-48 {
        fill: url(#linear-gradient-26);
      }

      .cls-49 {
        fill: url(#linear-gradient-38);
      }

      .cls-50 {
        fill: url(#linear-gradient-35);
      }

      .cls-51 {
        fill: url(#linear-gradient-37);
      }

      .cls-52 {
        fill: url(#linear-gradient-34);
      }

      .cls-53 {
        fill: url(#linear-gradient-39);
      }

      .cls-54 {
        fill: url(#linear-gradient-36);
      }

      .cls-55 {
        fill: url(#linear-gradient-25);
      }

      .cls-56 {
        fill: url(#linear-gradient-28);
      }

      .cls-57 {
        fill: url(#linear-gradient-29);
      }

      .cls-58 {
        fill: url(#linear-gradient-33);
      }

      .cls-59 {
        fill: url(#linear-gradient-30);
      }

      .cls-60 {
        fill: url(#linear-gradient-32);
      }

      .cls-61 {
        fill: url(#linear-gradient-31);
      }

      .cls-2 {
        fill: url(#linear-gradient-2);
      }

      .cls-5 {
        opacity: .69;
      }

      .cls-6 {
        opacity: .57;
      }

      .cls-7 {
        opacity: .65;
      }
    </style>
    <linearGradient id="linear-gradient" x1="28.06" y1="298.05" x2="796.8" y2="298.05" gradientUnits="userSpaceOnUse">
      <stop offset="0" stop-color="#9a7fba"/>
      <stop offset="1" stop-color="#e09ac4"/>
    </linearGradient>
    <linearGradient id="linear-gradient-2" x1="-1655.92" y1="315.59" x2="-888.63" y2="315.59" gradientTransform="translate(-859.65 613.44) rotate(-180)" xlink:href="#linear-gradient"/>
    <linearGradient id="linear-gradient-3" x1="146.63" y1="57.52" x2="234.46" y2="405.91" gradientUnits="userSpaceOnUse">
      <stop offset="0" stop-color="#c42d79"/>
      <stop offset="1" stop-color="#5b3192"/>
    </linearGradient>
    <linearGradient id="linear-gradient-4" x1="2004.06" y1="-4439.37" x2="1938.41" y2="-4696.67" gradientTransform="translate(527.77 5393) rotate(-27.82)" gradientUnits="userSpaceOnUse">
      <stop offset="0" stop-color="#8d50a0"/>
      <stop offset="1" stop-color="#ef4a7b"/>
    </linearGradient>
    <linearGradient id="linear-gradient-5" x1="744.87" y1="170.54" x2="662.29" y2="485.07" gradientUnits="userSpaceOnUse">
      <stop offset="0" stop-color="#f9ee4a"/>
      <stop offset="1" stop-color="#da3d66"/>
    </linearGradient>
    <linearGradient id="linear-gradient-6" x1="943.18" y1="255.54" x2="982.3" y2="255.54" gradientTransform="translate(-224.58 10.05) rotate(6.05)" gradientUnits="userSpaceOnUse">
      <stop offset="0" stop-color="#293882"/>
      <stop offset="1" stop-color="#171042"/>
    </linearGradient>
    <linearGradient id="linear-gradient-7" x1="751.78" y1="223.59" x2="747.97" y2="389.76" xlink:href="#linear-gradient-5"/>
    <linearGradient id="linear-gradient-8" x1="811.3" y1="298.42" x2="667.22" y2="641.06" gradientUnits="userSpaceOnUse">
      <stop offset="0" stop-color="#66cdf3"/>
      <stop offset="1" stop-color="#4a5aa8"/>
    </linearGradient>
    <linearGradient id="linear-gradient-9" x1="1231.81" y1="10.75" x2="1273.72" y2="10.75" gradientTransform="translate(-419.84 -3.79) rotate(19.28)" xlink:href="#linear-gradient-6"/>
    <linearGradient id="linear-gradient-10" x1="406.39" y1="569.48" x2="399.49" y2="432.9" gradientTransform="matrix(1, 0, 0, 1, 0, 0)" xlink:href="#linear-gradient-6"/>
    <linearGradient id="linear-gradient-11" x1="125.47" y1="331.72" x2="656.03" y2="331.72" gradientTransform="matrix(1, 0, 0, 1, 0, 0)" xlink:href="#linear-gradient-6"/>
    <linearGradient id="linear-gradient-12" x1="272.26" y1="417.85" x2="759.19" y2="12.08" xlink:href="#linear-gradient-5"/>
    <linearGradient id="linear-gradient-13" x1="406.82" y1="517.94" x2="343.36" y2="657.28" gradientTransform="matrix(1, 0, 0, 1, 0, 0)" xlink:href="#linear-gradient-6"/>
    <linearGradient id="linear-gradient-14" x1="258.41" y1="368.39" x2="592.96" y2="89.6" xlink:href="#linear-gradient-8"/>
    <linearGradient id="linear-gradient-15" x1="381.26" y1="219.98" x2="245.68" y2="405.81" gradientUnits="userSpaceOnUse">
      <stop offset="0" stop-color="#cb266e"/>
      <stop offset="1" stop-color="#4c286e"/>
    </linearGradient>
    <linearGradient id="linear-gradient-16" x1="337" y1="313.08" x2="337.53" y2="368.56" xlink:href="#linear-gradient-15"/>
    <linearGradient id="linear-gradient-17" x1="353.47" y1="336.33" x2="135.09" y2="429.8" xlink:href="#linear-gradient-8"/>
    <linearGradient id="linear-gradient-18" x1="590.85" y1="224.12" x2="540.31" y2="293.39" xlink:href="#linear-gradient-5"/>
    <linearGradient id="linear-gradient-19" x1="590.85" y1="301.07" x2="540.31" y2="370.35" xlink:href="#linear-gradient-8"/>
    <linearGradient id="linear-gradient-20" x1="493.92" y1="412.51" x2="750.01" y2="412.51" xlink:href="#linear-gradient-15"/>
    <linearGradient id="linear-gradient-21" x1="12728.74" y1="168.5" x2="12661.54" y2="206.85" gradientTransform="translate(-12430.06)" gradientUnits="userSpaceOnUse">
      <stop offset="0" stop-color="#f7b777"/>
      <stop offset="1" stop-color="#f47960"/>
    </linearGradient>
    <linearGradient id="linear-gradient-22" x1="-5618.95" y1="-4057.22" x2="-5624.11" y2="-3978.12" gradientTransform="translate(-6542.6 1368.72) rotate(-153.82) scale(1 -1)" xlink:href="#linear-gradient-15"/>
    <linearGradient id="linear-gradient-23" x1="12722.24" y1="178.06" x2="12952.18" y2="34.12" xlink:href="#linear-gradient-21"/>
    <linearGradient id="linear-gradient-24" x1="-4410.55" y1="-5654.34" x2="-4415.71" y2="-5575.24" gradientTransform="translate(-6674.04 1983.31) rotate(-142.14) scale(1 -1)" xlink:href="#linear-gradient-15"/>
    <linearGradient id="linear-gradient-25" x1="4834.09" y1="120.33" x2="4778.82" y2="180.9" gradientTransform="translate(-4598.36)" xlink:href="#linear-gradient-8"/>
    <linearGradient id="linear-gradient-26" x1="-9082.61" y1="-727.77" x2="-9066.08" y2="-686.31" gradientTransform="translate(-8594.24 -2256.21) rotate(-160.83) scale(1 -1)" xlink:href="#linear-gradient-6"/>
    <linearGradient id="linear-gradient-27" x1="12651.95" y1="95.24" x2="12493.53" y2="248.06" gradientTransform="translate(-12430.06)" xlink:href="#linear-gradient-5"/>
    <linearGradient id="linear-gradient-28" x1="-7082.57" y1="146.38" x2="-7015.63" y2="146.38" gradientTransform="translate(-6901.59) rotate(-180) scale(1 -1)" xlink:href="#linear-gradient-21"/>
    <linearGradient id="linear-gradient-29" x1="-8869.3" y1="-521.04" x2="-8866.03" y2="-544.98" gradientTransform="translate(-8675.37 -1.86) rotate(-175.89) scale(1 -1)" xlink:href="#linear-gradient-21"/>
    <linearGradient id="linear-gradient-30" x1="-9123.5" y1="-2420.46" x2="-9092.69" y2="-2475.3" gradientTransform="translate(-6801.77 -6229.51) rotate(-123.08) scale(1 -1)" xlink:href="#linear-gradient-21"/>
    <linearGradient id="linear-gradient-31" x1="-9116.88" y1="-2468.22" x2="-9101.47" y2="-2429.57" gradientTransform="translate(-6801.77 -6229.51) rotate(-123.08) scale(1 -1)" xlink:href="#linear-gradient-6"/>
    <linearGradient id="linear-gradient-32" x1="-9116.94" y1="-2416.78" x2="-9086.13" y2="-2471.62" gradientTransform="translate(-6801.77 -6229.51) rotate(-123.08) scale(1 -1)" xlink:href="#linear-gradient-21"/>
    <linearGradient id="linear-gradient-33" x1="-7124.03" y1="-78.67" x2="-7159.05" y2="-69.07" gradientTransform="translate(-6935.32 -127.74) rotate(-177.17) scale(1 -1)" xlink:href="#linear-gradient-8"/>
    <linearGradient id="linear-gradient-34" x1="4374.57" y1="139.97" x2="4689.55" y2="113.47" gradientTransform="translate(4649.52) rotate(-180) scale(1 -1)" xlink:href="#linear-gradient-6"/>
    <linearGradient id="linear-gradient-35" x1="-7148.06" y1="129.53" x2="-7159.34" y2="146.51" gradientTransform="translate(-6901.59) rotate(-180) scale(1 -1)" xlink:href="#linear-gradient-8"/>
    <linearGradient id="linear-gradient-36" x1="14723.09" y1="-2868.1" x2="14746.92" y2="-2868.1" gradientTransform="translate(-14208.62 -2771.66) rotate(23.65)" xlink:href="#linear-gradient-8"/>
    <linearGradient id="linear-gradient-37" x1="14723.09" y1="-2863.82" x2="14746.92" y2="-2863.82" gradientTransform="translate(-14208.62 -2771.66) rotate(23.65)" xlink:href="#linear-gradient-8"/>
    <linearGradient id="linear-gradient-38" x1="14724.3" y1="-2876.2" x2="14730.34" y2="-2876.2" gradientTransform="translate(-14208.62 -2771.66) rotate(23.65)" xlink:href="#linear-gradient-21"/>
    <linearGradient id="linear-gradient-39" x1="15076.73" y1="513.38" x2="15100.2" y2="513.38" gradientTransform="translate(-14721.55 463.62) rotate(-1.68)" xlink:href="#linear-gradient-8"/>
    <linearGradient id="linear-gradient-40" x1="15076.73" y1="517.56" x2="15100.2" y2="517.56" gradientTransform="translate(-14721.55 463.62) rotate(-1.68)" xlink:href="#linear-gradient-8"/>
    <linearGradient id="linear-gradient-41" x1="15442.41" y1="377.59" x2="15449.99" y2="377.59" gradientTransform="translate(-14926.34 -1646.74) rotate(6.69)" xlink:href="#linear-gradient-21"/>
    <linearGradient id="linear-gradient-42" x1="-6467.47" y1="347.33" x2="-6549.36" y2="431.82" gradientTransform="translate(-6013.65 -620.05) rotate(-173.61) scale(1 -1)" xlink:href="#linear-gradient-15"/>
    <linearGradient id="linear-gradient-43" x1="15499.93" y1="339.68" x2="15475.24" y2="371.6" gradientTransform="translate(-14936.07 -1619.09) rotate(6.39)" xlink:href="#linear-gradient-15"/>
    <linearGradient id="linear-gradient-44" x1="750.07" y1="270.5" x2="633.53" y2="380" gradientTransform="translate(-238.14 26.86) rotate(6.39)" xlink:href="#linear-gradient-8"/>
    <linearGradient id="linear-gradient-45" x1="15502.56" y1="289" x2="15505.32" y2="271.96" gradientTransform="translate(-14936.07 -1619.09) rotate(6.39)" xlink:href="#linear-gradient-21"/>
    <linearGradient id="linear-gradient-46" x1="15513.31" y1="261.47" x2="15494.83" y2="275.61" gradientTransform="translate(-14936.07 -1619.09) rotate(6.39)" xlink:href="#linear-gradient-21"/>
    <linearGradient id="linear-gradient-47" x1="15500.33" y1="250.3" x2="15517.06" y2="271.85" gradientTransform="translate(-14936.07 -1619.09) rotate(6.39)" xlink:href="#linear-gradient-6"/>
    <linearGradient id="linear-gradient-48" x1="15511.02" y1="258.47" x2="15492.54" y2="272.61" gradientTransform="translate(-14936.07 -1619.09) rotate(6.39)" xlink:href="#linear-gradient-21"/>
    <linearGradient id="linear-gradient-49" x1="512.93" y1="366.59" x2="420.52" y2="437.58" gradientTransform="matrix(1, 0, 0, 1, 0, 0)" xlink:href="#linear-gradient-21"/>
    <linearGradient id="linear-gradient-50" x1="503.76" y1="366.27" x2="434.21" y2="419.7" gradientTransform="matrix(1, 0, 0, 1, 0, 0)" xlink:href="#linear-gradient-21"/>
    <linearGradient id="linear-gradient-51" x1="447.07" y1="390.4" x2="410.38" y2="423.18" xlink:href="#linear-gradient-8"/>
    <linearGradient id="linear-gradient-52" x1="3890.46" y1="-2173.16" x2="3818.2" y2="-2216.96" gradientTransform="translate(-4017.72 976.18) rotate(14.98) scale(1 .91) skewX(-10.14)" xlink:href="#linear-gradient-8"/>
    <linearGradient id="linear-gradient-53" x1="3850.35" y1="-2189.36" x2="3767.66" y2="-2276.79" gradientTransform="translate(-4017.72 976.18) rotate(14.98) scale(1 .91) skewX(-10.14)" xlink:href="#linear-gradient-8"/>
    <linearGradient id="linear-gradient-54" x1="3885.18" y1="-2173.89" x2="3817.68" y2="-2214.8" gradientTransform="translate(-4017.72 976.18) rotate(14.98) scale(1 .91) skewX(-10.14)" xlink:href="#linear-gradient-8"/>
    <linearGradient id="linear-gradient-55" x1="-6955.53" y1="-1921.78" x2="-6924.69" y2="-1930.71" gradientTransform="translate(-6616.53 200.7) rotate(-165.02) scale(1 -1)" xlink:href="#linear-gradient-8"/>
  </defs>
  <g>
    <path class="cls-1" d="M763.39,268.9c-13.21-7.37-29.38-12.67-46.73-16.69-10.24-2.38-44.7-4.17-51.2-11.62-14.48-16.6-2.76-36.66,2.27-54.37,11.74-41.3-27.62-74.31-59.3-92.9-30.87-18.12-67.22-14.91-101.32-10.51-36.46,4.71-71.14,13-104.38,28.95-30.34,14.56-61.15,41.86-96.25,42.98-34.08,1.08-60-25.09-85.98-43.1-80.3-55.65-177.1,25.61-168.76,114.3,4.33,46.03,34.67,92.7-4.46,132.81-1.8,1.84-3.44,3.67-4.85,5.47-13.03,16.67-15.17,27.72-14.14,49.97,2.68,57.96,54.51,83.66,105.6,90.01,43.91,5.46,79.18-27.19,118.79-39.45,38.17-11.82,79.31,6.69,115.65,17.56,73.02,21.84,174.56,71.56,225.55-13.55,24.44-40.79,56.7-34.96,98.23-36.66,48.38-1.97,84.73-39.99,99.64-84.24,13.43-39.86-1.2-63.81-28.35-78.97Z"/>
    <path class="cls-2" d="M62.85,324.72c8.02,4.71,17.09,8.52,26.79,11.44,18.62,5.6,39.59,4.07,57.48,12.35,28.11,13.01,16.86,37.22,10,61.37-6.59,23.2,11.27,57.17,27.55,72.03,67.48,61.58,166.78,26.13,241.26,1.13,48.5-16.28,102.87-17.88,152.75-6.96,43.92,9.62,86.02,36.64,130.3,13.13,41.21-21.88,68.56-72.1,64.14-119.06-2.45-26.07-15.14-50.81-14.46-77.19,.66-25.46,14.33-46.66,26.9-67.91,25.51-43.13,2.74-99.66-39.94-119.11-37.18-16.94-83.59-14.96-123.05-9.42-21.92,3.08-43.77,7.4-65.52,11.54-42.96,8.18-87.07,8.66-129.65-2.07-40.6-10.23-79.17-28.77-122.06-26.18-31.25,1.89-58.24,20.61-74.37,47.53-24.44,40.79-56.7,34.96-98.23,36.66-48.38,1.97-84.73,39.99-99.64,84.26-11.91,35.35,3.13,60.84,29.74,76.47Z"/>
  </g>
  <g>
    <path class="cls-11" d="M328.51,307.46c-10.91-40.95-34.16-74.31-62.6-94.65-25.42-18.18-43.08-45.42-48.65-76.14-.59-3.23-1.31-6.48-2.17-9.73-13.12-49.26-53.93-81.15-91.16-71.23-37.23,9.91-56.78,57.88-43.66,107.13,2.68,10.07,6.52,19.42,11.25,27.82,15.1,26.83,20.02,58.36,12.6,88.26-6.63,26.72-6.6,57.17,1.58,87.87,12.19,45.79,39.82,82.09,72.89,101.31,12.51,7.27,23.64,16.76,32.71,28.02,15.06,18.71,37.08,28.24,57.98,22.67,22.55-6,37.48-27.9,39.72-54.19,1.26-14.88,5.44-29.32,11.78-42.85,14.97-31.95,18.75-72.89,7.73-114.3Z"/>
    <path class="cls-6" d="M150.93,104.63c13.53,31.26,26.05,62.92,38.23,94.72,3.05,7.95,5.97,15.94,8.92,23.93l4.42,11.98,4.32,12.02c2.85,8.02,5.81,16.01,8.57,24.06l8.27,24.16c5.31,16.18,10.76,32.31,15.77,48.59,2.52,8.14,5.19,16.22,7.54,24.41l7.16,24.52c9.22,32.79,17.62,65.83,24.34,99.23l-1.44,.3-5.97-24.8-1.48-6.2-1.63-6.16-3.29-12.32-3.27-12.32c-1.08-4.11-2.32-8.18-3.47-12.27-2.36-8.17-4.65-16.35-7.06-24.5-9.85-32.55-20.13-64.96-31.08-97.16-5.6-16.06-11.06-32.16-16.76-48.18l-4.25-12.03-4.35-11.99c-2.89-8-5.79-15.99-8.77-23.96-5.82-15.98-11.74-31.93-17.8-47.82-5.98-15.93-12.1-31.8-18.28-47.65l1.36-.56Z"/>
  </g>
  <g>
    <path class="cls-12" d="M205.5,406.63c-11.87-22.5-29.92-38.9-49.26-47.01-17.28-7.24-31.25-20.82-38.63-38.04-.78-1.81-1.63-3.61-2.58-5.4-14.27-27.06-42.38-40.26-62.78-29.5-20.4,10.76-25.36,41.42-11.09,68.48,2.92,5.53,6.42,10.48,10.31,14.77,12.42,13.68,19.53,31.46,19.22,49.93-.28,16.51,3.83,34.31,12.73,51.18,13.27,25.15,34.28,42.7,56.16,49.53,8.28,2.58,16.05,6.65,22.86,12.03,11.31,8.93,25.44,11.57,36.89,5.53,12.35-6.52,18.13-21.31,15.9-36.99-1.26-8.87-.76-17.87,1.12-26.63,4.44-20.68,1.15-45.13-10.85-67.87Z"/>
    <path class="cls-6" d="M74.58,311.69c12.1,16.48,23.66,33.33,35.05,50.3,2.85,4.24,5.63,8.53,8.42,12.81l4.19,6.42,4.14,6.45c2.74,4.31,5.54,8.59,8.23,12.93l8.08,13.03c5.27,8.75,10.62,17.46,15.73,26.32,2.56,4.42,5.21,8.79,7.68,13.27l7.48,13.39c9.79,17.95,19.13,36.15,27.54,54.78l-.8,.37-6.82-13.71-1.7-3.43-1.78-3.39-3.58-6.77-3.56-6.77c-1.18-2.26-2.45-4.47-3.67-6.71-2.47-4.46-4.91-8.94-7.41-13.39-10.12-17.72-20.48-35.31-31.19-52.68-5.42-8.64-10.77-17.34-16.26-25.94l-4.1-6.47-4.15-6.43c-2.76-4.29-5.53-8.58-8.34-12.84-5.54-8.57-11.15-17.1-16.82-25.59-5.63-8.52-11.34-16.98-17.07-25.43l.72-.51Z"/>
  </g>
  <g>
    <g>
      <g>
        <path class="cls-15" d="M727.23,319.04c-3.11-8.75-5.05-17.77-4.71-27.33,.85-24.09,17.09-44.63,29.48-64.14,11.39-17.93,21.35-45.38-10.58-46.23-25.44-.68-57.76,21.32-63.93,47.18-7.29,30.6,3.66,71.33-17.23,97.62-29.23,36.77-46.35,25.82-53.4,92.36-3.01,28.43,11.07,45.78,28.19,56.33,27.02,16.65,61.56,14.74,86.57-4.81,22.1-17.27,36.97-43.89,35.9-72.3-1.07-28.7-20.97-52.49-30.3-78.69Z"/>
        <path class="cls-13" d="M697.81,541.27c-.05,0-.1,.01-.15,.01-.54,0-1.01-.4-1.08-.94-9.05-64.31-12.32-122.55-9.72-173.1,2.09-40.48,7.92-76.15,17.35-106.03,16.11-51.06,36.84-67.29,37.71-67.96,.48-.37,1.17-.27,1.53,.21,.37,.48,.28,1.17-.21,1.54-.05,.04-5.33,4.13-12.49,14.41-6.62,9.5-16.25,26.36-24.55,52.77-9.33,29.71-15.11,65.19-17.17,105.45-2.57,50.35,.7,108.35,9.71,172.41,.08,.6-.33,1.15-.93,1.24Z"/>
      </g>
      <path class="cls-14" d="M759.8,251.56c-1.18-.46-2.51-.71-3.96-.69-7.99,.07-12.11,8.05-15.12,14.31-2.58,5.36-5.63,11.88-5.1,18.04,.58,6.66,6.94,12.72,12.67,6.63,6.52-6.93,16.32-17.58,17.43-27.56,.55-4.96-1.82-9.13-5.93-10.72Z"/>
    </g>
    <g>
      <path class="cls-9" d="M804.88,439.92c5.48-20.92,.34-46.16-1.13-69.05-.78-12.11-.47-24.01,2.71-35.78,3.16-11.71,10.12-24,6.22-36.41-7.86-25.01-33.73-16.75-49.8-.25-18.64,19.14-26.75,52.79-35.78,78.41-5.44,15.44-12.83,31.09-16.53,47.02-6.12,26.39-2.04,45.6,9.42,59.5,10.99,13.33,29.42,17.8,45.31,11.03,14.36-6.11,30.73-20.71,39.57-54.46Z"/>
      <path class="cls-10" d="M737.96,541.28c-.58,0-1.06-.45-1.09-1.03-.02-.35-1.96-35.47,2.65-82.33,4.25-43.27,15.11-105.72,42.7-157.45,.29-.53,.95-.74,1.48-.45,.53,.29,.74,.95,.45,1.48-27.41,51.4-38.21,113.52-42.45,156.59-4.59,46.7-2.66,81.69-2.64,82.03,.03,.6-.43,1.12-1.03,1.16-.02,0-.04,0-.06,0Z"/>
    </g>
  </g>
  <path class="cls-3" d="M738.94,140.04c-.05-20.1-22.48-46.23-55.24-17.92-1.95-9.32-49.29-34.23-63.43,29.47-5.06-14.61-36.44-3.91-39.61,21.94-12.73-5.04-38.57,29.17,.47,30.76,49.86,2.02,162.23-11.16,178.88-47.37,16.65-36.21-21.07-16.88-21.07-16.88Z"/>
  <path class="cls-3" d="M504.16,133.98c-.03-12.83-14.36-29.52-35.27-11.44-1.24-5.95-31.48-21.86-40.5,18.82-3.23-9.33-23.27-2.5-25.3,14.01-8.13-3.22-24.63,18.63,.3,19.64,31.84,1.29,103.6-7.12,114.23-30.25,10.63-23.12-13.46-10.78-13.46-10.78Z"/>
  <g>
    <polygon class="cls-44" points="348.74 414.43 337.29 517.18 470.2 517.18 452.89 414.43 348.74 414.43"/>
    <path class="cls-45" d="M125.47,206.06v235.32c0,19.36,15.43,35.19,34.78,35.69,85.95,2.22,386.56,7.59,468.38,6.38,14.06-.21,25.45-11.46,25.86-25.52,1.58-54.67,4.14-186.13-5.34-247.16-2-12.85-12.85-22.46-25.85-22.88-72.02-2.3-390.68-9.62-472.46-7.78-14.1,.32-25.37,11.84-25.37,25.95Z"/>
    <path class="cls-43" d="M140.23,204.91v223.57c0,11.3,9.07,20.51,20.37,20.68l456.25,5.64c11.2,.17,20.39-8.85,20.43-20.05l.76-221.57c.03-8.01-6.35-14.58-14.36-14.77l-467.11-9.44c-8.96-.22-16.34,6.98-16.34,15.95Z"/>
    <path class="cls-7" d="M640.72,464.06h-.01l-500.49-8.53c-.4,0-.73-.34-.72-.74,0-.4,.34-.72,.74-.72l500.49,8.53c.4,0,.73,.34,.72,.74,0,.4-.33,.72-.73,.72Z"/>
    <path class="cls-42" d="M498.83,538.2h-194.53c-5.28,0-9.25-3.76-8.23-7.8l2.5-9.87c.75-2.97,4.02-5.15,7.9-5.27l187.54-5.85c4.05-.13,7.64,2.02,8.52,5.11l4.5,15.72c1.17,4.09-2.82,7.96-8.19,7.96Z"/>
    <path class="cls-4" d="M409.02,518.02c-.4,0-.72-.32-.73-.72,0-.4,.32-.74,.72-.74l8.04-.12h.01c.4,0,.72,.32,.73,.72,0,.4-.32,.74-.72,.74l-8.04,.12h-.01Z"/>
    <path class="cls-4" d="M303.27,532.85s-.08,0-.12,0c-.4-.06-.67-.44-.61-.84l1.15-7.18c.62-3.91,3.95-6.78,7.9-6.84l85.24-1.25h.01c.4,0,.72,.32,.73,.72,0,.4-.32,.74-.72,.74l-85.24,1.25c-3.24,.05-5.97,2.41-6.48,5.61l-1.15,7.18c-.06,.36-.37,.62-.72,.62Z"/>
    <g>
      <path class="cls-32" d="M496.98,395.4l-319.14-7.77c-5.48-.13-9.86-4.62-9.86-10.1V219.41c0-5.58,4.52-10.1,10.1-10.1H492.69c5.47,0,9.95,4.36,10.1,9.83l4.53,165.89c.16,5.78-4.56,10.52-10.35,10.38Z"/>
      <g>
        <circle class="cls-38" cx="335.83" cy="282.26" r="44.58"/>
        <path class="cls-4" d="M369.61,304.7c-.14,0-.27-.04-.39-.12-.34-.22-.44-.67-.22-1.01,2.29-3.55,3.98-7.43,5.02-11.51,.1-.39,.5-.63,.89-.53,.39,.1,.63,.5,.53,.89-1.08,4.23-2.84,8.25-5.21,11.94-.14,.22-.37,.34-.62,.34Z"/>
        <path class="cls-4" d="M375.98,282.99c-.4,0-.73-.33-.73-.73,0-21.74-17.69-39.43-39.43-39.43-.4,0-.73-.33-.73-.73s.33-.73,.73-.73c22.55,0,40.89,18.34,40.89,40.89,0,.4-.33,.73-.73,.73Z"/>
        <path class="cls-4" d="M321.44,305.55c-1.25,0-2.28-1-2.32-2.26l-1.06-39.55c-.03-1.3,.6-2.51,1.69-3.22,1.09-.72,2.45-.81,3.63-.26l39.07,18.27c1.29,.6,2.11,1.86,2.15,3.28,.04,1.42-.72,2.72-1.98,3.39l-34.49,18.38c-1.13,.6-2.54,.17-3.14-.96-.6-1.13-.17-2.53,.96-3.14l32.89-17.54-36.11-16.89,1.02,38.09c.03,1.28-.98,2.35-2.26,2.38-.02,0-.04,0-.06,0Z"/>
      </g>
      <path class="cls-40" d="M167.98,353.42v24.1c0,5.48,4.38,9.97,9.86,10.1l319.14,7.77c5.78,.14,10.5-4.59,10.35-10.38l-.86-31.6H167.98Z"/>
      <g>
        <path class="cls-5" d="M177.48,371.13l.29,2.91c.27,2.67,2.51,4.69,5.19,4.69H464.81c2.88,0,5.22-2.33,5.22-5.22h0c0-2.86-2.3-5.19-5.16-5.21l-282.14-2.91c-3.11-.03-5.55,2.64-5.24,5.73Z"/>
        <path class="cls-41" d="M357.86,375.4c-.33-2.71-.73-5.45-1.12-8.21l-174.01-1.79c-3.11-.03-5.55,2.64-5.24,5.73l.29,2.91c.27,2.67,2.51,4.69,5.19,4.69h175.38c-.18-1.17-.36-2.29-.49-3.34Z"/>
        <path class="cls-4" d="M368.68,372.7c0,5.21-4.22,9.43-9.43,9.43s-9.43-4.22-9.43-9.43,4.22-9.43,9.43-9.43,9.43,4.22,9.43,9.43Z"/>
      </g>
      <rect class="cls-5" x="476.51" y="365.81" width="5.63" height="12.8"/>
      <rect class="cls-5" x="491.87" y="362.23" width="5.63" height="16.38"/>
      <rect class="cls-5" x="484.7" y="359.16" width="5.12" height="19.45"/>
      <path class="cls-5" d="M167.86,407.73l.26,27.06c.04,3.87,3.21,6.98,7.08,6.94l321.78-3.12c3.87-.04,6.98-3.21,6.94-7.08l-.18-18.35c-.04-3.8-3.09-6.88-6.89-6.94l-321.86-5.6c-3.95-.07-7.17,3.13-7.13,7.08Z"/>
      <rect class="cls-5" x="177.78" y="410.79" width="244.86" height="6.3" rx="2.5" ry="2.5"/>
      <rect class="cls-5" x="177.78" y="419.89" width="172.8" height="4.9" rx="2.45" ry="2.45"/>
      <rect class="cls-5" x="177.78" y="428.98" width="93.75" height="3.5" rx="1.75" ry="1.75"/>
    </g>
    <g>
      <path class="cls-5" d="M618.18,282.48l-87.65-2.88c-2.03-.05-3.65-1.71-3.65-3.74v-58.61c0-2.07,1.68-3.75,3.75-3.75h85.97c2.03,0,3.69,1.62,3.74,3.64l1.68,61.49c.06,2.14-1.69,3.9-3.84,3.85Z"/>
      <g>
        <circle class="cls-33" cx="573.91" cy="247.33" r="16.62"/>
        <path class="cls-4" d="M586.51,255.78c-.06,0-.13-.02-.19-.06-.16-.1-.21-.32-.1-.48,.85-1.32,1.48-2.75,1.86-4.27,.05-.19,.24-.3,.43-.25,.19,.05,.3,.24,.25,.43-.41,1.59-1.06,3.09-1.95,4.47-.07,.1-.18,.16-.29,.16Z"/>
        <path class="cls-4" d="M588.88,247.68c-.19,0-.35-.16-.35-.35,0-8.06-6.56-14.62-14.62-14.62-.19,0-.35-.16-.35-.35s.16-.35,.35-.35c8.45,0,15.32,6.87,15.32,15.32,0,.19-.16,.35-.35,.35Z"/>
        <path class="cls-4" d="M568.55,256.02c-.47,0-.85-.37-.86-.84l-.39-14.74c-.01-.49,.22-.94,.63-1.2,.41-.27,.91-.3,1.35-.1l14.56,6.81c.48,.22,.79,.69,.8,1.22,.01,.53-.27,1.02-.74,1.27l-12.86,6.85c-.42,.22-.95,.06-1.17-.36-.22-.42-.07-.94,.36-1.17l12.26-6.54-13.46-6.3,.38,14.2c.01,.48-.36,.87-.84,.89,0,0-.02,0-.02,0Z"/>
      </g>
    </g>
    <g>
      <path class="cls-5" d="M618.18,359.44l-87.65-2.88c-2.03-.05-3.65-1.71-3.65-3.74v-58.61c0-2.07,1.68-3.75,3.75-3.75h85.97c2.03,0,3.69,1.62,3.74,3.64l1.68,61.49c.06,2.14-1.69,3.9-3.84,3.85Z"/>
      <g>
        <circle class="cls-39" cx="573.91" cy="324.29" r="16.62"/>
        <path class="cls-4" d="M586.51,332.73c-.06,0-.13-.02-.19-.06-.16-.1-.21-.32-.1-.48,.85-1.32,1.48-2.75,1.86-4.27,.05-.19,.24-.3,.43-.25,.19,.05,.3,.24,.25,.43-.41,1.59-1.06,3.09-1.95,4.47-.07,.1-.18,.16-.29,.16Z"/>
        <path class="cls-4" d="M588.88,324.64c-.19,0-.35-.16-.35-.35,0-8.06-6.56-14.62-14.62-14.62-.19,0-.35-.16-.35-.35s.16-.35,.35-.35c8.45,0,15.32,6.87,15.32,15.32,0,.19-.16,.35-.35,.35Z"/>
        <path class="cls-4" d="M568.55,332.97c-.47,0-.85-.37-.86-.84l-.39-14.74c-.01-.49,.22-.94,.63-1.2,.41-.27,.91-.3,1.35-.1l14.56,6.81c.48,.22,.79,.69,.8,1.22,.01,.53-.27,1.02-.74,1.27l-12.86,6.85c-.42,.22-.95,.06-1.17-.36-.22-.42-.07-.94,.36-1.17l12.26-6.54-13.46-6.3,.38,14.2c.01,.48-.36,.87-.84,.89,0,0-.02,0-.02,0Z"/>
      </g>
    </g>
    <rect class="cls-5" x="526.88" y="372.31" width="95.15" height="6.3" rx="3.15" ry="3.15"/>
    <rect class="cls-5" x="526.88" y="382.81" width="95.15" height="6.3" rx="3.15" ry="3.15"/>
    <rect class="cls-5" x="526.88" y="393.3" width="95.15" height="6.3" rx="3.15" ry="3.15"/>
    <rect class="cls-5" x="526.88" y="403.8" width="68.56" height="6.3" rx="3.15" ry="3.15"/>
    <rect class="cls-5" x="526.88" y="420.59" width="95.15" height="6.3" rx="3.15" ry="3.15"/>
    <rect class="cls-5" x="526.88" y="431.08" width="68.56" height="6.3" rx="3.15" ry="3.15"/>
  </g>
  <g>
    <circle class="cls-35" cx="621.97" cy="412.51" r="128.05"/>
    <path class="cls-4" d="M738.2,443.95c-.06,0-.12,0-.19-.02-.39-.1-.62-.5-.52-.89,2.61-9.91,3.93-20.17,3.93-30.52,0-.4,.33-.73,.73-.73s.73,.33,.73,.73c0,10.47-1.34,20.86-3.98,30.89-.09,.33-.38,.54-.71,.54Z"/>
    <path class="cls-4" d="M741.07,396.28s-.07,0-.1,0c-.36,0-.67-.26-.72-.63-3.99-28.23-18.05-54.17-39.61-73.05-21.76-19.06-49.7-29.55-78.66-29.55-12.11,0-24.07,1.81-35.52,5.37-.38,.12-.79-.1-.91-.48-.12-.39,.1-.79,.48-.91,11.6-3.61,23.69-5.44,35.96-5.44,29.32,0,57.59,10.62,79.62,29.91,21.82,19.11,36.06,45.37,40.1,73.94,.06,.4-.22,.77-.62,.83Z"/>
    <circle class="cls-5" cx="621.97" cy="347.63" r="35.19"/>
    <circle class="cls-5" cx="621.97" cy="347.63" r="26.21" transform="translate(115.66 848.98) rotate(-73.92)"/>
    <circle class="cls-5" cx="621.97" cy="478.41" r="35.19"/>
    <circle class="cls-5" cx="556.58" cy="413.02" r="35.19"/>
    <circle class="cls-5" cx="621.97" cy="478.41" r="26.21"/>
    <circle class="cls-5" cx="556.58" cy="413.02" r="26.21" transform="translate(-129.03 514.53) rotate(-45)"/>
    <circle class="cls-5" cx="687.36" cy="413.02" r="35.19" transform="translate(163.46 1020.13) rotate(-80.21)"/>
    <circle class="cls-5" cx="687.36" cy="413.02" r="26.21" transform="translate(225.2 1068.35) rotate(-85.81)"/>
    <circle class="cls-5" cx="624.9" cy="415.51" r="11.98"/>
  </g>
  <g>
    <path class="cls-36" d="M288.47,231.03c-.08-.03-42.71-74.68-48.47-81.71-.97-1.18-2.47-1.78-3.99-1.6l-11.9,1.42-13.98,30.24,23.29-13.56c-2.3,15.94,27.61,39.62,37.87,48.26,1.04,.88,1.13,2.45,.19,3.43l-4.1,4.29c6.72,6.82,14.48,11.19,23.24,13.22l-2.16-3.98Z"/>
    <path class="cls-34" d="M269.75,219.48s-2.61,.84-3.5,3.17c-.42,1.11,.03,2.38,1,3.07,4.3,3.08,18.5,13.04,25.05,14.99,.54,.16,1.05-.33,.93-.87-.34-1.52-1.42-4.56-4.93-9.01l.31,.64c.4,.8-.48,1.64-1.26,1.2-4.38-2.47-13.31-7.89-17.61-13.18Z"/>
    <path class="cls-37" d="M271.86,249.35c-.07-.05-6.47-15.45-6.54-15.5-5.86-35.7-20.17-66.28-24.39-74.32-.71-1.35-2.06-2.25-3.58-2.38l-11.94-1.02-19.81,26.78,25.55-8.57c-5.48,15.14,19.02,44.39,27.32,54.93,.84,1.07,.61,2.63-.51,3.4l-4.88,3.37c5.21,8.04,11.92,13.89,20.09,17.65l-1.31-4.34Z"/>
    <path class="cls-47" d="M255.88,234.26s-2.73,.3-4.07,2.4c-.64,1.01-.45,2.33,.36,3.21,3.59,3.89,15.48,16.51,21.5,19.75,.49,.27,1.09-.11,1.08-.67-.02-1.56-.47-4.76-3-9.82l.18,.69c.23,.87-.8,1.51-1.48,.92-3.79-3.31-11.44-10.42-14.58-16.48Z"/>
    <path class="cls-55" d="M169.53,150.49s-10.8,16.06-11.69,23.39c-.89,7.33,2.99,9.86,14.29,10.8,33.64,2.78,50.22-7.3,50.22-7.3,2.3-14.67,3.94-18.4,23.16-26.38,0,0-24.31,1.93-29.2,.03-4.89-1.9-46.78-.54-46.78-.54Z"/>
    <g>
      <path class="cls-48" d="M212.6,60.49s-7.52-8.9-15.52,2.02c-1.45,1.98-7.01,.35-9.05,4.49-1.05,2.14-3.33,3.35-5.67,2.92-5.84-1.08-15.37-1.17-20.08,7.98-3.59,6.98-.82,11.07,2.77,13.39,2.64,1.71,3.58,5.18,1.99,7.89-1.53,2.6-1.82,6.12,2.13,10.36,8.86,9.49,26.39-6.02,26.39-6.02l13.92-32.9,3.12-10.12Z"/>
      <path class="cls-46" d="M198.74,148.37s12.58-11.98,18.77-19.91c3.35-4.29,4.4-9.93,2.85-15.15-2.83-9.52-7.85-19.38-8.31-20.92-.7-2.35-14.8-2.25-14.8-2.25,0,0-27.75,18.01-38.65,48.52l12.24,3.81s7.25-12.16,14.4-19.88c0,0-12.39,16.36-12.82,23.06l26.32,2.72Z"/>
      <path class="cls-56" d="M222.7,153.09l-9.45-10.28-10.91,2.94s-12.72,1.97-20.01,0l-7.28-1.97-16.46-5.12-2.58,7.3c-.66,1.85,0,3.91,1.61,5.05,1.42,1.01,3.09,2.12,4.16,2.59,2.17,.95,49.92,.3,49.92,.3l11.01-.81Z"/>
      <path class="cls-57" d="M206.94,73.18l-9.48,17.62c.63,3.85,10.32,3.96,11.81,1.66,.15-.23,.24-.5,.3-.78l5.67-11.78c.24-1.15-2.9-5.02-3.94-5.57l-3.77-2.01c-1.45-.77,4.6-.83-.59,.84Z"/>
      <g>
        <path class="cls-59" d="M226.12,69.04s1.07,5.95-3.61,13.53c-4.68,7.57-9.34,7.23-11.71,4.53-2.37-2.7-5.2-7.2-3.91-14.75,1.29-7.55,17.62-10.9,19.23-3.31Z"/>
        <path class="cls-61" d="M212.56,73.17s7.58-9.95,13.4-1.28l-.1,3s7.57-.35,6.75-7.33c-.82-6.97-7-11.74-15.56-9.35-8.56,2.38-13.57,5.1-14.53,11.04-.97,5.95,3.89,4.97,3.89,4.97,0,0,1.85-4.1,4.09-4.38,2.24-.28,1.43,2.96,1.43,2.96l.64,.36Z"/>
        <path class="cls-60" d="M210.82,72.91s3.93-5.09,.35-6.15c-3.57-1.06-3.44,4.99-3.21,7.24l2.85-1.09Z"/>
      </g>
    </g>
    <g>
      <path class="cls-58" d="M191.42,157.16s.07,0,.1,0l43.47-.05c1.07,0,1.94-.87,1.94-1.95,0-1.07-.88-1.96-1.95-1.94l-43.47,.05c-1.07,0-1.94,.87-1.94,1.95,0,1.04,.82,1.89,1.85,1.94Z"/>
      <path class="cls-52" d="M274.06,117.7h-36.2c-2.67,0-5.1,1.54-6.24,3.96l-16.73,35.49h44.99c1.72,0,3.27-1.05,3.9-2.65l12.98-32.84c.75-1.9-.65-3.95-2.69-3.95Z"/>
      <path class="cls-50" d="M248.56,135.89c-.78,2.44-.21,4.8,1.29,5.29,1.5,.48,3.35-1.1,4.14-3.54,.78-2.44,.21-4.8-1.29-5.29-1.5-.48-3.35,1.1-4.14,3.54Z"/>
    </g>
  </g>
  <g>
    <g>
      <path class="cls-54" d="M434.69,516.06c4.98,2.46,9.96,4.47,13.32,5.74-2.06-3.44-6.92-11.09-11.88-15.45l-3.85-1.97s-2.23,1.45-4.76,5.91c.3,1.11,1.71,3.09,7.17,5.78Z"/>
      <path class="cls-51" d="M448.04,521.84s-.02-.03-.03-.05c-3.36-1.27-8.34-3.28-13.32-5.74-5.45-2.69-6.87-4.67-7.17-5.78-.12,.21-.23,.41-.35,.63-.53,.99-.16,2.22,.83,2.75,4.02,2.14,14.03,7.37,19.12,9.29,.67,.25,1.28-.48,.92-1.1Z"/>
      <path class="cls-49" d="M433.83,498.72c.56,.22-1.46,2.74-1.86,5.91-.09,.71,.17,1.42,.82,1.72,.43,.19,.94,.41,1.47,.59,.8,.28,1.69-.05,2.1-.79l3.86-6.98-6.39-.44Z"/>
    </g>
    <g>
      <path class="cls-53" d="M373.15,539.48c5.47,.09,10.75-.22,14.28-.51-3.28-2.19-10.83-6.96-17.09-8.76l-2.95-.09c-.84-.03-1.61,.48-1.9,1.27-.42,1.16-.95,3.11-1.16,5.96,.73,.86,2.83,2.03,8.82,2.13Z"/>
      <path class="cls-23" d="M387.47,539.01s-.03-.02-.04-.03c-3.53,.28-8.81,.6-14.28,.51-5.99-.1-8.09-1.27-8.82-2.13-.02,.23-.03,.46-.05,.71-.06,1.1,.79,2.05,1.89,2.1,4.48,.21,15.6,.65,20.94,.21,.7-.06,.94-.97,.35-1.37Z"/>
      <path class="cls-22" d="M368.49,523.88c.6,.05-1.41,3.46-1.78,6.59-.08,.72,.57,1.31,1.29,1.4,.46,.06,1.01,.12,1.58,.14,.85,.03,1.6-.54,1.77-1.37l3.78-6.85-6.64,.08Z"/>
    </g>
    <path class="cls-25" d="M366.83,525.97c3.29-8.99,26.3-71.15,38.65-84.03l14.53,3.82,2-1.97s34.94,14.62,38.62,19.05c3.02,3.64-20.82,40.92-20.82,40.92,0,0-4.2,1.08-7.63-2.61l9.22-26.86c.38-1.1-.21-2.3-1.32-2.67l-26.75-8.93c-1.04-.35-2.18,.07-2.76,1-7.18,11.68-31.89,52.24-36.82,65.07-.14,.36-.51,.58-.89,.52-1.13-.19-3.49-.66-5.31-1.57-.65-.32-.96-1.07-.71-1.76Z"/>
    <path class="cls-24" d="M412.4,461.63c-.09,0-.17-.05-.23-.13-.12-.15-.1-.37,.05-.5l3.99-3.26c.15-.12,.37-.1,.5,.05,.12,.15,.1,.37-.05,.5l-3.99,3.26c-.08,.06-.17,.09-.26,.08Z"/>
    <path class="cls-28" d="M450.27,390.06c-3.62-4.22-7.16-5.93-13.6-6.8-4.74-.63-9.3,2.06-11.12,6.48l-21.66,52.56c4.99,4.43,12.49,5.97,21.87,5.33l27.56-34.35c1.83-2.94,2.96-6.26,3.28-9.71,.55-5.71-2.08-8.57-6.33-13.53Z"/>
    <path class="cls-26" d="M439.92,370.61s-3.49,9.77-5.63,14.12c-.28,.58,.15,1.27,.75,1.49,2.2,.82,7.42,2.62,10.09,2.42,.54-.04,.99-.43,1.11-.96l3.01-13.51-9.32-3.56Z"/>
    <g>
      <path class="cls-27" d="M452.01,360.82s2.39,7.74,2.17,11.64c-.22,3.9,.34,6.5-4.23,6.78-4.57,.28-8.09-2.38-9.7-6.46,0,0-2.54-6.3-1.55-8.66,.99-2.35,13.31-3.3,13.31-3.3Z"/>
      <path class="cls-30" d="M442.09,370.17l.57,.06s-1.8-5.05,.35-5.66c2.14-.61,10.45-1.36,12.52-4.04,2-2.59,.9-6.34-1.25-7.6-.14-.08-.31-.03-.4,.1l-.23,.33c-.15,.23-.51,.15-.55-.12h0c-.04-.26-.37-.35-.54-.14-.63,.8-2.24,2.04-6.22,2.32-5.64,.4-9.54,2.23-10.06,6.04-.03,.24-.31,.35-.5,.2-.38-.29-1.02-.48-1.97,.15-1.66,1.11-1.41,4.49,1.61,7.58,.14,.15,.11,.39-.07,.49-.65,.33-1.65,1.16,.54,2.66,2.24,1.54,3.67,1.56,4.21,1.48,.15-.02,.26-.14,.27-.29l.17-3.41c0-.18,.16-.31,.34-.29l1.21,.14Z"/>
      <path class="cls-31" d="M442.15,370.9s-.7-4.85-2.96-3.77c-2.26,1.09,.51,5.4,2.18,5.77l.77-2.01Z"/>
    </g>
    <g>
      <path class="cls-29" d="M499.54,368.48c-.69-.17-6.81,15.21-6.81,15.21l1.42,4.25s4.36,.05,4.64-3.54c.29-3.84,3.59-15.2,.76-15.91Z"/>
      <g>
        <path class="cls-21" d="M492.75,383.69c-11.81,10.34-31.52,10.71-44.07,9.46-.62,2.59-1.5,7.32-1.21,12.11,31.97,2.09,46.68-17.32,46.68-17.32,0-3.61-1.4-4.25-1.4-4.25Z"/>
        <path class="cls-19" d="M448.67,393.15c-4.5-.45-8.09-1.06-10.04-1.59-15.96-4.33-15.96,10.53-7.46,14.07,3.21,1.34,13.45,.71,16.3-.37-.3-4.79,.59-9.51,1.21-12.11Z"/>
      </g>
    </g>
  </g>
  <g>
    <polygon class="cls-20" points="594.8 124.79 588.08 139.68 580.88 128.73 594.8 124.79"/>
    <path class="cls-17" d="M531.7,86.03l24.3,53.41c.47,1.02,1.33,1.81,2.39,2.19,1.06,.37,2.23,.3,3.23-.2l52.71-26.41c.6-.3,.96-.94,.91-1.61-.05-.67-.51-1.25-1.15-1.45l-82.37-25.92Z"/>
    <polygon class="cls-18" points="594.79 124.79 531.7 86.03 586.3 129.08 584.61 133.28 594.79 124.79"/>
    <polygon class="cls-16" points="581.24 131.58 588.08 139.68 586.3 129.08 581.24 131.58"/>
  </g>
  <g>
    <path class="cls-8" d="M497.09,343.46l-1.78-.49c-.21-.06-.33-.27-.27-.48,.06-.21,.27-.33,.48-.27h0s.02,0,.02,0l1.73,.52h.02c.19,.06,.3,.27,.24,.46-.06,.19-.26,.3-.45,.25Z"/>
    <path class="cls-8" d="M491.82,341.72l-3.35-1.58c-.24-.11-.34-.39-.22-.63,.11-.24,.39-.34,.63-.22,0,0,0,0,0,0l.04,.02,3.24,1.62,.04,.02c.21,.11,.3,.36,.19,.57-.1,.21-.36,.29-.57,.2Z"/>
    <path class="cls-8" d="M485.27,338.24l-3-2.18c-.24-.18-.3-.52-.12-.76,.18-.24,.52-.3,.76-.12,0,0,0,0,0,0l.04,.03,2.89,2.18,.04,.03c.23,.17,.27,.49,.1,.71-.17,.22-.48,.27-.71,.11Z"/>
    <path class="cls-8" d="M479.47,333.62l-2.6-2.66c-.23-.24-.23-.62,0-.86,.24-.23,.62-.23,.86,0,0,0,0,0,0,0l.04,.04,2.49,2.63,.03,.03c.22,.23,.21,.59-.02,.81-.23,.22-.59,.21-.8-.02Z"/>
    <path class="cls-8" d="M474.49,328.11l-2.16-3.02c-.21-.3-.14-.72,.16-.93,.3-.21,.72-.14,.93,.16,0,0,0,0,0,0l.03,.04,2.05,2.98,.03,.04c.2,.29,.13,.69-.16,.89-.29,.2-.68,.13-.88-.15Z"/>
    <path class="cls-8" d="M470.4,321.91l-1.7-3.31c-.19-.36-.04-.8,.32-.99,.36-.19,.8-.04,.99,.32,0,0,0,0,0,0l.02,.05,1.6,3.24,.02,.04c.17,.35,.03,.77-.32,.94-.34,.17-.76,.03-.93-.31Z"/>
    <path class="cls-8" d="M467.22,315.19l-1.23-3.51c-.15-.41,.07-.87,.49-1.01s.87,.07,1.01,.49c0,0,0,0,0,0l.02,.06,1.13,3.43,.02,.05c.13,.4-.08,.83-.49,.96-.4,.13-.82-.08-.96-.47Z"/>
    <path class="cls-8" d="M465.02,308.08l-.72-3.66c-.09-.45,.21-.89,.66-.98,.45-.09,.89,.21,.98,.66h0s.01,.07,.01,.07l.66,3.55v.06c.09,.44-.2,.87-.65,.95-.44,.08-.87-.21-.95-.65Z"/>
    <path class="cls-8" d="M463.85,300.72l-.18-3.73c-.02-.48,.35-.89,.83-.92,.48-.02,.89,.35,.92,.83h0s0,.07,0,.07l.14,3.6v.06c.02,.47-.35,.87-.82,.89-.47,.02-.87-.35-.89-.81Z"/>
    <path class="cls-8" d="M463.77,293.27l.34-3.71c.05-.5,.49-.87,.99-.83,.5,.05,.87,.49,.83,.99h0s0,.07,0,.07l-.36,3.59v.06c-.06,.49-.5,.85-.99,.8-.49-.05-.85-.48-.8-.97Z"/>
    <path class="cls-8" d="M464.67,285.88l.79-3.64c.11-.51,.62-.84,1.13-.73,.51,.11,.84,.62,.73,1.13h0s-.01,.06-.01,.06l-.8,3.52v.05c-.13,.5-.63,.82-1.13,.7-.5-.11-.81-.61-.7-1.11Z"/>
    <path class="cls-8" d="M466.46,278.65l1.2-3.52c.18-.52,.74-.8,1.26-.62s.8,.74,.62,1.26h0s-.02,.06-.02,.06l-1.2,3.41-.02,.05c-.18,.51-.73,.77-1.24,.59-.5-.18-.77-.73-.6-1.23Z"/>
    <path class="cls-8" d="M469.05,271.68l1.56-3.37c.24-.52,.85-.74,1.37-.5,.52,.24,.74,.85,.5,1.37h0s-.02,.06-.02,.06l-1.55,3.26-.02,.05c-.24,.5-.84,.72-1.35,.48-.5-.24-.72-.84-.48-1.34Z"/>
    <path class="cls-8" d="M472.34,265.01l1.88-3.21c.3-.51,.95-.68,1.46-.38,.51,.3,.68,.95,.38,1.46h0s-.03,.05-.03,.05l-1.86,3.1-.03,.04c-.3,.5-.94,.66-1.44,.36-.49-.3-.66-.94-.37-1.43Z"/>
    <path class="cls-8" d="M476.25,258.69l2.16-3.02c.36-.5,1.05-.61,1.54-.26,.5,.36,.61,1.05,.26,1.54h0s-.03,.05-.03,.05l-2.13,2.93-.03,.04c-.35,.49-1.04,.59-1.52,.24-.48-.35-.59-1.03-.25-1.51Z"/>
    <path class="cls-8" d="M480.7,252.74l2.41-2.82c.4-.47,1.11-.53,1.58-.13,.47,.4,.53,1.11,.13,1.58h0s-.03,.04-.03,.04l-2.36,2.75-.03,.03c-.4,.47-1.1,.52-1.57,.12-.47-.4-.52-1.1-.12-1.57Z"/>
    <path class="cls-8" d="M485.63,247.19l2.62-2.62c.44-.44,1.16-.44,1.6,0,.44,.44,.44,1.16,0,1.6h0s-.03,.03-.03,.03l-2.57,2.55-.03,.03c-.44,.44-1.15,.44-1.59,0-.44-.44-.44-1.15,0-1.59Z"/>
    <path class="cls-8" d="M490.98,242.05c.92-.82,1.87-1.62,2.82-2.42,.48-.41,1.21-.35,1.61,.14,.41,.48,.35,1.21-.14,1.61h0s-.02,.02-.02,.02c-.93,.78-1.86,1.55-2.76,2.35-.47,.42-1.19,.37-1.61-.1-.42-.47-.38-1.19,.1-1.61Z"/>
    <path class="cls-8" d="M496.7,237.32l2.98-2.2c.51-.38,1.24-.27,1.62,.24s.27,1.24-.24,1.62h0s-.03,.03-.03,.03l-2.93,2.14-.03,.02c-.51,.38-1.23,.26-1.61-.25-.38-.51-.27-1.23,.25-1.61Z"/>
    <path class="cls-8" d="M502.75,233.03l3.13-1.98c.55-.35,1.27-.18,1.62,.36,.35,.55,.18,1.27-.36,1.62h0s-.03,.02-.03,.02l-3.07,1.93-.03,.02c-.54,.34-1.26,.18-1.61-.37-.34-.54-.18-1.26,.36-1.6Z"/>
    <path class="cls-8" d="M509.08,229.17l3.26-1.76c.58-.31,1.29-.1,1.6,.48,.31,.58,.1,1.29-.48,1.6h0s-.04,.02-.04,.02l-3.2,1.71-.04,.02c-.57,.31-1.29,.09-1.59-.48-.31-.57-.09-1.29,.48-1.59Z"/>
    <path class="cls-8" d="M515.66,225.77l3.37-1.53c.6-.27,1.31,0,1.58,.59s0,1.31-.59,1.58h0s-.04,.02-.04,.02l-3.31,1.49-.04,.02c-.6,.27-1.3,0-1.57-.6-.27-.6,0-1.3,.59-1.57Z"/>
    <path class="cls-8" d="M522.46,222.82l3.47-1.3c.63-.23,1.32,.08,1.56,.71,.23,.63-.08,1.32-.71,1.56h0s-.04,.02-.04,.02l-3.4,1.26h-.04c-.62,.25-1.32-.07-1.55-.69s.08-1.31,.7-1.55Z"/>
    <path class="cls-8" d="M529.44,220.33l3.55-1.07c.65-.2,1.33,.17,1.52,.82,.2,.65-.17,1.33-.82,1.52h0s-.04,.01-.04,.01l-3.48,1.04h-.04c-.64,.2-1.32-.16-1.51-.81-.19-.64,.17-1.32,.81-1.51Z"/>
    <path class="cls-8" d="M536.58,218.3l3.62-.84c.66-.15,1.33,.26,1.48,.92,.15,.66-.26,1.33-.92,1.48h0s-.04,0-.04,0l-3.54,.81h-.04c-.66,.16-1.32-.25-1.47-.92-.15-.66,.26-1.32,.92-1.47Z"/>
    <path class="cls-8" d="M543.83,216.74l3.66-.59c.68-.11,1.31,.35,1.42,1.03,.11,.68-.35,1.31-1.03,1.42h-.04s-3.58,.59-3.58,.59h-.04c-.68,.12-1.31-.34-1.42-1.02-.11-.68,.35-1.31,1.03-1.42h0Z"/>
    <path class="cls-8" d="M551.17,215.68l3.69-.35c.68-.06,1.28,.43,1.34,1.11,.06,.68-.43,1.28-1.11,1.34h-.04s-3.61,.35-3.61,.35h-.04c-.68,.07-1.28-.43-1.35-1.11-.07-.68,.43-1.29,1.11-1.35h0Z"/>
    <path class="cls-8" d="M558.57,215.1l3.71-.11c.68-.02,1.24,.51,1.26,1.19,.02,.68-.51,1.24-1.19,1.26h-.04s-3.63,.11-3.63,.11h-.04c-.68,.02-1.25-.51-1.27-1.19-.02-.68,.51-1.25,1.19-1.27h0Z"/>
    <path class="cls-8" d="M565.99,215.01l3.71,.14c.67,.03,1.2,.59,1.17,1.26-.03,.67-.59,1.2-1.26,1.17h-.04s-3.63-.13-3.63-.13h-.04c-.67-.03-1.2-.59-1.18-1.27s.59-1.2,1.26-1.18h0Z"/>
    <path class="cls-8" d="M573.39,215.41l3.69,.39c.67,.07,1.15,.67,1.08,1.33-.07,.66-.67,1.15-1.33,1.08h-.04s-3.61-.38-3.61-.38h-.04c-.67-.07-1.15-.67-1.08-1.34s.67-1.15,1.33-1.08h0Z"/>
    <path class="cls-8" d="M580.75,216.32l3.65,.64c.65,.12,1.09,.74,.98,1.39-.12,.65-.74,1.09-1.39,.98h-.04s-3.57-.63-3.57-.63h-.04c-.66-.12-1.1-.75-.98-1.4s.74-1.1,1.4-.98h0Z"/>
    <path class="cls-8" d="M588.03,217.73l3.6,.9c.64,.16,1.03,.81,.87,1.45-.16,.64-.81,1.03-1.45,.87h-.04s-3.52-.88-3.52-.88h-.04c-.64-.17-1.04-.82-.88-1.46,.16-.64,.81-1.04,1.45-.88h0Z"/>
    <path class="cls-8" d="M595.19,219.65l3.53,1.16c.62,.2,.96,.88,.76,1.5-.2,.62-.88,.96-1.5,.76h-.04s-3.45-1.13-3.45-1.13h-.04c-.63-.22-.97-.89-.76-1.52,.2-.63,.88-.97,1.5-.76h0Z"/>
    <path class="cls-8" d="M602.2,222.09l3.43,1.38c.6,.24,.9,.93,.65,1.54-.24,.6-.93,.9-1.54,.65h-.02s-3.38-1.36-3.38-1.36h-.03c-.61-.26-.9-.95-.66-1.55,.24-.61,.93-.9,1.54-.66h0Z"/>
    <path class="cls-8" d="M609.02,224.93l3.36,1.5c.59,.26,.86,.96,.59,1.55-.26,.59-.96,.86-1.55,.59h0s-3.34-1.49-3.34-1.49h-.01c-.59-.27-.86-.96-.6-1.56,.26-.59,.96-.86,1.55-.6h0Z"/>
    <path class="cls-8" d="M615.72,227.95l3.34,1.51h0c.59,.27,.85,.96,.58,1.55-.27,.59-.95,.85-1.54,.58l-3.35-1.51c-.59-.27-.85-.96-.59-1.55,.27-.59,.96-.85,1.55-.59h0s0,0,0,0Z"/>
    <path class="cls-8" d="M622.4,230.94l3.36,1.43h.02c.59,.26,.86,.94,.61,1.53s-.93,.86-1.52,.61l-3.4-1.44c-.59-.25-.87-.93-.62-1.52,.25-.59,.93-.87,1.52-.62h0s.02,0,.02,0Z"/>
    <path class="cls-8" d="M629.13,233.71l3.41,1.23h.04c.6,.23,.91,.89,.69,1.49s-.87,.91-1.47,.69l-3.49-1.25c-.6-.22-.91-.88-.7-1.48,.22-.6,.88-.91,1.48-.7h0s.04,.01,.04,.01Z"/>
    <path class="cls-8" d="M635.99,236.03l3.49,.91,.06,.02c.61,.16,.98,.78,.82,1.39s-.78,.98-1.39,.82l-3.61-.94c-.61-.16-.98-.78-.82-1.4,.16-.61,.78-.98,1.4-.82h0s.06,.02,.06,.02Z"/>
    <path class="cls-8" d="M643,237.65l3.55,.46h.08c.62,.09,1.06,.66,.98,1.28-.08,.62-.65,1.06-1.27,.98l-3.72-.47c-.62-.08-1.07-.65-.99-1.27,.08-.62,.65-1.07,1.27-.99h0s.08,.01,.08,.01Z"/>
    <path class="cls-8" d="M650.13,238.28l3.57-.13h.1c.62-.03,1.14,.46,1.17,1.08,.02,.62-.46,1.14-1.08,1.17l-3.76,.14c-.62,.02-1.15-.46-1.17-1.09-.02-.62,.46-1.15,1.09-1.17h0s.1,0,.1,0Z"/>
    <path class="cls-8" d="M657.22,237.7l3.46-.81,.11-.03c.6-.14,1.2,.23,1.34,.84,.14,.6-.23,1.2-.83,1.34l-3.68,.87c-.6,.14-1.21-.23-1.35-.84-.14-.6,.23-1.21,.84-1.35h0s.11-.03,.11-.03Z"/>
    <path class="cls-8" d="M664.05,235.75l3.25-1.46,.09-.04c.56-.25,1.22,0,1.47,.56s0,1.22-.55,1.47l-3.44,1.56c-.56,.25-1.22,0-1.48-.56s0-1.22,.56-1.48h0s.1-.04,.1-.04Z"/>
    <path class="cls-8" d="M670.41,232.53l2.94-2.02,.08-.05c.5-.34,1.19-.22,1.53,.28,.34,.5,.22,1.18-.28,1.53l-3.09,2.14c-.5,.35-1.19,.22-1.54-.28-.35-.5-.22-1.19,.28-1.54h0s.08-.06,.08-.06Z"/>
    <path class="cls-8" d="M676.12,228.24l2.57-2.49,.06-.06c.43-.41,1.11-.4,1.52,.03,.41,.43,.4,1.1-.02,1.52l-2.68,2.63c-.43,.42-1.12,.41-1.54-.02-.42-.43-.41-1.12,.02-1.54h0s.06-.07,.06-.07Z"/>
    <path class="cls-8" d="M681.05,223.07l2.14-2.87,.05-.07c.35-.47,1.01-.56,1.48-.21,.47,.35,.56,1,.22,1.47l-2.23,3.02c-.35,.47-1.02,.58-1.49,.23-.47-.35-.58-1.02-.23-1.49h0s.05-.07,.05-.07Z"/>
    <path class="cls-8" d="M685.1,217.16l1.65-3.18,.04-.07c.26-.51,.89-.7,1.39-.44,.5,.26,.7,.88,.44,1.39l-1.71,3.34c-.26,.51-.89,.72-1.4,.45-.51-.26-.72-.89-.45-1.4h0s.04-.08,.04-.08Z"/>
    <path class="cls-8" d="M688.14,210.67l1.1-3.41,.03-.08c.17-.53,.74-.82,1.27-.65,.53,.17,.82,.74,.65,1.26l-1.13,3.58c-.17,.54-.74,.83-1.28,.66-.54-.17-.83-.74-.66-1.28h0s.03-.09,.03-.09Z"/>
    <path class="cls-8" d="M690.05,203.78l.25-1.77c.08-.59,.19-1.18,.23-1.77,.04-.54,.51-.95,1.06-.91,.54,.04,.95,.51,.91,1.05v.03c-.05,.62-.16,1.24-.23,1.86l-.25,1.86c-.07,.55-.58,.93-1.12,.85-.55-.07-.93-.58-.85-1.12h0s.01-.08,.01-.08Z"/>
    <path class="cls-8" d="M690.71,196.66l-.12-3.58v-.08c-.02-.53,.4-.98,.93-1,.53-.02,.97,.39,1,.92l.15,3.74c.02,.54-.4,.99-.93,1.01-.54,.02-.99-.4-1.01-.93h0s0-.09,0-.09Z"/>
    <path class="cls-8" d="M690.17,189.51l-.7-3.52v-.07c-.11-.51,.22-1,.73-1.1,.51-.1,1,.23,1.1,.73l.75,3.67c.1,.52-.23,1.02-.74,1.12-.52,.1-1.02-.23-1.12-.74h0s-.01-.08-.01-.08Z"/>
    <path class="cls-8" d="M688.51,182.52l-1.23-3.38-.02-.07c-.17-.48,.07-1,.55-1.18,.47-.17,1,.07,1.17,.54l1.31,3.51c.18,.48-.07,1.02-.55,1.19-.48,.18-1.02-.07-1.19-.55h0s-.02-.07-.02-.07Z"/>
    <path class="cls-8" d="M685.78,175.86l-1.74-3.15-.03-.06c-.24-.43-.08-.98,.35-1.22,.43-.24,.97-.08,1.21,.35l1.83,3.26c.24,.44,.09,.99-.35,1.23s-.99,.09-1.23-.35h0s-.03-.07-.03-.07Z"/>
    <path class="cls-8" d="M682.06,169.71l-2.21-2.83-.04-.06c-.3-.38-.23-.93,.15-1.22,.38-.3,.92-.23,1.22,.15l2.32,2.93c.3,.38,.24,.94-.14,1.24s-.94,.24-1.24-.14h0s-.04-.06-.04-.06Z"/>
    <path class="cls-8" d="M677.41,164.23l-1.32-1.22c-.44-.4-.87-.83-1.33-1.21-.36-.3-.42-.83-.12-1.2,.3-.36,.83-.42,1.19-.12h.02c.48,.41,.93,.84,1.39,1.26l1.38,1.27c.35,.32,.37,.87,.05,1.22-.32,.35-.87,.37-1.22,.05h0s-.04-.05-.04-.05Z"/>
    <path class="cls-8" d="M671.92,159.6l-3.02-1.96-.06-.04c-.38-.25-.49-.76-.24-1.14,.25-.38,.76-.49,1.14-.25l3.15,2.01c.39,.25,.5,.77,.25,1.16-.25,.39-.77,.5-1.16,.25h0s-.06-.04-.06-.04Z"/>
    <path class="cls-8" d="M665.73,155.94l-3.3-1.45-.06-.03c-.41-.18-.59-.65-.41-1.06,.18-.4,.65-.59,1.05-.41l3.42,1.48c.41,.18,.6,.66,.42,1.07-.18,.41-.66,.6-1.07,.42h0s-.06-.03-.06-.03Z"/>
    <path class="cls-8" d="M659.03,153.29l-3.49-.93-.06-.02c-.41-.11-.65-.53-.54-.93,.11-.4,.52-.64,.92-.54l3.61,.93c.42,.11,.67,.53,.56,.95-.11,.42-.53,.67-.95,.56h0s-.06-.02-.06-.02Z"/>
    <path class="cls-8" d="M651.99,151.69l-3.59-.39h-.06c-.4-.05-.68-.4-.64-.8,.04-.39,.39-.68,.79-.64l3.71,.36c.41,.04,.71,.4,.67,.81-.04,.41-.4,.71-.81,.67,0,0,0,0,0,0h-.06Z"/>
    <path class="cls-8" d="M644.79,151.2l-3.61,.18h-.06c-.38,.02-.69-.27-.71-.64-.02-.37,.27-.69,.64-.71l3.71-.23c.39-.02,.72,.27,.74,.66,.02,.39-.27,.72-.66,.74,0,0,0,0,0,0h-.06Z"/>
    <path class="cls-8" d="M637.6,151.86l-1.77,.37-.88,.19c-.3,.06-.59,.14-.88,.21h-.03c-.34,.09-.69-.12-.77-.47-.08-.34,.13-.68,.47-.77,.3-.08,.6-.17,.9-.23l.91-.2,1.82-.41c.36-.08,.71,.14,.79,.5,.08,.36-.14,.71-.5,.79h0s-.04,.01-.04,.01Z"/>
    <path class="cls-8" d="M630.59,153.67l-3.46,1.17h0c-.31,.11-.65-.06-.76-.37-.11-.31,.06-.65,.37-.76l3.47-1.21c.32-.11,.68,.06,.79,.38,.11,.32-.06,.68-.38,.79,0,0,0,0,0,0h-.02Z"/>
    <path class="cls-8" d="M623.65,156.03l-3.53,1.09c-.29,.09-.61-.07-.7-.37-.09-.29,.07-.6,.36-.7h.03s3.47-1.13,3.47-1.13h.02c.3-.11,.63,.06,.73,.37s-.07,.63-.37,.73c0,0,0,0,0,0Z"/>
    <path class="cls-8" d="M616.51,157.99c-1.22,.24-2.45,.41-3.7,.5-.29,.02-.53-.19-.55-.48-.02-.28,.19-.53,.47-.55,1.2-.1,2.38-.28,3.56-.52,.29-.06,.58,.13,.64,.42,.06,.29-.13,.58-.42,.64,0,0,0,0,0,0Z"/>
    <path class="cls-8" d="M609.06,158.46c-1.26-.14-2.49-.43-3.68-.85-.25-.09-.38-.36-.29-.61,.09-.25,.36-.38,.6-.29,1.12,.38,2.29,.65,3.46,.76,.27,.03,.47,.27,.45,.54-.03,.27-.27,.47-.54,.45,0,0,0,0,0,0Z"/>
    <path class="cls-8" d="M601.99,155.99c-1.07-.65-2.08-1.41-2.99-2.28-.17-.17-.18-.44-.02-.62,.16-.17,.44-.18,.61-.02,.87,.81,1.84,1.52,2.86,2.13,.22,.13,.29,.41,.16,.63-.13,.22-.41,.29-.63,.16,0,0,0,0,0,0Z"/>
    <path class="cls-8" d="M596.61,150.8c-.67-1.07-1.19-2.25-1.47-3.49-.05-.21,.09-.43,.3-.47,.21-.05,.42,.08,.47,.3,.27,1.14,.76,2.23,1.4,3.23,.12,.19,.07,.45-.13,.57-.19,.12-.45,.07-.57-.13,0,0,0,0,0,0Z"/>
    <path class="cls-8" d="M595.09,143.49c.13-.62,.32-1.23,.57-1.81,.08-.19,.3-.27,.48-.19,.18,.08,.27,.29,.19,.48-.23,.54-.4,1.1-.51,1.67-.04,.2-.24,.34-.44,.3s-.34-.24-.3-.44c0,0,0,0,0,0Z"/>
  </g>
</svg>