<?xml version="1.0" encoding="UTF-8"?>
<svg id="Layer_1" data-name="Layer 1" xmlns="http://www.w3.org/2000/svg" viewBox="0 0 841.89 595.28">
  <defs>
    <style>
      .cls-1 {
        fill: #fff;
        opacity: .14;
      }
    </style>
  </defs>
  <path class="cls-1" d="M791.34,578.79c-.53-19.34-4.25-39.95-12.52-57.44-9.56-20.23-23.94-38.53-41.65-52.31-17.57-13.68-38.93-19.68-60.1-25.72-22.81-6.51-46.02-13.03-66.69-25.03-43.5-25.27-69.65-71.44-87.64-116.78-16.76-42.23-26.66-87.91-45.99-128.62-16.67-35.1-37.54-62.04-66.32-87.77-14.38-12.85-26.67-21.89-43.88-32.45-8.4-5.16-17.03-9.97-25.83-14.42-4.42-2.23-8.88-4.38-13.38-6.43-4.64-2.11-6.85-3.08-9.88-4.29-18.18-7.3-36.83-13.3-55.89-17.82-20.21-4.79-35.64-7.19-54.93-8.64-19.17-1.44-38.45-1.44-57.61,.08-11,.87-17.04,1.64-26.35,3.23-9.41,1.61-18.76,3.6-28,5.99C59.89,19.38,29.72,32.92,0,53.67V574.05c0,11.67,9.55,21.23,21.23,21.23H791.17c.26-5.48,.32-10.97,.17-16.49Z"/>
</svg>