<?xml version="1.0" encoding="UTF-8"?>
<svg id="Layer_1" data-name="Layer 1" xmlns="http://www.w3.org/2000/svg" xmlns:xlink="http://www.w3.org/1999/xlink" viewBox="0 0 200 200">
  <defs>
    <style>
      .cls-1 {
        opacity: .1;
      }

      .cls-1, .cls-2 {
        fill: #271c51;
      }

      .cls-3 {
        clip-path: url(#clippath);
      }

      .cls-4 {
        fill: #f490b2;
      }

      .cls-5, .cls-6 {
        fill: #fff;
      }

      .cls-7 {
        fill: #ef4b8b;
      }

      .cls-8 {
        fill: #fde77b;
      }

      .cls-9, .cls-10 {
        fill: #bc4a75;
      }

      .cls-11 {
        fill: #d5c3df;
      }

      .cls-12 {
        fill: #81cfcf;
      }

      .cls-13 {
        fill: none;
        stroke: #fff;
        stroke-linecap: round;
        stroke-miterlimit: 10;
        stroke-width: 2px;
      }

      .cls-10 {
        opacity: .16;
      }

      .cls-6 {
        opacity: .29;
      }
    </style>
    <clipPath id="clippath">
      <path class="cls-4" d="M170.37,107.65l-9.09,57.9s-58.62,21.26-87.1,11.06l-22.26-56.5s46.66-22.1,118.45-12.47Z"/>
    </clipPath>
  </defs>
  <g>
    <path class="cls-12" d="M64.13,48.32c.49-.07,.96-.34,1.27-.78,.61-.86,.41-2.05-.45-2.65-.91-.65-22.56-15.8-37.57-6.09-.88,.57-1.14,1.75-.56,2.63,.57,.88,1.75,1.14,2.63,.56,12.86-8.32,33.09,5.86,33.3,6,.42,.3,.91,.4,1.38,.33Z"/>
    <path class="cls-12" d="M46.86,37.63s11.67-18.39,1.9-16.93c-9.77,1.46-1.9,16.93-1.9,16.93Z"/>
  </g>
  <g>
    <path class="cls-4" d="M170.37,107.65l-9.09,57.9s-58.62,21.26-87.1,11.06l-22.26-56.5s46.66-22.1,118.45-12.47Z"/>
    <g class="cls-3">
      <g>
        <line class="cls-13" x1="161.02" y1="113.05" x2="149.5" y2="169.2"/>
        <line class="cls-13" x1="136.83" y1="119.87" x2="133.11" y2="171.81"/>
        <line class="cls-13" x1="112.64" y1="126.69" x2="116.73" y2="174.42"/>
        <line class="cls-13" x1="88.45" y1="133.51" x2="100.34" y2="177.03"/>
        <line class="cls-13" x1="64.26" y1="140.33" x2="83.95" y2="179.64"/>
      </g>
    </g>
  </g>
  <path class="cls-10" d="M130.05,155.07c15.97-7.95,29.03-20.32,38.41-35.19l-7.17,45.67s-58.62,21.26-87.1,11.06l-5.88-14.92c18.92,7.69,44.42,2.01,61.74-6.62Z"/>
  <path class="cls-9" d="M168.19,110.61s13.6-14.53-2.76-27.2c0,0-1.54-23.44-22.14-24.96,0,0-11.09-21.35-39.38-17.12,0,0-10.61-4.99-1.19-12.31,9.42-7.33-23.34,2.18-27.53,22.53,0,0-17.52,5.91-13.29,21.05,0,0-12.7,11.76-8.11,24.88,0,0-18.5,25.78,3.01,37.68,0,0,13.57,7.17,35.56-4.01,21.99-11.18,18.85-14.65,34.86-13.11,16.01,1.55,34.98,5.28,40.96-7.45Z"/>
  <path class="cls-5" d="M102.72,29.02c-9.42,7.33,1.19,12.31,1.19,12.31,14.13-2.12,23.97,2.15,30.28,6.96-1.54,3.3-3.85,6.19-7.09,7.47-4.15,1.64-9.05-1-13.16-1.83-11.52-2.31-20.89,3.32-29.18,10.68-5.83,5.17-15.71,11.68-23.2,6.57-2.81-14.1,13.62-19.64,13.62-19.64,4.19-20.35,36.95-29.86,27.53-22.53Z"/>
  <path class="cls-1" d="M52.38,124.18c13.61,8.95,33.68-3.36,46.02-9.32,6.42-3.1,13.28-7.02,20.38-8.3,9.19-1.65,18.57-1.02,27.74-3.3,8.8-2.2,17.77-6.18,22.2-14.58,.26-.49,.48-1,.7-1.5,9.82,11.61-1.23,23.42-1.23,23.42-5.98,12.73-24.95,8.99-40.96,7.45-16.01-1.55-12.86,1.92-34.86,13.11-21.99,11.18-35.56,4.01-35.56,4.01-8.31-4.6-10.63-11.26-10.38-17.72,1.37,2.64,3.28,4.98,5.95,6.73Z"/>
  <path class="cls-7" d="M52.39,52.33c1.35,8.99,9.72,15.19,18.71,13.84,8.99-1.35,15.19-9.72,13.84-18.72-1.35-8.99-9.72-15.19-18.71-13.84-8.99,1.35-15.19,9.72-13.84,18.72Z"/>
  <path class="cls-6" d="M58.85,43.6c.75,5.03,5.44,8.49,10.46,7.74,5.03-.75,8.49-5.44,7.74-10.46-.75-5.03-5.44-8.49-10.46-7.74-5.03,.75-8.49,5.44-7.74,10.46Z"/>
  <path class="cls-8" d="M131.66,58.27c-.12,.8,1.72,1.75,4.13,2.12s4.45,.02,4.58-.78c.12-.8-1.72-1.75-4.13-2.12s-4.45-.02-4.58,.78Z"/>
  <path class="cls-8" d="M103.17,66.48c.74,.34,2.15-1.19,3.16-3.4,1.01-2.21,1.22-4.28,.48-4.62-.74-.34-2.15,1.19-3.16,3.4s-1.22,4.28-.48,4.62Z"/>
  <path class="cls-8" d="M85.2,70.87c.8-.12,1.16-2.17,.8-4.57-.36-2.41-1.3-4.26-2.1-4.14-.8,.12-1.16,2.17-.8,4.57,.36,2.41,1.3,4.26,2.1,4.14Z"/>
  <path class="cls-8" d="M65.22,83.93c.51-.63-.63-2.38-2.53-3.89-1.9-1.52-3.85-2.23-4.36-1.6-.51,.63,.63,2.38,2.53,3.89,1.9,1.52,3.85,2.23,4.36,1.6Z"/>
  <path class="cls-8" d="M95.43,62.81c.51-.63-.63-2.38-2.53-3.89-1.9-1.52-3.85-2.23-4.36-1.6-.51,.63,.63,2.38,2.53,3.89s3.85,2.23,4.36,1.6Z"/>
  <path class="cls-8" d="M122.92,50.53c.51-.63-.63-2.38-2.53-3.89-1.9-1.52-3.85-2.23-4.36-1.6-.51,.63,.63,2.38,2.53,3.89,1.9,1.52,3.85,2.23,4.36,1.6Z"/>
  <path class="cls-8" d="M97.22,42.6c-.75-.3-2.09,1.3-2.98,3.56-.89,2.26-1,4.34-.25,4.64,.75,.3,2.09-1.3,2.98-3.56,.89-2.26,1-4.34,.25-4.64Z"/>
  <path class="cls-11" d="M119.58,58.28c-.75-.3-2.09,1.3-2.98,3.56-.89,2.26-1,4.34-.25,4.64,.75,.3,2.09-1.3,2.98-3.56,.89-2.26,1-4.34,.25-4.64Z"/>
  <path class="cls-11" d="M102.44,44.11c-.48,.65,.71,2.35,2.67,3.8,1.96,1.45,3.93,2.09,4.41,1.44,.48-.65-.71-2.35-2.67-3.8-1.96-1.45-3.93-2.09-4.41-1.44Z"/>
  <path class="cls-11" d="M69.8,72.17c-.1,.8,1.77,1.7,4.19,2,2.41,.3,4.45-.11,4.55-.91,.1-.8-1.77-1.7-4.19-2-2.41-.3-4.45,.11-4.55,.91Z"/>
  <path class="cls-11" d="M89.16,39.12c.54,.61,2.45-.21,4.27-1.82,1.82-1.61,2.86-3.41,2.33-4.02-.54-.61-2.45,.21-4.27,1.82-1.82,1.61-2.86,3.41-2.33,4.02Z"/>
  <g>
    <g>
      <path class="cls-5" d="M76.27,91.12c.9,6.03,6.52,10.19,12.55,9.28,6.03-.9,10.19-6.52,9.28-12.55-.9-6.03-6.52-10.19-12.55-9.28-6.03,.9-10.19,6.52-9.28,12.55Z"/>
      <path class="cls-2" d="M80.23,89.94c.72,4.82,5.22,8.15,10.04,7.43,4.82-.72,8.15-5.22,7.43-10.04-.72-4.82-5.22-8.15-10.04-7.43-4.82,.72-8.15,5.22-7.43,10.04Z"/>
      <path class="cls-5" d="M77.08,89.63c.16,1.05,2.07,1.63,4.27,1.3,2.2-.33,3.86-1.45,3.7-2.5-.16-1.05-2.07-1.63-4.27-1.3-2.2,.33-3.86,1.45-3.7,2.5Z"/>
    </g>
    <g>
      <path class="cls-5" d="M123.74,84.02c.9,6.03,6.52,10.19,12.55,9.28,6.03-.9,10.19-6.52,9.28-12.55-.9-6.03-6.52-10.19-12.55-9.28-6.03,.9-10.19,6.52-9.28,12.55Z"/>
      <path class="cls-2" d="M127.69,82.84c.72,4.82,5.22,8.15,10.04,7.43,4.82-.72,8.15-5.22,7.43-10.04-.72-4.82-5.22-8.15-10.04-7.43-4.82,.72-8.15,5.22-7.43,10.04Z"/>
      <path class="cls-5" d="M124.54,82.53c.16,1.05,2.07,1.63,4.27,1.3,2.2-.33,3.86-1.45,3.7-2.5-.16-1.05-2.07-1.63-4.27-1.3-2.2,.33-3.86,1.45-3.7,2.5Z"/>
    </g>
    <path class="cls-2" d="M104.45,94.71c2.07,.84,4.51,1.16,7.27,.75,2.9-.43,5.21-1.54,6.98-3.06,.1-.04,.2-.07,.31-.11,5.53-1.99,4.54,4.37,4.54,4.37-4.16,11.11-14,10.25-19.35,5.61-4.37-3.78-1.1-6.64,.25-7.56Z"/>
    <path class="cls-7" d="M111.59,100.75c2.97-2.05,5.42-.87,6.59,1.9,.14,.33,.3,.62,.47,.91-3,2.16-6.56,2.36-9.71,1.36,.52-1.69,1.32-3.25,2.65-4.17Z"/>
    <path class="cls-7" d="M140.89,94.02c.17,1.1,2.01,1.74,4.11,1.43,2.11-.32,3.68-1.46,3.51-2.57-.17-1.1-2.01-1.74-4.11-1.43-2.11,.31-3.68,1.46-3.51,2.57Z"/>
    <path class="cls-7" d="M80.39,105.12c.16,1.1,2.01,1.74,4.11,1.43,2.11-.32,3.68-1.46,3.51-2.57-.16-1.1-2.01-1.74-4.11-1.43-2.11,.31-3.68,1.46-3.51,2.57Z"/>
  </g>
</svg>