<?xml version="1.0" encoding="UTF-8"?>
<svg id="Layer_1" data-name="Layer 1" xmlns="http://www.w3.org/2000/svg" xmlns:xlink="http://www.w3.org/1999/xlink" viewBox="0 0 200 200">
  <defs>
    <style>
      .cls-1 {
        fill: url(#linear-gradient);
      }

      .cls-2 {
        fill: #fff;
      }

      .cls-3 {
        fill: #ef4c7d;
      }

      .cls-4 {
        fill: #ef4b8b;
      }

      .cls-5 {
        fill: #fde77b;
      }

      .cls-6 {
        fill: #d5c3df;
      }

      .cls-7, .cls-8 {
        fill: #271c51;
      }

      .cls-8 {
        opacity: .18;
      }

      .cls-9 {
        fill: url(#linear-gradient-3);
      }

      .cls-10 {
        fill: url(#linear-gradient-2);
      }
    </style>
    <linearGradient id="linear-gradient" x1="54.11" y1="184.42" x2="115.59" y2="184.42" gradientTransform="translate(-17.08 -30.42) rotate(-13.46)" gradientUnits="userSpaceOnUse">
      <stop offset="0" stop-color="#fde77b"/>
      <stop offset=".09" stop-color="#fde77f"/>
      <stop offset=".19" stop-color="#fdea8c"/>
      <stop offset=".3" stop-color="#fdeea2"/>
      <stop offset=".4" stop-color="#fef3c0"/>
      <stop offset=".51" stop-color="#fefae6"/>
      <stop offset=".57" stop-color="#fff"/>
      <stop offset=".62" stop-color="#fef8dd"/>
      <stop offset=".69" stop-color="#fdf2ba"/>
      <stop offset=".76" stop-color="#fded9e"/>
      <stop offset=".84" stop-color="#fde98a"/>
      <stop offset=".91" stop-color="#fde77e"/>
      <stop offset=".98" stop-color="#fde77b"/>
    </linearGradient>
    <linearGradient id="linear-gradient-2" x1="51.39" y1="227.03" x2="133.82" y2="227.03" xlink:href="#linear-gradient"/>
    <linearGradient id="linear-gradient-3" x1="60.48" y1="140.06" x2="92.83" y2="140.06" xlink:href="#linear-gradient"/>
  </defs>
  <path class="cls-4" d="M80.8,63.89s-17.56-.64-11.58-12.77c5.98-12.13,4.74-22.75-2.67-28.61-7.41-5.86-10.41-14.25-7.17-15.3,3.24-1.05,10.19,.83,10.19,.83,0,0-3.52,4.45,4.48,9.57,8,5.12,13.77,8.48,10.56,15.58-3.21,7.1-8.29,21.15-1.78,25.09,6.51,3.95-2.03,5.62-2.03,5.62Z"/>
  <path class="cls-6" d="M81.54,63.62s-13.41-11.36-1.2-17.2c12.2-5.84,17.79-14.95,15.59-24.13-2.2-9.19,.63-17.64,3.83-16.46,3.2,1.18,7.49,6.95,7.49,6.95,0,0-5.51,1.32-2.39,10.29,3.12,8.97,5.58,15.18-1.33,18.78-6.91,3.6-19.59,11.49-16.91,18.62,2.68,7.13-5.07,3.16-5.07,3.16Z"/>
  <path class="cls-5" d="M82.09,67.34s5.03-16.84-8.38-15.06c-13.41,1.78-23.07-2.8-26.24-11.7-3.17-8.9-10.16-14.43-12.2-11.7-2.03,2.73-2.48,9.91-2.48,9.91,0,0,5.34-1.9,7.62,7.31,2.29,9.22,3.62,15.76,11.37,15,7.75-.76,22.69-1.07,24.34,6.36,1.65,7.44,5.97-.13,5.97-.13Z"/>
  <path class="cls-3" d="M88.54,190.04s-21.18-129.45-7.29-129.97c13.89-.52,85.97,95.72,85.97,95.72,0,0-19.38,53.68-78.68,34.25Z"/>
  <path class="cls-1" d="M120.53,136.16c5.93-5.99,11.33-12.43,16.57-19.01-4.17-5.18-8.53-10.5-12.91-15.73-12.38,14.91-25.17,30.1-43.05,36.36,.91,7.43,1.86,14.64,2.77,21.2,14.23-3.13,26.43-12.54,36.62-22.83Z"/>
  <path class="cls-10" d="M116.03,191.41c15.09-6.47,28.12-17.35,39.19-29.31,3.06-3.31,6.06-6.78,8.9-10.4-2.03-2.67-4.96-6.5-8.52-11.11-8.93,11.92-19.08,23.14-30.83,32.25-10.43,8.08-23.07,15.22-36.5,15.52,.18,1.1,.27,1.7,.27,1.7,7.18,2.35,13.77,3.63,19.81,4.06,2.61-.72,5.18-1.63,7.67-2.7Z"/>
  <g>
    <g>
      <path class="cls-2" d="M85.1,140.25c2.68,3.77,7.92,4.65,11.69,1.97,3.77-2.68,4.65-7.92,1.97-11.69-2.68-3.77-7.92-4.65-11.69-1.97-3.77,2.68-4.65,7.92-1.97,11.69Z"/>
      <path class="cls-7" d="M87.37,138.09c2.15,3.02,6.33,3.72,9.35,1.57,3.02-2.15,3.72-6.33,1.57-9.35-2.15-3.02-6.33-3.72-9.35-1.57-3.02,2.15-3.72,6.33-1.57,9.35Z"/>
      <path class="cls-2" d="M85.13,138.96c.47,.66,1.96,.39,3.34-.59s2.12-2.31,1.65-2.96c-.47-.66-1.96-.39-3.34,.59-1.38,.98-2.12,2.31-1.65,2.96Z"/>
    </g>
    <g>
      <path class="cls-2" d="M114.79,119.11c2.68,3.77,7.92,4.65,11.69,1.97,3.77-2.68,4.65-7.92,1.97-11.69-2.68-3.77-7.92-4.65-11.69-1.97-3.77,2.68-4.65,7.92-1.97,11.69Z"/>
      <path class="cls-7" d="M117.06,116.95c2.15,3.02,6.33,3.72,9.35,1.57,3.02-2.15,3.72-6.33,1.57-9.35-2.15-3.02-6.33-3.72-9.35-1.57-3.02,2.15-3.72,6.33-1.57,9.35Z"/>
      <path class="cls-2" d="M114.82,117.83c.47,.66,1.96,.39,3.34-.59,1.38-.98,2.12-2.31,1.65-2.96s-1.96-.39-3.34,.59c-1.38,.98-2.12,2.31-1.65,2.96Z"/>
    </g>
    <path class="cls-7" d="M105.41,132.98c1.69-.14,3.45-.76,5.18-1.99,1.81-1.29,3-2.83,3.67-4.47,.06-.06,.11-.12,.17-.18,3.06-3.25,4.57,1.4,4.57,1.4,1,8.95-5.95,11.75-11.17,10.45-4.26-1.06-3.03-4.11-2.43-5.2Z"/>
    <path class="cls-4" d="M112.32,134.62c1.31-2.41,3.37-2.45,5.12-.98,.21,.17,.42,.32,.63,.45-1.29,2.5-3.63,3.85-6.11,4.26-.23-1.33-.22-2.65,.36-3.73Z"/>
    <path class="cls-4" d="M129.84,119.99c.49,.69,1.96,.49,3.27-.45s1.99-2.26,1.5-2.95c-.49-.69-1.96-.49-3.27,.45-1.32,.94-1.99,2.26-1.5,2.95Z"/>
    <path class="cls-4" d="M92.7,148.31c.49,.69,1.96,.49,3.27-.45,1.32-.94,1.99-2.26,1.5-2.95-.49-.69-1.96-.49-3.27,.45-1.32,.94-1.99,2.26-1.5,2.95Z"/>
  </g>
  <path class="cls-8" d="M123.97,177.85c-12.71-7.95-19.53-23.25-24.49-36.77-6.08-16.57-9.78-33.97-13-51.29-1.83-9.83-3.11-19.89-5.17-29.72-.02,0-.04,0-.06,0-13.89,.52,7.29,129.97,7.29,129.97,29.67,9.72,49.35,1.14,61.6-9.86-8.65,2.85-17.96,2.8-26.17-2.33Z"/>
  <path class="cls-9" d="M96.76,88.8c2.74-3.15,5.32-6.42,7.83-9.74-2.76-2.95-5.4-5.67-7.87-8.08-5.42,7.48-12.23,14.04-19.96,18.92,.22,5.1,.59,10.61,1.07,16.33,7.33-4.57,13.68-11.4,18.93-17.44Z"/>
</svg>