<?xml version="1.0" encoding="UTF-8"?>
<svg xmlns="http://www.w3.org/2000/svg" xmlns:xlink="http://www.w3.org/1999/xlink" viewBox="0 0 200 200">
  <defs>
    <style>
      .cls-1 {
        fill: none;
      }

      .cls-2 {
        clip-path: url(#clippath);
      }

      .cls-3, .cls-4 {
        fill: #fff;
      }

      .cls-5 {
        fill: #ef4b8b;
      }

      .cls-6 {
        fill: #fde77b;
      }

      .cls-7, .cls-8 {
        fill: #d5c3df;
      }

      .cls-9, .cls-10 {
        fill: #271c51;
      }

      .cls-8 {
        mix-blend-mode: multiply;
        opacity: .68;
      }

      .cls-10 {
        opacity: .17;
      }

      .cls-11 {
        isolation: isolate;
      }

      .cls-4 {
        opacity: .29;
      }
    </style>
    <clipPath id="clippath">
      <path class="cls-1" d="M121.1,114.27c-6.98,11.12-21.66,14.48-32.78,7.49-11.12-6.98-14.47-21.66-7.49-32.78,6.98-11.12,21.66-14.47,32.78-7.49,11.12,6.98,14.47,21.66,7.49,32.78Z"/>
    </clipPath>
  </defs>
  <g class="cls-11">
    <g id="Layer_1" data-name="Layer 1">
      <g>
        <g>
          <path class="cls-6" d="M115.99,110.98c-.66,.49-.29,1.54,.15,2.24,3.44,5.4,7.97,10.1,13.24,13.73,1.91,1.31,4.08,2.53,6.39,2.33,2.3-.21,4.52-2.48,3.83-4.68-.37-1.19-1.44-2.01-2.12-3.05-.69-1.04-.84-2.72,.27-3.3,.93-.48,2.01,.16,3.04,.38,2.74,.59,5.34-2.45,4.88-5.22-.46-2.77-3.22-4.74-6.01-5-.79-.07-1.64-.04-2.32-.46s-1-1.51-.36-1.99c.32-.24,.75-.24,1.15-.24,1.94,0,3.93-.32,5.57-1.36s2.86-2.87,2.75-4.81c-.15-2.58-2.6-4.56-5.14-5.04-2.54-.47-5.15,.21-7.63,.92-5.73,1.65-11.4,3.5-17,5.55l-.68,10Z"/>
          <path class="cls-10" d="M124.15,103.53s16.3-8.27,16.57-3.79c.27,4.49-16.57,3.79-16.57,3.79Z"/>
          <path class="cls-10" d="M122.67,108.01s18.05,2.89,15.63,6.67c-2.42,3.79-15.63-6.67-15.63-6.67Z"/>
          <path class="cls-10" d="M120.29,112.83s16.02,8.81,12.46,11.56c-3.56,2.75-12.46-11.56-12.46-11.56Z"/>
        </g>
        <g>
          <path class="cls-6" d="M81.77,98.25c.32,.76-.54,1.47-1.28,1.84-5.72,2.88-12.01,4.59-18.4,5.01-2.31,.15-4.8,.08-6.68-1.27s-2.62-4.44-.89-5.98c.93-.83,2.26-.99,3.39-1.53,1.12-.54,2.11-1.91,1.46-2.97-.55-.89-1.81-.89-2.8-1.23-2.66-.9-3.33-4.84-1.52-6.98,1.81-2.14,5.19-2.42,7.72-1.21,.72,.34,1.43,.8,2.23,.79,.8-.01,1.63-.79,1.33-1.53-.15-.37-.52-.59-.87-.79-1.66-.99-3.21-2.29-4.09-4.02-.88-1.73-.99-3.93,.1-5.54,1.45-2.14,4.57-2.59,7-1.69,2.43,.89,4.32,2.81,6.09,4.7,4.08,4.35,8.01,8.84,11.76,13.47l-4.54,8.94Z"/>
          <path class="cls-10" d="M78.58,87.67s-9.77-15.45-12.3-11.74c-2.53,3.72,12.3,11.74,12.3,11.74Z"/>
          <path class="cls-10" d="M77.54,92.28s-16.99-6.76-16.85-2.27c.14,4.49,16.85,2.27,16.85,2.27Z"/>
          <path class="cls-10" d="M77.13,97.63s-18.27-.63-16.62,3.55c1.65,4.18,16.62-3.55,16.62-3.55Z"/>
        </g>
        <g class="cls-2">
          <path class="cls-7" d="M121.1,114.27c-6.98,11.12-21.66,14.48-32.78,7.49-11.12-6.98-14.47-21.66-7.49-32.78,6.98-11.12,21.66-14.47,32.78-7.49,11.12,6.98,14.47,21.66,7.49,32.78Z"/>
          <path class="cls-4" d="M113.61,81.48c-.31-.2-.63-.38-.95-.56-4.6,.22-8.3,4.52-9.92,8.51-1.96,4.81-1.41,10.79,2.17,14.71,3.14,3.45,8.59,4.37,13.21,3.27,3.51-2.27,5.64-6.12,6.2-10.25-1.19-6.26-4.88-12.03-10.71-15.69Z"/>
          <path class="cls-8" d="M115.43,117.46c-12.61,1.93-23.22-9.21-24.05-21.15-.47-6.67,1.77-13.21,5.87-18.17-6.54,1.04-12.62,4.78-16.42,10.83-6.98,11.12-3.63,25.8,7.49,32.78,10.48,6.58,24.13,3.98,31.51-5.66-1.34,.65-2.81,1.12-4.39,1.36Z"/>
          <path class="cls-6" d="M98.06,88.27c-7.87-4.94-12.94-9.87-13.17-10.09l1.4-1.43c.23,.22,22.87,22.05,45.66,19.05l.26,1.99c-12.45,1.64-24.67-3.79-32.72-8.63-.49-.29-.96-.59-1.43-.88Z"/>
          <path class="cls-6" d="M90.71,101.3c-9.23-5.79-15.34-11.73-15.4-11.79l1.4-1.43c.26,.26,26.78,25.82,53.49,22.3l.26,1.99c-14.5,1.91-28.74-4.42-38.13-10.06-.55-.33-1.09-.66-1.62-1Z"/>
          <path class="cls-6" d="M83.49,112.81c-9.23-5.79-15.34-11.73-15.4-11.79l1.4-1.43c.26,.26,26.78,25.82,53.49,22.3l.26,1.99c-14.5,1.91-28.74-4.42-38.13-10.06-.55-.33-1.09-.66-1.62-1Z"/>
        </g>
        <path class="cls-5" d="M95.62,101.59c-.14,.45-.95,.59-1.8,.32-.85-.27-1.43-.85-1.29-1.3,.14-.45,.95-.59,1.8-.32,.85,.27,1.43,.85,1.29,1.3Z"/>
        <path class="cls-5" d="M119.98,110.24c-.14,.45-.95,.59-1.8,.32-.85-.27-1.43-.85-1.29-1.3,.14-.45,.95-.59,1.8-.32s1.43,.85,1.29,1.3Z"/>
        <path class="cls-9" d="M107.08,106.8c-3.22-.99-4.93-3.69-4.95-3.73-.16-.27-.08-.62,.19-.78,.27-.16,.62-.08,.78,.19,.14,.22,3.38,5.31,9.55,2.91,.29-.11,.62,.03,.74,.32,.11,.29-.03,.62-.32,.74-2.36,.92-4.36,.85-5.98,.36Z"/>
        <g>
          <path class="cls-3" d="M96.36,93c-.7,2.27,.58,4.68,2.85,5.37,2.27,.7,4.68-.58,5.37-2.85s-.58-4.68-2.85-5.37c-2.27-.7-4.68,.58-5.37,2.85Z"/>
          <path class="cls-9" d="M97.95,93.25c-.56,1.82,.46,3.74,2.28,4.3,1.82,.56,3.74-.46,4.3-2.28,.56-1.82-.46-3.74-2.28-4.3-1.82-.56-3.74,.46-4.3,2.28Z"/>
          <path class="cls-3" d="M96.89,92.61c-.12,.39,.45,.92,1.28,1.18,.83,.25,1.6,.14,1.72-.25,.12-.39-.45-.92-1.28-1.18-.83-.25-1.6-.14-1.72,.25Z"/>
        </g>
        <g>
          <path class="cls-3" d="M114.23,98.49c-.7,2.27,.58,4.68,2.85,5.37,2.27,.7,4.68-.58,5.37-2.85,.7-2.27-.58-4.68-2.85-5.37-2.27-.7-4.68,.58-5.37,2.85Z"/>
          <path class="cls-9" d="M115.82,98.74c-.56,1.82,.46,3.74,2.28,4.3s3.74-.46,4.3-2.28c.56-1.82-.46-3.74-2.28-4.3s-3.74,.46-4.3,2.28Z"/>
          <path class="cls-3" d="M114.77,98.1c-.12,.39,.45,.92,1.28,1.18,.83,.25,1.6,.14,1.72-.25,.12-.39-.45-.92-1.28-1.18s-1.6-.14-1.72,.25Z"/>
        </g>
      </g>
    </g>
  </g>
</svg>