<?xml version="1.0" encoding="UTF-8"?>
<svg xmlns="http://www.w3.org/2000/svg" viewBox="0 0 200 200">
  <defs>
    <style>
      .cls-1 {
        fill: #ef4b8b;
      }

      .cls-2 {
        fill: #fde77b;
      }

      .cls-3 {
        fill: #81cfcf;
      }

      .cls-4, .cls-5 {
        fill: #271c51;
      }

      .cls-6 {
        fill: #d5c3df;
        mix-blend-mode: multiply;
        opacity: .68;
      }

      .cls-5 {
        opacity: .17;
      }

      .cls-7 {
        isolation: isolate;
      }

      .cls-8 {
        fill: #fff;
        opacity: .29;
      }
    </style>
  </defs>
  <g class="cls-7">
    <g id="Layer_1" data-name="Layer 1">
      <g>
        <g>
          <path class="cls-3" d="M86.74,104.41c.4,.46-.03,1.16-.47,1.6-3.35,3.37-7.38,6.06-11.77,7.86-1.59,.65-3.36,1.19-5,.68-1.64-.51-2.89-2.51-2.03-4,.46-.8,1.36-1.23,2.02-1.88,.66-.64,1.04-1.84,.33-2.43-.6-.5-1.48-.2-2.26-.2-2.08,0-3.48-2.62-2.71-4.55,.77-1.93,3.08-2.93,5.15-2.67,.59,.07,1.19,.23,1.75,.03,.56-.19,.96-.94,.58-1.39-.19-.22-.51-.29-.8-.36-1.4-.31-2.8-.86-3.83-1.86-1.03-1.01-1.62-2.54-1.23-3.92,.52-1.85,2.61-2.9,4.53-2.84,1.92,.06,3.7,.96,5.39,1.87,3.89,2.1,7.71,4.34,11.45,6.71l-1.09,7.36Z"/>
          <path class="cls-5" d="M82,97.72s-10.51-8.58-11.42-5.37,11.42,5.37,11.42,5.37Z"/>
          <path class="cls-5" d="M82.36,101.2s-13.55-.76-12.39,2.37c1.16,3.13,12.39-2.37,12.39-2.37Z"/>
          <path class="cls-5" d="M83.33,105.07s-13.01,3.85-10.86,6.41c2.14,2.56,10.86-6.41,10.86-6.41Z"/>
        </g>
        <g>
          <path class="cls-3" d="M113.56,100.59c-.35,.5,.16,1.15,.63,1.54,3.69,2.99,7.98,5.23,12.55,6.55,1.65,.48,3.47,.82,5.04,.13,1.57-.69,2.6-2.81,1.59-4.2-.54-.75-1.48-1.08-2.21-1.65-.73-.57-1.23-1.72-.59-2.39,.54-.56,1.45-.36,2.23-.45,2.07-.23,3.18-2.98,2.2-4.82-.98-1.84-3.38-2.58-5.41-2.1-.57,.14-1.16,.35-1.74,.22-.57-.13-1.06-.83-.72-1.32,.17-.24,.47-.34,.75-.44,1.36-.46,2.69-1.15,3.6-2.27,.91-1.11,1.34-2.7,.8-4.03-.71-1.78-2.9-2.6-4.81-2.33s-3.57,1.36-5.16,2.44c-3.65,2.51-7.2,5.14-10.66,7.9l1.88,7.2Z"/>
          <path class="cls-5" d="M117.55,93.42s9.53-9.66,10.77-6.56-10.77,6.56-10.77,6.56Z"/>
          <path class="cls-5" d="M117.57,96.93s13.39-2.22,12.57,1.02-12.57-1.02-12.57-1.02Z"/>
          <path class="cls-5" d="M117.02,100.88s13.35,2.43,11.49,5.2c-1.86,2.77-11.49-5.2-11.49-5.2Z"/>
        </g>
        <path class="cls-2" d="M82.51,105.98c3.3,9.17,13.42,13.92,22.58,10.62,9.17-3.3,13.92-13.42,10.62-22.58-3.3-9.17-13.42-13.92-22.58-10.62-9.17,3.3-13.92,13.42-10.62,22.58Z"/>
        <path class="cls-8" d="M93.13,83.4c.26-.09,.52-.18,.78-.26,3.3,.89,5.3,4.59,5.85,7.74,.66,3.8-.68,8.04-3.9,10.32-2.82,2-6.92,1.81-10.1,.28-2.19-2.2-3.12-5.33-2.87-8.41,1.86-4.35,5.44-7.95,10.24-9.68Z"/>
        <path class="cls-6" d="M86.12,109.19c8.84,3.39,18.29-3.01,20.78-11.53,1.39-4.76,.81-9.86-1.38-14.1,4.58,1.79,8.39,5.46,10.19,10.45,3.3,9.17-1.45,19.28-10.62,22.58-8.64,3.12-18.12-.93-21.95-9.09,.87,.68,1.86,1.25,2.97,1.68Z"/>
        <path class="cls-1" d="M102.99,100.83c.03,.35,.59,.58,1.26,.51,.66-.06,1.17-.39,1.14-.74-.03-.35-.59-.58-1.26-.51-.66,.06-1.17,.39-1.14,.74Z"/>
        <path class="cls-1" d="M83.96,103.24c.03,.35,.59,.58,1.26,.51,.66-.06,1.17-.39,1.14-.74-.03-.35-.59-.58-1.26-.51-.66,.06-1.17,.39-1.14,.74Z"/>
        <path class="cls-4" d="M93.86,102.79c2.49-.21,4.15-1.9,4.18-1.92,.16-.17,.16-.44-.01-.6-.17-.16-.43-.16-.6,.01-.13,.14-3.29,3.31-7.38,.6-.19-.13-.46-.07-.59,.12-.13,.19-.08,.46,.12,.59,1.57,1.04,3.03,1.31,4.28,1.21Z"/>
        <path class="cls-4" d="M100.65,90.75c-.06,0-.08,.02-.09,.02-1.01,.16-1.77,.64-2.24,1.42-1.21,2.03-.07,5.36-.02,5.5,.04,.11,.15,.16,.26,.13,.11-.04,.17-.16,.13-.26-.01-.03-1.13-3.29-.01-5.15,.4-.67,1.06-1.09,1.96-1.23,.02,0,1.08-.23,1.97,.52,.98,.83,1.42,2.57,1.28,5.03,0,.11,.08,.21,.2,.22,.12,0,.21-.08,.22-.2,.15-2.64-.33-4.45-1.43-5.38-.9-.76-1.92-.67-2.23-.63Z"/>
        <path class="cls-4" d="M87.45,91.35c-.06,0-.08,.02-.09,.02-1.01,.16-1.77,.64-2.24,1.42-1.21,2.03-.07,5.36-.02,5.5,.04,.11,.15,.16,.26,.13,.11-.04,.17-.16,.13-.26-.01-.03-1.13-3.29-.01-5.15,.4-.67,1.06-1.09,1.96-1.23,.02,0,1.08-.23,1.97,.52,.98,.83,1.42,2.57,1.28,5.03,0,.11,.08,.21,.2,.22,.12,0,.21-.08,.22-.2,.15-2.64-.33-4.45-1.43-5.38-.9-.76-1.92-.67-2.23-.63Z"/>
      </g>
    </g>
  </g>
</svg>