<?xml version="1.0" encoding="UTF-8"?>
<svg xmlns="http://www.w3.org/2000/svg" viewBox="0 0 200 200">
  <defs>
    <style>
      .cls-1, .cls-2 {
        fill: #fff;
      }

      .cls-3 {
        fill: #ef4b8b;
      }

      .cls-4 {
        fill: #fde77b;
      }

      .cls-5 {
        fill: #271c51;
      }

      .cls-6 {
        fill: #d5c3df;
        mix-blend-mode: multiply;
        opacity: .68;
      }

      .cls-7 {
        isolation: isolate;
      }

      .cls-2 {
        opacity: .28;
      }
    </style>
  </defs>
  <g class="cls-7">
    <g id="Layer_1" data-name="Layer 1">
      <g>
        <path class="cls-4" d="M92.81,65.52c5.56,.2,16.32,17.71,16.32,17.71,0,0,21.63-8.43,23.84-3.4,2.21,5.02-11.8,20.99-11.8,20.99,0,0,14.11,16.22,10.6,21.62-3.51,5.4-23.61-4.73-23.61-4.73,0,0-11.21,17.33-17.28,16.77-6.07-.57-2.79-23.92-2.79-23.92,0,0-20.92-4.2-21.29-11.26s21.88-10.05,21.88-10.05c0,0-1.43-23.92,4.13-23.72Z"/>
        <path class="cls-6" d="M98.63,121.5c-3.55,3.53-6.17,8.17-7.69,12.97,5.89,.43,16.51-15.68,17.18-16.71-3.46-.25-6.64,.9-9.5,3.74Z"/>
        <path class="cls-6" d="M108.3,117.77c.92,.45,6.77,3.31,12.47,5-2.64-1.47-5.29-2.92-8.1-3.97-1.51-.57-2.96-.91-4.38-1.03Z"/>
        <path class="cls-2" d="M88.66,89.25c5.4,12.45,23.42,17.52,33.95,9.87,1.52-1.84,4-4.95,6.18-8.22,.27-.7,.51-1.43,.71-2.19,.28-1.05,.97-1.66,1.77-1.91,1.51-2.84,2.37-5.42,1.69-6.97-2.21-5.02-23.84,3.4-23.84,3.4,0,0-10.76-17.51-16.32-17.71-5.56-.2-4.13,23.72-4.13,23.72,0,0-.01,0-.03,0Z"/>
        <path class="cls-2" d="M95.17,71.22c3.66,4.12,6.24,9.01,9.6,13.35,1,1.29,2.49,3.02,3.72,3.32,3.49,.85,7.68-2.47,10.52-4.1,3.78-2.16,9.59-4.52,14.17-3.11-.03-.31-.1-.61-.21-.86-2.21-5.02-23.84,3.4-23.84,3.4,0,0-10.76-17.51-16.32-17.71-.99-.04-1.76,.7-2.36,1.93,1.73,.88,3.33,2.21,4.71,3.77Z"/>
        <g>
          <g>
            <path class="cls-1" d="M85.95,101.66c.77,2.85,3.69,4.53,6.54,3.77,2.85-.77,4.54-3.69,3.77-6.54-.77-2.85-3.69-4.54-6.54-3.77-2.85,.77-4.54,3.69-3.77,6.54Z"/>
            <path class="cls-5" d="M87.78,100.88c.61,2.28,2.96,3.63,5.23,3.02,2.28-.61,3.63-2.96,3.02-5.23-.61-2.28-2.96-3.63-5.23-3.02-2.28,.61-3.63,2.96-3.02,5.23Z"/>
            <path class="cls-1" d="M86.25,100.91c.13,.5,1.08,.67,2.12,.39,1.04-.28,1.78-.91,1.64-1.4-.13-.5-1.08-.67-2.12-.39-1.04,.28-1.78,.91-1.64,1.4Z"/>
          </g>
          <g>
            <path class="cls-1" d="M108.36,95.64c.77,2.85,3.69,4.54,6.54,3.77,2.85-.77,4.54-3.69,3.77-6.54-.77-2.85-3.69-4.54-6.54-3.77-2.85,.77-4.53,3.69-3.77,6.54Z"/>
            <path class="cls-5" d="M110.2,94.85c.61,2.28,2.96,3.63,5.23,3.02,2.28-.61,3.63-2.96,3.02-5.23-.61-2.28-2.96-3.63-5.23-3.02s-3.63,2.96-3.02,5.23Z"/>
            <path class="cls-1" d="M108.67,94.88c.13,.5,1.08,.67,2.12,.39,1.04-.28,1.78-.91,1.64-1.4-.13-.5-1.08-.67-2.12-.39-1.04,.28-1.78,.91-1.64,1.4Z"/>
          </g>
          <path class="cls-5" d="M99.69,101.84c1.04,.29,2.23,.31,3.54-.04,1.37-.37,2.42-1.03,3.19-1.85,.05-.02,.09-.05,.14-.07,2.55-1.26,2.42,1.85,2.42,1.85-1.39,5.57-6.16,5.69-8.99,3.76-2.31-1.58-.89-3.13-.3-3.65Z"/>
          <path class="cls-3" d="M103.45,104.35c1.31-1.15,2.56-.72,3.27,.55,.08,.15,.18,.28,.27,.41-1.32,1.2-3.02,1.5-4.59,1.19,.16-.84,.46-1.63,1.05-2.15Z"/>
          <path class="cls-3" d="M117.16,99.5c.14,.52,1.06,.73,2.05,.46,.99-.27,1.69-.91,1.55-1.43-.14-.52-1.06-.73-2.05-.46-.99,.27-1.69,.91-1.55,1.43Z"/>
          <path class="cls-3" d="M88.7,108.16c.14,.52,1.06,.73,2.05,.46,.99-.27,1.69-.91,1.55-1.43-.14-.52-1.06-.73-2.05-.46-.99,.27-1.69,.91-1.55,1.43Z"/>
        </g>
      </g>
    </g>
  </g>
</svg>