<?xml version="1.0" encoding="UTF-8"?>
<svg id="Layer_1" data-name="Layer 1" xmlns="http://www.w3.org/2000/svg" viewBox="0 0 200 200">
  <defs>
    <style>
      .cls-1 {
        fill: #fff;
      }

      .cls-2 {
        fill: #ef4b8b;
      }

      .cls-3 {
        fill: #fde77b;
      }

      .cls-4, .cls-5 {
        fill: #271c51;
      }

      .cls-5 {
        opacity: .18;
      }

      .cls-6 {
        opacity: .75;
      }
    </style>
  </defs>
  <path class="cls-2" d="M35.55,65.28s58.78,128.89,70.79,128.21c12.01-.68,68.86-25.64,68.17-37.65-.68-12.01-67.39-127.61-67.39-127.61,0,0-33.07,7.11-71.57,37.05Z"/>
  <polygon class="cls-3" points="81.92 95.83 70.58 89.61 59.02 95.43 61.43 82.72 52.32 73.54 65.16 71.9 71.08 60.4 76.61 72.09 89.37 74.17 79.96 83.04 81.92 95.83"/>
  <polygon class="cls-3" points="150.81 159.36 139.47 153.15 127.91 158.97 130.32 146.26 121.21 137.07 134.05 135.43 139.97 123.93 145.49 135.63 158.26 137.71 148.84 146.58 150.81 159.36"/>
  <polygon class="cls-3" points="126.95 97.6 118.23 96.07 112.03 102.39 110.79 93.63 102.87 89.68 110.82 85.79 112.12 77.04 118.27 83.4 127 81.93 122.86 89.75 126.95 97.6"/>
  <polygon class="cls-3" points="107.32 54.61 101.92 54.82 99.04 59.38 97.17 54.32 91.94 52.98 96.18 49.64 95.83 44.26 100.32 47.26 105.34 45.26 103.87 50.46 107.32 54.61"/>
  <polygon class="cls-3" points="116.53 169.43 111.35 170.93 109.65 176.06 106.61 171.59 101.21 171.56 104.52 167.3 102.89 162.15 107.97 163.98 112.35 160.83 112.18 166.23 116.53 169.43"/>
  <polygon class="cls-3" points="102.69 137.96 93.97 136.43 87.77 142.75 86.53 133.99 78.61 130.05 86.55 126.15 87.86 117.4 94.01 123.76 102.74 122.29 98.6 130.11 102.69 137.96"/>
  <path class="cls-5" d="M163.81,162.93c-12.69,6.89-28.71,8.9-42.49,4.32-14.33-4.76-25.74-16.77-34.78-28.36-18.38-23.54-32.31-51.66-42.39-79.98-2.83,2-5.69,4.11-8.59,6.37,0,0,58.78,128.89,70.79,128.21,12.01-.68,68.86-25.64,68.17-37.65-.01-.19-.04-.41-.08-.66-3.09,2.99-6.66,5.6-10.62,7.75Z"/>
  <g class="cls-6">
    <path class="cls-4" d="M45.05,89.34c-.37,.04-.74-.16-.91-.51-.22-.45-.03-1,.42-1.22L118.67,51.73c.45-.22,1-.03,1.22,.42,.22,.45,.03,1-.42,1.22L45.35,89.25c-.1,.05-.2,.08-.31,.09Z"/>
  </g>
  <path class="cls-3" d="M149.29,22.56c-10.93-8.3-21.06,5.54-22.33,15.33-1.01,7.85,.27,16.03-3.82,23.19-3.54,6.18-10.16,11.2-17.58,10.54-7.16-.63-12.58-6.12-16.8-11.46-4.09-5.18-7.79-10.7-11.52-16.16,.04-.29,.09-.57,.12-.87,.01-.14,0-.26,0-.39,10.94-3.27,28.9-11.74,21.13-24.8-2.67-4.49-8.07-6.35-12.6-3.26-.9,.62-1.69,1.37-2.41,2.19,0-.12,0-.23,0-.35-.14-4.92-2.76-10.37-8.48-10.02-6.87,.42-9.46,5.61-9.9,12.03-1.08-1.67-2.25-3.28-3.51-4.81-3.65-4.44-11.91-8.72-15.94-2.09-2.96,4.87,.47,11.44,4.06,16.22-2.03-.83-4.08-1.54-6.14-2.06-6.37-1.61-15.43,.69-15.9,8.58-.43,7.2,7.28,10.67,13.33,12.3-3.72,3.11-6.08,8.38-2.02,12.38,4.44,4.36,12.05,1.27,16.75-.91,6.47-3,12.09-7.45,16.66-12.87-4.41,20.66-32.15,26.15-42.65,43-9.49,15.23-2.4,36.33,14.31,42.91,2.74,1.08,4.43-3.16,1.7-4.24-8.38-3.29-14.2-11.09-15.57-19.94-1.62-10.43,4.03-19.01,11.78-25.43,11.57-9.61,28.27-16.84,33.76-31.46,5.78,8.95,12.11,18.57,21.12,23.46,10.15,5.51,21.69,1.61,28.39-7.34,3.83-5.13,5.29-10.96,5.66-17.27,.44-7.42-.34-16.05,5.7-21.54,6.77-6.16,12.83,.19,14.3,7.29,1.67,8.08,.81,16.99-.32,25.07-.41,2.91,4.12,3.46,4.53,.55,1.09-7.82,1.67-16.03,.68-23.91-.63-5.01-2.28-10.66-6.49-13.86Zm-65.28,1.78c1.24-2.2,2.85-5.54,5.43-6.41,2.72-.91,5.01,1.34,5.79,3.74,2.75,8.49-9.14,13.72-17.25,16.21,1.46-2.84,2.74-5.88,3.69-9.01,.74-1.53,1.51-3.04,2.35-4.53Zm-14.04,1.52c-.33-3.25-1.17-13.53,3.81-14.42,7.63-1.36,5.35,9.83,2.58,18.01-1.13,2.5-2.16,5.04-3.09,7.63,0,.02,0,.04-.01,.05-.79-2.89-1.75-5.75-2.9-8.54-.15-.91-.28-1.82-.38-2.74Zm-18.27-13.03c1.77-.77,4.47,1.69,5.47,2.74,2.01,2.13,3.65,4.74,5.15,7.25,1.49,2.49,2.77,5.07,3.87,7.73,.46,2.2,1.03,4.3,1.62,6.19-8.01-3.49-15.04-10-17.97-18.21-.69-1.95-.48-4.67,1.86-5.69Zm-19.08,23.02c-.97-4.4,3.73-6.4,7.5-6.08,3.04,.26,5.94,1.66,8.68,2.93,4.85,2.25,9.55,4.81,14.11,7.58-5.25,.36-10.61,1.25-15.5,3.05-5.46-.58-13.66-2.33-14.79-7.48Zm14.11,20.63c-.81,.12-2.02,.37-2.8,.1-4.09-1.39-2.07-4.65-.33-6.29,1.18-1.12,2.96-1.78,4.62-2.32,5.88,.52,11.79-.23,17.41-2.08-5.25,5.19-11.9,9.51-18.89,10.59Z"/>
  <g>
    <g>
      <path class="cls-1" d="M81.11,122.16c2.45,4.72,8.27,6.56,12.99,4.11,4.72-2.45,6.56-8.27,4.11-12.99s-8.27-6.56-12.99-4.11c-4.72,2.45-6.56,8.27-4.11,12.99Z"/>
      <path class="cls-4" d="M84.04,120.06c1.96,3.78,6.62,5.25,10.39,3.29,3.78-1.96,5.25-6.62,3.29-10.39-1.96-3.78-6.62-5.25-10.39-3.29-3.78,1.96-5.25,6.62-3.29,10.39Z"/>
      <path class="cls-1" d="M81.35,120.7c.43,.82,2.17,.76,3.9-.13,1.72-.9,2.78-2.29,2.35-3.11-.43-.82-2.17-.76-3.9,.13-1.72,.9-2.78,2.29-2.35,3.11Z"/>
    </g>
    <g>
      <path class="cls-1" d="M118.29,102.85c2.45,4.72,8.27,6.56,12.99,4.11,4.72-2.45,6.56-8.27,4.11-12.99s-8.27-6.56-12.99-4.11c-4.72,2.45-6.56,8.27-4.11,12.99Z"/>
      <path class="cls-4" d="M121.22,100.75c1.96,3.78,6.62,5.25,10.39,3.29,3.78-1.96,5.25-6.62,3.29-10.39-1.96-3.78-6.62-5.25-10.39-3.29-3.78,1.96-5.25,6.62-3.29,10.39Z"/>
      <path class="cls-1" d="M118.53,101.39c.43,.82,2.17,.76,3.9-.13,1.72-.9,2.78-2.29,2.35-3.11-.43-.82-2.17-.76-3.9,.13-1.72,.9-2.78,2.29-2.35,3.11Z"/>
    </g>
    <path class="cls-4" d="M105.39,117.14c1.95,.11,4.05-.32,6.22-1.44,2.27-1.18,3.86-2.75,4.9-4.5,.08-.06,.15-.12,.22-.18,4-3.21,4.98,2.32,4.98,2.32-.29,10.35-8.65,12.42-14.38,10.11-4.68-1.89-2.79-5.17-1.94-6.31Z"/>
    <path class="cls-2" d="M113,120.11c1.87-2.54,4.23-2.25,5.98-.3,.21,.23,.42,.43,.64,.62-1.87,2.63-4.74,3.81-7.64,3.87-.05-1.55,.17-3.06,1.01-4.19Z"/>
    <path class="cls-2" d="M135.28,106.25c.45,.86,2.15,.87,3.8,.01s2.62-2.25,2.17-3.11c-.45-.86-2.15-.87-3.8-.01-1.65,.86-2.62,2.25-2.17,3.11Z"/>
    <path class="cls-2" d="M88.47,132.55c.45,.86,2.15,.87,3.8,.01,1.65-.86,2.62-2.25,2.17-3.11-.45-.86-2.15-.87-3.8-.01s-2.62,2.25-2.17,3.11Z"/>
  </g>
</svg>